%TF.GenerationSoftware,KiCad,Pcbnew,8.0.5*%
%TF.CreationDate,2024-12-20T11:39:28+13:00*%
%TF.ProjectId,eurorack_to_usb_7805,6575726f-7261-4636-9b5f-746f5f757362,rev?*%
%TF.SameCoordinates,Original*%
%TF.FileFunction,Copper,L2,Bot*%
%TF.FilePolarity,Positive*%
%FSLAX46Y46*%
G04 Gerber Fmt 4.6, Leading zero omitted, Abs format (unit mm)*
G04 Created by KiCad (PCBNEW 8.0.5) date 2024-12-20 11:39:28*
%MOMM*%
%LPD*%
G01*
G04 APERTURE LIST*
G04 Aperture macros list*
%AMRoundRect*
0 Rectangle with rounded corners*
0 $1 Rounding radius*
0 $2 $3 $4 $5 $6 $7 $8 $9 X,Y pos of 4 corners*
0 Add a 4 corners polygon primitive as box body*
4,1,4,$2,$3,$4,$5,$6,$7,$8,$9,$2,$3,0*
0 Add four circle primitives for the rounded corners*
1,1,$1+$1,$2,$3*
1,1,$1+$1,$4,$5*
1,1,$1+$1,$6,$7*
1,1,$1+$1,$8,$9*
0 Add four rect primitives between the rounded corners*
20,1,$1+$1,$2,$3,$4,$5,0*
20,1,$1+$1,$4,$5,$6,$7,0*
20,1,$1+$1,$6,$7,$8,$9,0*
20,1,$1+$1,$8,$9,$2,$3,0*%
G04 Aperture macros list end*
%TA.AperFunction,ComponentPad*%
%ADD10R,1.524000X1.524000*%
%TD*%
%TA.AperFunction,ComponentPad*%
%ADD11C,1.524000*%
%TD*%
%TA.AperFunction,ComponentPad*%
%ADD12C,3.500000*%
%TD*%
%TA.AperFunction,ComponentPad*%
%ADD13C,1.600000*%
%TD*%
%TA.AperFunction,ComponentPad*%
%ADD14RoundRect,0.250000X-0.600000X0.600000X-0.600000X-0.600000X0.600000X-0.600000X0.600000X0.600000X0*%
%TD*%
%TA.AperFunction,ComponentPad*%
%ADD15C,1.700000*%
%TD*%
%TA.AperFunction,ComponentPad*%
%ADD16R,2.000000X1.905000*%
%TD*%
%TA.AperFunction,ComponentPad*%
%ADD17O,2.000000X1.905000*%
%TD*%
G04 APERTURE END LIST*
D10*
%TO.P,J2,1,VBUS*%
%TO.N,Net-(J2-VBUS)*%
X145000000Y-100500000D03*
D11*
%TO.P,J2,2,D-*%
%TO.N,unconnected-(J2-D--Pad2)*%
X147500000Y-100500000D03*
%TO.P,J2,3,D+*%
%TO.N,unconnected-(J2-D+-Pad3)*%
X149500000Y-100500000D03*
%TO.P,J2,4,GND*%
%TO.N,GND*%
X152000000Y-100500000D03*
D12*
%TO.P,J2,5,Shield*%
X141930000Y-103210000D03*
X155070000Y-103210000D03*
%TD*%
D13*
%TO.P,C1,1*%
%TO.N,Net-(J1-Pin_9)*%
X160000000Y-100000000D03*
%TO.P,C1,2*%
%TO.N,GND*%
X160000000Y-105000000D03*
%TD*%
D14*
%TO.P,J1,1,Pin_1*%
%TO.N,unconnected-(J1-Pin_1-Pad1)*%
X154000000Y-80000000D03*
D15*
%TO.P,J1,2,Pin_2*%
%TO.N,unconnected-(J1-Pin_2-Pad2)*%
X154000000Y-82540000D03*
%TO.P,J1,3,Pin_3*%
%TO.N,GND*%
X151460000Y-80000000D03*
%TO.P,J1,4,Pin_4*%
X151460000Y-82540000D03*
%TO.P,J1,5,Pin_5*%
X148920000Y-80000000D03*
%TO.P,J1,6,Pin_6*%
X148920000Y-82540000D03*
%TO.P,J1,7,Pin_7*%
X146380000Y-80000000D03*
%TO.P,J1,8,Pin_8*%
X146380000Y-82540000D03*
%TO.P,J1,9,Pin_9*%
%TO.N,Net-(J1-Pin_9)*%
X143840000Y-80000000D03*
%TO.P,J1,10,Pin_10*%
%TO.N,unconnected-(J1-Pin_10-Pad10)*%
X143840000Y-82540000D03*
%TD*%
D16*
%TO.P,U1,1,VI*%
%TO.N,Net-(J1-Pin_9)*%
X158050000Y-95040000D03*
D17*
%TO.P,U1,2,GND*%
%TO.N,GND*%
X158050000Y-92500000D03*
%TO.P,U1,3,VO*%
%TO.N,Net-(J2-VBUS)*%
X158050000Y-89960000D03*
%TD*%
D13*
%TO.P,C2,1*%
%TO.N,Net-(J2-VBUS)*%
X137500000Y-100000000D03*
%TO.P,C2,2*%
%TO.N,GND*%
X137500000Y-105000000D03*
%TD*%
%TA.AperFunction,Conductor*%
%TO.N,GND*%
G36*
X145914075Y-80192993D02*
G01*
X145979901Y-80307007D01*
X146072993Y-80400099D01*
X146187007Y-80465925D01*
X146250590Y-80482962D01*
X145618625Y-81114925D01*
X145695031Y-81168425D01*
X145738655Y-81223002D01*
X145745848Y-81292501D01*
X145714326Y-81354855D01*
X145695029Y-81371576D01*
X145618625Y-81425072D01*
X146250590Y-82057037D01*
X146187007Y-82074075D01*
X146072993Y-82139901D01*
X145979901Y-82232993D01*
X145914075Y-82347007D01*
X145897037Y-82410590D01*
X145265073Y-81778626D01*
X145211881Y-81854594D01*
X145157304Y-81898219D01*
X145087806Y-81905413D01*
X145025451Y-81873891D01*
X145008730Y-81854594D01*
X144878494Y-81668597D01*
X144711402Y-81501506D01*
X144711396Y-81501501D01*
X144525842Y-81371575D01*
X144482217Y-81316998D01*
X144475023Y-81247500D01*
X144506546Y-81185145D01*
X144525842Y-81168425D01*
X144668325Y-81068657D01*
X144711401Y-81038495D01*
X144878495Y-80871401D01*
X145008732Y-80685403D01*
X145063307Y-80641780D01*
X145132805Y-80634586D01*
X145195160Y-80666109D01*
X145211880Y-80685405D01*
X145265073Y-80761373D01*
X145897037Y-80129409D01*
X145914075Y-80192993D01*
G37*
%TD.AperFunction*%
%TA.AperFunction,Conductor*%
G36*
X150994075Y-80192993D02*
G01*
X151059901Y-80307007D01*
X151152993Y-80400099D01*
X151267007Y-80465925D01*
X151330590Y-80482962D01*
X150698625Y-81114925D01*
X150775031Y-81168425D01*
X150818655Y-81223002D01*
X150825848Y-81292501D01*
X150794326Y-81354855D01*
X150775029Y-81371576D01*
X150698625Y-81425072D01*
X151330590Y-82057037D01*
X151267007Y-82074075D01*
X151152993Y-82139901D01*
X151059901Y-82232993D01*
X150994075Y-82347007D01*
X150977037Y-82410590D01*
X150345072Y-81778625D01*
X150345072Y-81778626D01*
X150291574Y-81855030D01*
X150236998Y-81898655D01*
X150167499Y-81905849D01*
X150105144Y-81874326D01*
X150088424Y-81855030D01*
X150034925Y-81778626D01*
X150034925Y-81778625D01*
X149402962Y-82410589D01*
X149385925Y-82347007D01*
X149320099Y-82232993D01*
X149227007Y-82139901D01*
X149112993Y-82074075D01*
X149049410Y-82057037D01*
X149681373Y-81425073D01*
X149604969Y-81371576D01*
X149561344Y-81316999D01*
X149554150Y-81247501D01*
X149585672Y-81185146D01*
X149604968Y-81168425D01*
X149681373Y-81114925D01*
X149049409Y-80482962D01*
X149112993Y-80465925D01*
X149227007Y-80400099D01*
X149320099Y-80307007D01*
X149385925Y-80192993D01*
X149402962Y-80129410D01*
X150034925Y-80761373D01*
X150088425Y-80684968D01*
X150143002Y-80641344D01*
X150212501Y-80634151D01*
X150274855Y-80665673D01*
X150291576Y-80684969D01*
X150345073Y-80761372D01*
X150977037Y-80129409D01*
X150994075Y-80192993D01*
G37*
%TD.AperFunction*%
%TA.AperFunction,Conductor*%
G36*
X148454075Y-80192993D02*
G01*
X148519901Y-80307007D01*
X148612993Y-80400099D01*
X148727007Y-80465925D01*
X148790590Y-80482962D01*
X148158625Y-81114925D01*
X148235031Y-81168425D01*
X148278655Y-81223002D01*
X148285848Y-81292501D01*
X148254326Y-81354855D01*
X148235029Y-81371576D01*
X148158625Y-81425072D01*
X148790590Y-82057037D01*
X148727007Y-82074075D01*
X148612993Y-82139901D01*
X148519901Y-82232993D01*
X148454075Y-82347007D01*
X148437037Y-82410589D01*
X147805073Y-81778625D01*
X147805072Y-81778626D01*
X147751574Y-81855030D01*
X147696998Y-81898655D01*
X147627499Y-81905849D01*
X147565144Y-81874326D01*
X147548424Y-81855030D01*
X147494925Y-81778626D01*
X147494925Y-81778625D01*
X146862962Y-82410589D01*
X146845925Y-82347007D01*
X146780099Y-82232993D01*
X146687007Y-82139901D01*
X146572993Y-82074075D01*
X146509410Y-82057037D01*
X147141373Y-81425073D01*
X147064969Y-81371576D01*
X147021344Y-81316999D01*
X147014150Y-81247501D01*
X147045672Y-81185146D01*
X147064968Y-81168425D01*
X147141373Y-81114925D01*
X146509409Y-80482962D01*
X146572993Y-80465925D01*
X146687007Y-80400099D01*
X146780099Y-80307007D01*
X146845925Y-80192993D01*
X146862962Y-80129410D01*
X147494925Y-80761373D01*
X147548425Y-80684968D01*
X147603002Y-80641344D01*
X147672501Y-80634151D01*
X147734855Y-80665673D01*
X147751576Y-80684969D01*
X147805073Y-80761372D01*
X148437037Y-80129409D01*
X148454075Y-80192993D01*
G37*
%TD.AperFunction*%
%TA.AperFunction,Conductor*%
G36*
X152579341Y-80765789D02*
G01*
X152631191Y-80776209D01*
X152681375Y-80824823D01*
X152691205Y-80846966D01*
X152715186Y-80919334D01*
X152807288Y-81068656D01*
X152931344Y-81192712D01*
X153080666Y-81284814D01*
X153089264Y-81287663D01*
X153146707Y-81327433D01*
X153173531Y-81391948D01*
X153161217Y-81460724D01*
X153132234Y-81497483D01*
X153132427Y-81497676D01*
X153130798Y-81499304D01*
X153129975Y-81500349D01*
X153128599Y-81501503D01*
X152961505Y-81668597D01*
X152831269Y-81854595D01*
X152776692Y-81898220D01*
X152707194Y-81905414D01*
X152644839Y-81873891D01*
X152628119Y-81854595D01*
X152574925Y-81778626D01*
X152574925Y-81778625D01*
X151942962Y-82410589D01*
X151925925Y-82347007D01*
X151860099Y-82232993D01*
X151767007Y-82139901D01*
X151652993Y-82074075D01*
X151589410Y-82057037D01*
X152221373Y-81425073D01*
X152144969Y-81371576D01*
X152101344Y-81316999D01*
X152094150Y-81247501D01*
X152125672Y-81185146D01*
X152144968Y-81168425D01*
X152221373Y-81114925D01*
X151589409Y-80482962D01*
X151652993Y-80465925D01*
X151767007Y-80400099D01*
X151860099Y-80307007D01*
X151925925Y-80192993D01*
X151942962Y-80129410D01*
X152579341Y-80765789D01*
G37*
%TD.AperFunction*%
%TA.AperFunction,Conductor*%
G36*
X161004418Y-76500816D02*
G01*
X161204561Y-76515130D01*
X161222063Y-76517647D01*
X161413797Y-76559355D01*
X161430755Y-76564334D01*
X161614609Y-76632909D01*
X161630701Y-76640259D01*
X161802904Y-76734288D01*
X161817784Y-76743849D01*
X161974867Y-76861441D01*
X161988237Y-76873027D01*
X162126972Y-77011762D01*
X162138558Y-77025132D01*
X162256146Y-77182210D01*
X162265711Y-77197095D01*
X162359740Y-77369298D01*
X162367090Y-77385390D01*
X162435662Y-77569236D01*
X162440646Y-77586212D01*
X162482351Y-77777931D01*
X162484869Y-77795442D01*
X162499184Y-77995580D01*
X162499500Y-78004427D01*
X162499500Y-106995572D01*
X162499184Y-107004419D01*
X162484869Y-107204557D01*
X162482351Y-107222068D01*
X162440646Y-107413787D01*
X162435662Y-107430763D01*
X162367090Y-107614609D01*
X162359740Y-107630701D01*
X162265711Y-107802904D01*
X162256146Y-107817789D01*
X162138558Y-107974867D01*
X162126972Y-107988237D01*
X161988237Y-108126972D01*
X161974867Y-108138558D01*
X161817789Y-108256146D01*
X161802904Y-108265711D01*
X161630701Y-108359740D01*
X161614609Y-108367090D01*
X161430763Y-108435662D01*
X161413787Y-108440646D01*
X161222068Y-108482351D01*
X161204557Y-108484869D01*
X161023779Y-108497799D01*
X161004417Y-108499184D01*
X160995572Y-108499500D01*
X137004428Y-108499500D01*
X136995582Y-108499184D01*
X136973622Y-108497613D01*
X136795442Y-108484869D01*
X136777931Y-108482351D01*
X136586212Y-108440646D01*
X136569236Y-108435662D01*
X136385390Y-108367090D01*
X136369298Y-108359740D01*
X136197095Y-108265711D01*
X136182210Y-108256146D01*
X136025132Y-108138558D01*
X136011762Y-108126972D01*
X135873027Y-107988237D01*
X135861441Y-107974867D01*
X135743849Y-107817784D01*
X135734288Y-107802904D01*
X135640259Y-107630701D01*
X135632909Y-107614609D01*
X135572091Y-107451551D01*
X135564334Y-107430755D01*
X135559355Y-107413797D01*
X135517647Y-107222063D01*
X135515130Y-107204556D01*
X135500816Y-107004418D01*
X135500500Y-106995572D01*
X135500500Y-104999997D01*
X136195034Y-104999997D01*
X136195034Y-105000002D01*
X136214858Y-105226599D01*
X136214860Y-105226610D01*
X136273730Y-105446317D01*
X136273735Y-105446330D01*
X136369863Y-105652478D01*
X136420974Y-105725472D01*
X137100000Y-105046446D01*
X137100000Y-105052661D01*
X137127259Y-105154394D01*
X137179920Y-105245606D01*
X137254394Y-105320080D01*
X137345606Y-105372741D01*
X137447339Y-105400000D01*
X137453553Y-105400000D01*
X136774526Y-106079025D01*
X136847513Y-106130132D01*
X136847521Y-106130136D01*
X137053668Y-106226264D01*
X137053682Y-106226269D01*
X137273389Y-106285139D01*
X137273400Y-106285141D01*
X137499998Y-106304966D01*
X137500002Y-106304966D01*
X137726599Y-106285141D01*
X137726610Y-106285139D01*
X137946317Y-106226269D01*
X137946331Y-106226264D01*
X138152478Y-106130136D01*
X138225471Y-106079024D01*
X137546447Y-105400000D01*
X137552661Y-105400000D01*
X137654394Y-105372741D01*
X137745606Y-105320080D01*
X137820080Y-105245606D01*
X137872741Y-105154394D01*
X137900000Y-105052661D01*
X137900000Y-105046447D01*
X138579024Y-105725471D01*
X138630136Y-105652478D01*
X138726265Y-105446330D01*
X138726269Y-105446317D01*
X138785139Y-105226610D01*
X138785141Y-105226599D01*
X138804966Y-105000002D01*
X138804966Y-104999997D01*
X138785141Y-104773400D01*
X138785139Y-104773389D01*
X138726269Y-104553682D01*
X138726264Y-104553668D01*
X138630136Y-104347521D01*
X138630132Y-104347513D01*
X138579025Y-104274526D01*
X137900000Y-104953551D01*
X137900000Y-104947339D01*
X137872741Y-104845606D01*
X137820080Y-104754394D01*
X137745606Y-104679920D01*
X137654394Y-104627259D01*
X137552661Y-104600000D01*
X137546448Y-104600000D01*
X138225472Y-103920974D01*
X138152478Y-103869863D01*
X137946331Y-103773735D01*
X137946317Y-103773730D01*
X137726610Y-103714860D01*
X137726599Y-103714858D01*
X137500002Y-103695034D01*
X137499998Y-103695034D01*
X137273400Y-103714858D01*
X137273389Y-103714860D01*
X137053682Y-103773730D01*
X137053673Y-103773734D01*
X136847516Y-103869866D01*
X136847512Y-103869868D01*
X136774526Y-103920973D01*
X136774526Y-103920974D01*
X137453553Y-104600000D01*
X137447339Y-104600000D01*
X137345606Y-104627259D01*
X137254394Y-104679920D01*
X137179920Y-104754394D01*
X137127259Y-104845606D01*
X137100000Y-104947339D01*
X137100000Y-104953552D01*
X136420974Y-104274526D01*
X136420973Y-104274526D01*
X136369868Y-104347512D01*
X136369866Y-104347516D01*
X136273734Y-104553673D01*
X136273730Y-104553682D01*
X136214860Y-104773389D01*
X136214858Y-104773400D01*
X136195034Y-104999997D01*
X135500500Y-104999997D01*
X135500500Y-103210000D01*
X139675172Y-103210000D01*
X139694462Y-103504312D01*
X139694464Y-103504324D01*
X139752001Y-103793584D01*
X139752005Y-103793599D01*
X139846812Y-104072888D01*
X139977258Y-104337406D01*
X139977265Y-104337419D01*
X140141123Y-104582649D01*
X140170405Y-104616040D01*
X140957912Y-103828532D01*
X141052829Y-103959175D01*
X141180825Y-104087171D01*
X141311465Y-104182086D01*
X140523958Y-104969593D01*
X140557350Y-104998876D01*
X140802580Y-105162734D01*
X140802593Y-105162741D01*
X141067111Y-105293187D01*
X141346400Y-105387994D01*
X141346415Y-105387998D01*
X141635675Y-105445535D01*
X141635687Y-105445537D01*
X141930000Y-105464827D01*
X142224312Y-105445537D01*
X142224324Y-105445535D01*
X142513584Y-105387998D01*
X142513599Y-105387994D01*
X142792888Y-105293187D01*
X143057406Y-105162741D01*
X143057419Y-105162734D01*
X143302648Y-104998877D01*
X143336039Y-104969593D01*
X142548533Y-104182086D01*
X142679175Y-104087171D01*
X142807171Y-103959175D01*
X142902086Y-103828533D01*
X143689593Y-104616039D01*
X143718877Y-104582648D01*
X143882734Y-104337419D01*
X143882741Y-104337406D01*
X144013187Y-104072888D01*
X144107994Y-103793599D01*
X144107998Y-103793584D01*
X144165535Y-103504324D01*
X144165537Y-103504312D01*
X144184827Y-103210000D01*
X152815172Y-103210000D01*
X152834462Y-103504312D01*
X152834464Y-103504324D01*
X152892001Y-103793584D01*
X152892005Y-103793599D01*
X152986812Y-104072888D01*
X153117258Y-104337406D01*
X153117265Y-104337419D01*
X153281123Y-104582649D01*
X153310405Y-104616040D01*
X154097912Y-103828532D01*
X154192829Y-103959175D01*
X154320825Y-104087171D01*
X154451465Y-104182086D01*
X153663958Y-104969593D01*
X153697350Y-104998876D01*
X153942580Y-105162734D01*
X153942593Y-105162741D01*
X154207111Y-105293187D01*
X154486400Y-105387994D01*
X154486415Y-105387998D01*
X154775675Y-105445535D01*
X154775687Y-105445537D01*
X155070000Y-105464827D01*
X155364312Y-105445537D01*
X155364324Y-105445535D01*
X155653584Y-105387998D01*
X155653599Y-105387994D01*
X155932888Y-105293187D01*
X156197406Y-105162741D01*
X156197419Y-105162734D01*
X156440972Y-104999997D01*
X158695034Y-104999997D01*
X158695034Y-105000002D01*
X158714858Y-105226599D01*
X158714860Y-105226610D01*
X158773730Y-105446317D01*
X158773735Y-105446330D01*
X158869863Y-105652478D01*
X158920974Y-105725472D01*
X159600000Y-105046446D01*
X159600000Y-105052661D01*
X159627259Y-105154394D01*
X159679920Y-105245606D01*
X159754394Y-105320080D01*
X159845606Y-105372741D01*
X159947339Y-105400000D01*
X159953553Y-105400000D01*
X159274526Y-106079025D01*
X159347513Y-106130132D01*
X159347521Y-106130136D01*
X159553668Y-106226264D01*
X159553682Y-106226269D01*
X159773389Y-106285139D01*
X159773400Y-106285141D01*
X159999998Y-106304966D01*
X160000002Y-106304966D01*
X160226599Y-106285141D01*
X160226610Y-106285139D01*
X160446317Y-106226269D01*
X160446331Y-106226264D01*
X160652478Y-106130136D01*
X160725471Y-106079024D01*
X160046447Y-105400000D01*
X160052661Y-105400000D01*
X160154394Y-105372741D01*
X160245606Y-105320080D01*
X160320080Y-105245606D01*
X160372741Y-105154394D01*
X160400000Y-105052661D01*
X160400000Y-105046447D01*
X161079024Y-105725471D01*
X161130136Y-105652478D01*
X161226265Y-105446330D01*
X161226269Y-105446317D01*
X161285139Y-105226610D01*
X161285141Y-105226599D01*
X161304966Y-105000002D01*
X161304966Y-104999997D01*
X161285141Y-104773400D01*
X161285139Y-104773389D01*
X161226269Y-104553682D01*
X161226264Y-104553668D01*
X161130136Y-104347521D01*
X161130132Y-104347513D01*
X161079025Y-104274526D01*
X160400000Y-104953551D01*
X160400000Y-104947339D01*
X160372741Y-104845606D01*
X160320080Y-104754394D01*
X160245606Y-104679920D01*
X160154394Y-104627259D01*
X160052661Y-104600000D01*
X160046448Y-104600000D01*
X160725472Y-103920974D01*
X160652478Y-103869863D01*
X160446331Y-103773735D01*
X160446317Y-103773730D01*
X160226610Y-103714860D01*
X160226599Y-103714858D01*
X160000002Y-103695034D01*
X159999998Y-103695034D01*
X159773400Y-103714858D01*
X159773389Y-103714860D01*
X159553682Y-103773730D01*
X159553673Y-103773734D01*
X159347516Y-103869866D01*
X159347512Y-103869868D01*
X159274526Y-103920973D01*
X159274526Y-103920974D01*
X159953553Y-104600000D01*
X159947339Y-104600000D01*
X159845606Y-104627259D01*
X159754394Y-104679920D01*
X159679920Y-104754394D01*
X159627259Y-104845606D01*
X159600000Y-104947339D01*
X159600000Y-104953552D01*
X158920974Y-104274526D01*
X158920973Y-104274526D01*
X158869868Y-104347512D01*
X158869866Y-104347516D01*
X158773734Y-104553673D01*
X158773730Y-104553682D01*
X158714860Y-104773389D01*
X158714858Y-104773400D01*
X158695034Y-104999997D01*
X156440972Y-104999997D01*
X156442648Y-104998877D01*
X156476039Y-104969593D01*
X155688533Y-104182086D01*
X155819175Y-104087171D01*
X155947171Y-103959175D01*
X156042086Y-103828533D01*
X156829593Y-104616039D01*
X156858877Y-104582648D01*
X157022734Y-104337419D01*
X157022741Y-104337406D01*
X157153187Y-104072888D01*
X157247994Y-103793599D01*
X157247998Y-103793584D01*
X157305535Y-103504324D01*
X157305537Y-103504312D01*
X157324827Y-103210000D01*
X157305537Y-102915687D01*
X157305535Y-102915675D01*
X157247998Y-102626415D01*
X157247994Y-102626400D01*
X157153187Y-102347111D01*
X157022741Y-102082593D01*
X157022734Y-102082580D01*
X156858876Y-101837350D01*
X156829593Y-101803958D01*
X156042086Y-102591465D01*
X155947171Y-102460825D01*
X155819175Y-102332829D01*
X155688533Y-102237912D01*
X156476040Y-101450405D01*
X156442649Y-101421123D01*
X156197419Y-101257265D01*
X156197406Y-101257258D01*
X155932888Y-101126812D01*
X155653599Y-101032005D01*
X155653584Y-101032001D01*
X155364324Y-100974464D01*
X155364312Y-100974462D01*
X155070000Y-100955172D01*
X154775687Y-100974462D01*
X154775675Y-100974464D01*
X154486415Y-101032001D01*
X154486400Y-101032005D01*
X154207111Y-101126812D01*
X153942593Y-101257258D01*
X153942580Y-101257265D01*
X153697346Y-101421126D01*
X153697339Y-101421131D01*
X153663959Y-101450403D01*
X153663959Y-101450405D01*
X154451466Y-102237912D01*
X154320825Y-102332829D01*
X154192829Y-102460825D01*
X154097912Y-102591466D01*
X153310405Y-101803959D01*
X153310403Y-101803959D01*
X153281131Y-101837339D01*
X153281126Y-101837346D01*
X153117265Y-102082580D01*
X153117258Y-102082593D01*
X152986812Y-102347111D01*
X152892005Y-102626400D01*
X152892001Y-102626415D01*
X152834464Y-102915675D01*
X152834462Y-102915687D01*
X152815172Y-103210000D01*
X144184827Y-103210000D01*
X144165537Y-102915687D01*
X144165535Y-102915675D01*
X144107998Y-102626415D01*
X144107994Y-102626400D01*
X144013187Y-102347111D01*
X143882741Y-102082593D01*
X143882734Y-102082580D01*
X143718876Y-101837350D01*
X143689593Y-101803958D01*
X142902086Y-102591465D01*
X142807171Y-102460825D01*
X142679175Y-102332829D01*
X142548533Y-102237912D01*
X143336040Y-101450405D01*
X143302649Y-101421123D01*
X143057419Y-101257265D01*
X143057406Y-101257258D01*
X142792888Y-101126812D01*
X142513599Y-101032005D01*
X142513584Y-101032001D01*
X142224324Y-100974464D01*
X142224312Y-100974462D01*
X141930000Y-100955172D01*
X141635687Y-100974462D01*
X141635675Y-100974464D01*
X141346415Y-101032001D01*
X141346400Y-101032005D01*
X141067111Y-101126812D01*
X140802593Y-101257258D01*
X140802580Y-101257265D01*
X140557346Y-101421126D01*
X140557339Y-101421131D01*
X140523959Y-101450403D01*
X140523959Y-101450405D01*
X141311466Y-102237912D01*
X141180825Y-102332829D01*
X141052829Y-102460825D01*
X140957913Y-102591466D01*
X140170405Y-101803959D01*
X140170403Y-101803959D01*
X140141131Y-101837339D01*
X140141126Y-101837346D01*
X139977265Y-102082580D01*
X139977258Y-102082593D01*
X139846812Y-102347111D01*
X139752005Y-102626400D01*
X139752001Y-102626415D01*
X139694464Y-102915675D01*
X139694462Y-102915687D01*
X139675172Y-103210000D01*
X135500500Y-103210000D01*
X135500500Y-99999998D01*
X136194532Y-99999998D01*
X136194532Y-100000001D01*
X136214364Y-100226686D01*
X136214366Y-100226697D01*
X136273258Y-100446488D01*
X136273261Y-100446497D01*
X136369431Y-100652732D01*
X136369432Y-100652734D01*
X136499954Y-100839141D01*
X136660858Y-101000045D01*
X136660861Y-101000047D01*
X136847266Y-101130568D01*
X137053504Y-101226739D01*
X137273308Y-101285635D01*
X137435230Y-101299801D01*
X137499998Y-101305468D01*
X137500000Y-101305468D01*
X137500002Y-101305468D01*
X137556673Y-101300509D01*
X137726692Y-101285635D01*
X137946496Y-101226739D01*
X138152734Y-101130568D01*
X138339139Y-101000047D01*
X138500047Y-100839139D01*
X138630568Y-100652734D01*
X138726739Y-100446496D01*
X138785635Y-100226692D01*
X138805468Y-100000000D01*
X138801346Y-99952891D01*
X138793774Y-99866338D01*
X138785635Y-99773308D01*
X138763349Y-99690135D01*
X143737500Y-99690135D01*
X143737500Y-101309870D01*
X143737501Y-101309876D01*
X143743908Y-101369483D01*
X143794202Y-101504328D01*
X143794206Y-101504335D01*
X143880452Y-101619544D01*
X143880455Y-101619547D01*
X143995664Y-101705793D01*
X143995671Y-101705797D01*
X144130517Y-101756091D01*
X144130516Y-101756091D01*
X144137444Y-101756835D01*
X144190127Y-101762500D01*
X145809872Y-101762499D01*
X145869483Y-101756091D01*
X146004331Y-101705796D01*
X146119546Y-101619546D01*
X146205796Y-101504331D01*
X146256091Y-101369483D01*
X146262229Y-101312386D01*
X146288966Y-101247839D01*
X146346358Y-101207991D01*
X146416183Y-101205497D01*
X146476272Y-101241149D01*
X146487093Y-101254522D01*
X146529170Y-101314615D01*
X146529175Y-101314621D01*
X146685378Y-101470824D01*
X146685384Y-101470829D01*
X146866333Y-101597531D01*
X146866335Y-101597532D01*
X146866338Y-101597534D01*
X147066550Y-101690894D01*
X147279932Y-101748070D01*
X147437123Y-101761822D01*
X147499998Y-101767323D01*
X147500000Y-101767323D01*
X147500002Y-101767323D01*
X147555151Y-101762498D01*
X147720068Y-101748070D01*
X147933450Y-101690894D01*
X148133662Y-101597534D01*
X148314620Y-101470826D01*
X148412319Y-101373127D01*
X148473642Y-101339642D01*
X148543334Y-101344626D01*
X148587681Y-101373127D01*
X148685378Y-101470824D01*
X148685384Y-101470829D01*
X148866333Y-101597531D01*
X148866335Y-101597532D01*
X148866338Y-101597534D01*
X149066550Y-101690894D01*
X149279932Y-101748070D01*
X149437123Y-101761822D01*
X149499998Y-101767323D01*
X149500000Y-101767323D01*
X149500002Y-101767323D01*
X149555151Y-101762498D01*
X149720068Y-101748070D01*
X149933450Y-101690894D01*
X150133662Y-101597534D01*
X150314620Y-101470826D01*
X150470826Y-101314620D01*
X150597534Y-101133662D01*
X150637894Y-101047108D01*
X150684066Y-100994669D01*
X150751259Y-100975517D01*
X150818140Y-100995732D01*
X150862658Y-101047109D01*
X150902898Y-101133405D01*
X150902901Y-101133411D01*
X150948258Y-101198187D01*
X150948259Y-101198188D01*
X151549697Y-100596749D01*
X151571349Y-100677553D01*
X151631909Y-100782446D01*
X151717554Y-100868091D01*
X151822447Y-100928651D01*
X151903249Y-100950302D01*
X151301810Y-101551740D01*
X151366590Y-101597099D01*
X151366592Y-101597100D01*
X151566715Y-101690419D01*
X151566729Y-101690424D01*
X151780013Y-101747573D01*
X151780023Y-101747575D01*
X151999999Y-101766821D01*
X152000001Y-101766821D01*
X152219976Y-101747575D01*
X152219986Y-101747573D01*
X152433270Y-101690424D01*
X152433284Y-101690419D01*
X152633407Y-101597100D01*
X152633417Y-101597094D01*
X152698188Y-101551741D01*
X152096750Y-100950302D01*
X152177553Y-100928651D01*
X152282446Y-100868091D01*
X152368091Y-100782446D01*
X152428651Y-100677553D01*
X152450302Y-100596749D01*
X153051741Y-101198188D01*
X153097094Y-101133417D01*
X153097100Y-101133407D01*
X153190419Y-100933284D01*
X153190424Y-100933270D01*
X153247573Y-100719986D01*
X153247575Y-100719976D01*
X153266821Y-100500000D01*
X153266821Y-100499999D01*
X153247575Y-100280023D01*
X153247573Y-100280013D01*
X153190424Y-100066729D01*
X153190420Y-100066720D01*
X153159307Y-99999998D01*
X158694532Y-99999998D01*
X158694532Y-100000001D01*
X158714364Y-100226686D01*
X158714366Y-100226697D01*
X158773258Y-100446488D01*
X158773261Y-100446497D01*
X158869431Y-100652732D01*
X158869432Y-100652734D01*
X158999954Y-100839141D01*
X159160858Y-101000045D01*
X159160861Y-101000047D01*
X159347266Y-101130568D01*
X159553504Y-101226739D01*
X159773308Y-101285635D01*
X159935230Y-101299801D01*
X159999998Y-101305468D01*
X160000000Y-101305468D01*
X160000002Y-101305468D01*
X160056673Y-101300509D01*
X160226692Y-101285635D01*
X160446496Y-101226739D01*
X160652734Y-101130568D01*
X160839139Y-101000047D01*
X161000047Y-100839139D01*
X161130568Y-100652734D01*
X161226739Y-100446496D01*
X161285635Y-100226692D01*
X161305468Y-100000000D01*
X161301346Y-99952891D01*
X161293774Y-99866338D01*
X161285635Y-99773308D01*
X161226739Y-99553504D01*
X161130568Y-99347266D01*
X161000047Y-99160861D01*
X161000045Y-99160858D01*
X160839141Y-98999954D01*
X160652734Y-98869432D01*
X160652732Y-98869431D01*
X160446497Y-98773261D01*
X160446488Y-98773258D01*
X160226697Y-98714366D01*
X160226693Y-98714365D01*
X160226692Y-98714365D01*
X160226691Y-98714364D01*
X160226686Y-98714364D01*
X160000002Y-98694532D01*
X159999998Y-98694532D01*
X159773313Y-98714364D01*
X159773302Y-98714366D01*
X159553511Y-98773258D01*
X159553502Y-98773261D01*
X159347267Y-98869431D01*
X159347265Y-98869432D01*
X159160858Y-98999954D01*
X158999954Y-99160858D01*
X158869432Y-99347265D01*
X158869431Y-99347267D01*
X158773261Y-99553502D01*
X158773258Y-99553511D01*
X158714366Y-99773302D01*
X158714364Y-99773313D01*
X158694532Y-99999998D01*
X153159307Y-99999998D01*
X153097096Y-99866586D01*
X153051741Y-99801811D01*
X153051740Y-99801810D01*
X152450302Y-100403249D01*
X152428651Y-100322447D01*
X152368091Y-100217554D01*
X152282446Y-100131909D01*
X152177553Y-100071349D01*
X152096750Y-100049697D01*
X152698188Y-99448259D01*
X152698187Y-99448258D01*
X152633411Y-99402901D01*
X152633405Y-99402898D01*
X152433284Y-99309580D01*
X152433270Y-99309575D01*
X152219986Y-99252426D01*
X152219976Y-99252424D01*
X152000001Y-99233179D01*
X151999999Y-99233179D01*
X151780023Y-99252424D01*
X151780013Y-99252426D01*
X151566729Y-99309575D01*
X151566720Y-99309579D01*
X151366590Y-99402901D01*
X151301811Y-99448258D01*
X151903250Y-100049697D01*
X151822447Y-100071349D01*
X151717554Y-100131909D01*
X151631909Y-100217554D01*
X151571349Y-100322447D01*
X151549697Y-100403250D01*
X150948258Y-99801811D01*
X150902901Y-99866590D01*
X150862658Y-99952891D01*
X150816485Y-100005330D01*
X150749292Y-100024482D01*
X150682411Y-100004266D01*
X150637894Y-99952891D01*
X150597534Y-99866340D01*
X150597533Y-99866338D01*
X150470827Y-99685381D01*
X150412318Y-99626872D01*
X150314620Y-99529174D01*
X150314616Y-99529171D01*
X150314615Y-99529170D01*
X150133666Y-99402468D01*
X150133662Y-99402466D01*
X150086457Y-99380454D01*
X149933450Y-99309106D01*
X149933447Y-99309105D01*
X149933445Y-99309104D01*
X149720070Y-99251930D01*
X149720062Y-99251929D01*
X149500002Y-99232677D01*
X149499998Y-99232677D01*
X149279937Y-99251929D01*
X149279929Y-99251930D01*
X149066554Y-99309104D01*
X149066548Y-99309107D01*
X148866340Y-99402465D01*
X148866338Y-99402466D01*
X148685381Y-99529172D01*
X148587680Y-99626873D01*
X148526356Y-99660357D01*
X148456665Y-99655373D01*
X148412318Y-99626872D01*
X148314621Y-99529175D01*
X148314615Y-99529170D01*
X148133666Y-99402468D01*
X148133662Y-99402466D01*
X148086457Y-99380454D01*
X147933450Y-99309106D01*
X147933447Y-99309105D01*
X147933445Y-99309104D01*
X147720070Y-99251930D01*
X147720062Y-99251929D01*
X147500002Y-99232677D01*
X147499998Y-99232677D01*
X147279937Y-99251929D01*
X147279929Y-99251930D01*
X147066554Y-99309104D01*
X147066548Y-99309107D01*
X146866340Y-99402465D01*
X146866338Y-99402466D01*
X146685377Y-99529175D01*
X146529177Y-99685375D01*
X146487093Y-99745478D01*
X146432516Y-99789102D01*
X146363017Y-99796295D01*
X146300663Y-99764773D01*
X146265249Y-99704543D01*
X146262228Y-99687607D01*
X146256091Y-99630516D01*
X146205797Y-99495671D01*
X146205793Y-99495664D01*
X146119547Y-99380455D01*
X146119544Y-99380452D01*
X146004335Y-99294206D01*
X146004328Y-99294202D01*
X145869482Y-99243908D01*
X145869483Y-99243908D01*
X145809883Y-99237501D01*
X145809881Y-99237500D01*
X145809873Y-99237500D01*
X145809864Y-99237500D01*
X144190129Y-99237500D01*
X144190123Y-99237501D01*
X144130516Y-99243908D01*
X143995671Y-99294202D01*
X143995664Y-99294206D01*
X143880455Y-99380452D01*
X143880452Y-99380455D01*
X143794206Y-99495664D01*
X143794202Y-99495671D01*
X143743908Y-99630517D01*
X143737501Y-99690116D01*
X143737500Y-99690135D01*
X138763349Y-99690135D01*
X138726739Y-99553504D01*
X138630568Y-99347266D01*
X138500047Y-99160861D01*
X138500045Y-99160858D01*
X138339141Y-98999954D01*
X138152734Y-98869432D01*
X138152732Y-98869431D01*
X137946497Y-98773261D01*
X137946488Y-98773258D01*
X137726697Y-98714366D01*
X137726693Y-98714365D01*
X137726692Y-98714365D01*
X137726691Y-98714364D01*
X137726686Y-98714364D01*
X137500002Y-98694532D01*
X137499998Y-98694532D01*
X137273313Y-98714364D01*
X137273302Y-98714366D01*
X137053511Y-98773258D01*
X137053502Y-98773261D01*
X136847267Y-98869431D01*
X136847265Y-98869432D01*
X136660858Y-98999954D01*
X136499954Y-99160858D01*
X136369432Y-99347265D01*
X136369431Y-99347267D01*
X136273261Y-99553502D01*
X136273258Y-99553511D01*
X136214366Y-99773302D01*
X136214364Y-99773313D01*
X136194532Y-99999998D01*
X135500500Y-99999998D01*
X135500500Y-92499992D01*
X139994671Y-92499992D01*
X139994671Y-92500007D01*
X140013964Y-92794363D01*
X140013965Y-92794373D01*
X140013966Y-92794380D01*
X140013968Y-92794390D01*
X140071518Y-93083716D01*
X140071521Y-93083730D01*
X140166349Y-93363080D01*
X140296825Y-93627660D01*
X140296829Y-93627667D01*
X140460725Y-93872955D01*
X140655241Y-94094758D01*
X140877043Y-94289273D01*
X141122335Y-94453172D01*
X141386923Y-94583652D01*
X141666278Y-94678481D01*
X141955620Y-94736034D01*
X141983888Y-94737886D01*
X142249993Y-94755329D01*
X142250000Y-94755329D01*
X142250007Y-94755329D01*
X142485675Y-94739881D01*
X142544380Y-94736034D01*
X142833722Y-94678481D01*
X143113077Y-94583652D01*
X143377665Y-94453172D01*
X143622957Y-94289273D01*
X143844758Y-94094758D01*
X144039273Y-93872957D01*
X144203172Y-93627665D01*
X144333652Y-93363077D01*
X144428481Y-93083722D01*
X144486034Y-92794380D01*
X144505329Y-92500000D01*
X144505329Y-92499992D01*
X144486035Y-92205636D01*
X144486034Y-92205620D01*
X144428481Y-91916278D01*
X144333652Y-91636923D01*
X144203172Y-91372336D01*
X144175302Y-91330626D01*
X144124727Y-91254935D01*
X144039273Y-91127043D01*
X143987742Y-91068283D01*
X143844758Y-90905241D01*
X143622955Y-90710725D01*
X143377667Y-90546829D01*
X143377660Y-90546825D01*
X143113080Y-90416349D01*
X142833730Y-90321521D01*
X142833724Y-90321519D01*
X142833722Y-90321519D01*
X142544380Y-90263966D01*
X142544373Y-90263965D01*
X142544363Y-90263964D01*
X142250007Y-90244671D01*
X142249993Y-90244671D01*
X141955636Y-90263964D01*
X141955624Y-90263965D01*
X141955620Y-90263966D01*
X141955612Y-90263967D01*
X141955609Y-90263968D01*
X141666283Y-90321518D01*
X141666269Y-90321521D01*
X141386919Y-90416349D01*
X141122334Y-90546828D01*
X140877041Y-90710728D01*
X140655241Y-90905241D01*
X140460728Y-91127041D01*
X140296828Y-91372334D01*
X140166349Y-91636919D01*
X140071521Y-91916269D01*
X140071518Y-91916283D01*
X140013968Y-92205609D01*
X140013964Y-92205636D01*
X139994671Y-92499992D01*
X135500500Y-92499992D01*
X135500500Y-89845646D01*
X156549500Y-89845646D01*
X156549500Y-90074353D01*
X156585278Y-90300246D01*
X156585278Y-90300249D01*
X156655950Y-90517755D01*
X156754275Y-90710727D01*
X156759783Y-90721538D01*
X156894214Y-90906566D01*
X157055934Y-91068286D01*
X157140864Y-91129991D01*
X157183529Y-91185321D01*
X157189508Y-91254935D01*
X157156902Y-91316730D01*
X157140864Y-91330627D01*
X157056257Y-91392097D01*
X156894597Y-91553757D01*
X156760211Y-91738723D01*
X156656417Y-91942429D01*
X156585765Y-92159871D01*
X156571491Y-92250000D01*
X157501518Y-92250000D01*
X157490889Y-92268409D01*
X157450000Y-92421009D01*
X157450000Y-92578991D01*
X157490889Y-92731591D01*
X157501518Y-92750000D01*
X156571491Y-92750000D01*
X156585765Y-92840128D01*
X156656417Y-93057570D01*
X156760213Y-93261279D01*
X156893011Y-93444060D01*
X156916491Y-93509866D01*
X156900666Y-93577920D01*
X156850560Y-93626615D01*
X156836026Y-93633127D01*
X156807671Y-93643702D01*
X156807664Y-93643706D01*
X156692455Y-93729952D01*
X156692452Y-93729955D01*
X156606206Y-93845164D01*
X156606202Y-93845171D01*
X156555908Y-93980017D01*
X156549501Y-94039616D01*
X156549501Y-94039623D01*
X156549500Y-94039635D01*
X156549500Y-96040370D01*
X156549501Y-96040376D01*
X156555908Y-96099983D01*
X156606202Y-96234828D01*
X156606206Y-96234835D01*
X156692452Y-96350044D01*
X156692455Y-96350047D01*
X156807664Y-96436293D01*
X156807671Y-96436297D01*
X156942517Y-96486591D01*
X156942516Y-96486591D01*
X156949444Y-96487335D01*
X157002127Y-96493000D01*
X159097872Y-96492999D01*
X159157483Y-96486591D01*
X159292331Y-96436296D01*
X159407546Y-96350046D01*
X159493796Y-96234831D01*
X159544091Y-96099983D01*
X159550500Y-96040373D01*
X159550499Y-94039628D01*
X159544091Y-93980017D01*
X159504160Y-93872957D01*
X159493797Y-93845171D01*
X159493793Y-93845164D01*
X159407547Y-93729955D01*
X159407544Y-93729952D01*
X159292335Y-93643706D01*
X159292326Y-93643701D01*
X159263974Y-93633127D01*
X159208040Y-93591257D01*
X159183622Y-93525792D01*
X159198473Y-93457519D01*
X159206988Y-93444059D01*
X159339788Y-93261276D01*
X159443582Y-93057570D01*
X159514234Y-92840128D01*
X159528509Y-92750000D01*
X158598482Y-92750000D01*
X158609111Y-92731591D01*
X158650000Y-92578991D01*
X158650000Y-92421009D01*
X158609111Y-92268409D01*
X158598482Y-92250000D01*
X159528509Y-92250000D01*
X159514234Y-92159871D01*
X159443582Y-91942429D01*
X159339788Y-91738723D01*
X159205402Y-91553757D01*
X159043742Y-91392097D01*
X158959135Y-91330626D01*
X158916470Y-91275296D01*
X158910491Y-91205682D01*
X158943097Y-91143887D01*
X158959125Y-91129999D01*
X159044066Y-91068286D01*
X159205786Y-90906566D01*
X159340217Y-90721538D01*
X159444048Y-90517758D01*
X159514722Y-90300245D01*
X159550500Y-90074354D01*
X159550500Y-89845646D01*
X159514722Y-89619755D01*
X159514721Y-89619751D01*
X159514721Y-89619750D01*
X159444049Y-89402244D01*
X159340216Y-89198461D01*
X159205786Y-89013434D01*
X159044066Y-88851714D01*
X158859038Y-88717283D01*
X158655255Y-88613450D01*
X158437748Y-88542778D01*
X158268326Y-88515944D01*
X158211854Y-88507000D01*
X157888146Y-88507000D01*
X157812849Y-88518926D01*
X157662253Y-88542778D01*
X157662250Y-88542778D01*
X157444744Y-88613450D01*
X157240961Y-88717283D01*
X157135396Y-88793980D01*
X157055934Y-88851714D01*
X157055932Y-88851716D01*
X157055931Y-88851716D01*
X156894216Y-89013431D01*
X156894216Y-89013432D01*
X156894214Y-89013434D01*
X156836480Y-89092896D01*
X156759783Y-89198461D01*
X156655950Y-89402244D01*
X156585278Y-89619750D01*
X156585278Y-89619753D01*
X156549500Y-89845646D01*
X135500500Y-89845646D01*
X135500500Y-79999999D01*
X142484341Y-79999999D01*
X142484341Y-80000000D01*
X142504936Y-80235403D01*
X142504938Y-80235413D01*
X142566094Y-80463655D01*
X142566096Y-80463659D01*
X142566097Y-80463663D01*
X142645597Y-80634151D01*
X142665965Y-80677830D01*
X142665967Y-80677834D01*
X142768891Y-80824823D01*
X142801501Y-80871396D01*
X142801506Y-80871402D01*
X142968597Y-81038493D01*
X142968603Y-81038498D01*
X143154158Y-81168425D01*
X143197783Y-81223002D01*
X143204977Y-81292500D01*
X143173454Y-81354855D01*
X143154158Y-81371575D01*
X142968597Y-81501505D01*
X142801505Y-81668597D01*
X142665965Y-81862169D01*
X142665964Y-81862171D01*
X142566098Y-82076335D01*
X142566094Y-82076344D01*
X142504938Y-82304586D01*
X142504936Y-82304596D01*
X142484341Y-82539999D01*
X142484341Y-82540000D01*
X142504936Y-82775403D01*
X142504938Y-82775413D01*
X142566094Y-83003655D01*
X142566096Y-83003659D01*
X142566097Y-83003663D01*
X142645597Y-83174151D01*
X142665965Y-83217830D01*
X142665967Y-83217834D01*
X142724462Y-83301373D01*
X142801505Y-83411401D01*
X142968599Y-83578495D01*
X143065384Y-83646265D01*
X143162165Y-83714032D01*
X143162167Y-83714033D01*
X143162170Y-83714035D01*
X143376337Y-83813903D01*
X143604592Y-83875063D01*
X143792918Y-83891539D01*
X143839999Y-83895659D01*
X143840000Y-83895659D01*
X143840001Y-83895659D01*
X143879234Y-83892226D01*
X144075408Y-83875063D01*
X144303663Y-83813903D01*
X144517830Y-83714035D01*
X144711401Y-83578495D01*
X144878495Y-83411401D01*
X145008732Y-83225403D01*
X145063307Y-83181780D01*
X145132805Y-83174586D01*
X145195160Y-83206109D01*
X145211880Y-83225405D01*
X145265073Y-83301373D01*
X145897037Y-82669409D01*
X145914075Y-82732993D01*
X145979901Y-82847007D01*
X146072993Y-82940099D01*
X146187007Y-83005925D01*
X146250590Y-83022962D01*
X145618625Y-83654925D01*
X145702421Y-83713599D01*
X145916507Y-83813429D01*
X145916516Y-83813433D01*
X146144673Y-83874567D01*
X146144684Y-83874569D01*
X146379998Y-83895157D01*
X146380002Y-83895157D01*
X146615315Y-83874569D01*
X146615326Y-83874567D01*
X146843483Y-83813433D01*
X146843492Y-83813429D01*
X147057578Y-83713600D01*
X147057582Y-83713598D01*
X147141373Y-83654926D01*
X147141373Y-83654925D01*
X146509409Y-83022962D01*
X146572993Y-83005925D01*
X146687007Y-82940099D01*
X146780099Y-82847007D01*
X146845925Y-82732993D01*
X146862962Y-82669410D01*
X147494925Y-83301373D01*
X147548425Y-83224968D01*
X147603002Y-83181344D01*
X147672501Y-83174151D01*
X147734855Y-83205673D01*
X147751576Y-83224969D01*
X147805073Y-83301372D01*
X148437037Y-82669409D01*
X148454075Y-82732993D01*
X148519901Y-82847007D01*
X148612993Y-82940099D01*
X148727007Y-83005925D01*
X148790590Y-83022962D01*
X148158625Y-83654925D01*
X148242421Y-83713599D01*
X148456507Y-83813429D01*
X148456516Y-83813433D01*
X148684673Y-83874567D01*
X148684684Y-83874569D01*
X148919998Y-83895157D01*
X148920002Y-83895157D01*
X149155315Y-83874569D01*
X149155326Y-83874567D01*
X149383483Y-83813433D01*
X149383492Y-83813429D01*
X149597578Y-83713600D01*
X149597582Y-83713598D01*
X149681373Y-83654926D01*
X149681373Y-83654925D01*
X149049409Y-83022962D01*
X149112993Y-83005925D01*
X149227007Y-82940099D01*
X149320099Y-82847007D01*
X149385925Y-82732993D01*
X149402962Y-82669410D01*
X150034925Y-83301373D01*
X150088425Y-83224968D01*
X150143002Y-83181344D01*
X150212501Y-83174151D01*
X150274855Y-83205673D01*
X150291576Y-83224969D01*
X150345073Y-83301372D01*
X150977037Y-82669409D01*
X150994075Y-82732993D01*
X151059901Y-82847007D01*
X151152993Y-82940099D01*
X151267007Y-83005925D01*
X151330590Y-83022962D01*
X150698625Y-83654925D01*
X150782421Y-83713599D01*
X150996507Y-83813429D01*
X150996516Y-83813433D01*
X151224673Y-83874567D01*
X151224684Y-83874569D01*
X151459998Y-83895157D01*
X151460002Y-83895157D01*
X151695315Y-83874569D01*
X151695326Y-83874567D01*
X151923483Y-83813433D01*
X151923492Y-83813429D01*
X152137578Y-83713600D01*
X152137582Y-83713598D01*
X152221373Y-83654926D01*
X152221373Y-83654925D01*
X151589409Y-83022962D01*
X151652993Y-83005925D01*
X151767007Y-82940099D01*
X151860099Y-82847007D01*
X151925925Y-82732993D01*
X151942962Y-82669410D01*
X152574925Y-83301373D01*
X152628119Y-83225405D01*
X152682696Y-83181781D01*
X152752195Y-83174588D01*
X152814549Y-83206110D01*
X152831269Y-83225405D01*
X152961505Y-83411401D01*
X153128599Y-83578495D01*
X153225384Y-83646265D01*
X153322165Y-83714032D01*
X153322167Y-83714033D01*
X153322170Y-83714035D01*
X153536337Y-83813903D01*
X153764592Y-83875063D01*
X153952918Y-83891539D01*
X153999999Y-83895659D01*
X154000000Y-83895659D01*
X154000001Y-83895659D01*
X154039234Y-83892226D01*
X154235408Y-83875063D01*
X154463663Y-83813903D01*
X154677830Y-83714035D01*
X154871401Y-83578495D01*
X155038495Y-83411401D01*
X155174035Y-83217830D01*
X155273903Y-83003663D01*
X155335063Y-82775408D01*
X155355659Y-82540000D01*
X155335063Y-82304592D01*
X155273903Y-82076337D01*
X155174035Y-81862171D01*
X155168731Y-81854595D01*
X155038494Y-81668597D01*
X154871398Y-81501501D01*
X154870030Y-81500354D01*
X154869592Y-81499696D01*
X154867573Y-81497677D01*
X154867978Y-81497271D01*
X154831330Y-81442182D01*
X154830224Y-81372321D01*
X154867063Y-81312952D01*
X154910737Y-81287662D01*
X154919334Y-81284814D01*
X155068656Y-81192712D01*
X155192712Y-81068656D01*
X155284814Y-80919334D01*
X155339999Y-80752797D01*
X155350500Y-80650009D01*
X155350499Y-79349992D01*
X155339999Y-79247203D01*
X155284814Y-79080666D01*
X155192712Y-78931344D01*
X155068656Y-78807288D01*
X154937784Y-78726566D01*
X154919336Y-78715187D01*
X154919331Y-78715185D01*
X154917862Y-78714698D01*
X154752797Y-78660001D01*
X154752795Y-78660000D01*
X154650010Y-78649500D01*
X153349998Y-78649500D01*
X153349981Y-78649501D01*
X153247203Y-78660000D01*
X153247200Y-78660001D01*
X153080668Y-78715185D01*
X153080663Y-78715187D01*
X152931342Y-78807289D01*
X152807289Y-78931342D01*
X152715187Y-79080663D01*
X152715182Y-79080674D01*
X152691205Y-79153032D01*
X152651432Y-79210477D01*
X152586916Y-79237299D01*
X152576138Y-79237412D01*
X151942962Y-79870589D01*
X151925925Y-79807007D01*
X151860099Y-79692993D01*
X151767007Y-79599901D01*
X151652993Y-79534075D01*
X151589410Y-79517037D01*
X152221373Y-78885073D01*
X152221373Y-78885072D01*
X152137583Y-78826402D01*
X152137579Y-78826400D01*
X151923492Y-78726570D01*
X151923483Y-78726566D01*
X151695326Y-78665432D01*
X151695315Y-78665430D01*
X151460002Y-78644843D01*
X151459998Y-78644843D01*
X151224684Y-78665430D01*
X151224673Y-78665432D01*
X150996516Y-78726566D01*
X150996507Y-78726570D01*
X150782419Y-78826401D01*
X150698625Y-78885072D01*
X151330590Y-79517037D01*
X151267007Y-79534075D01*
X151152993Y-79599901D01*
X151059901Y-79692993D01*
X150994075Y-79807007D01*
X150977037Y-79870590D01*
X150345072Y-79238625D01*
X150345072Y-79238626D01*
X150291574Y-79315030D01*
X150236998Y-79358655D01*
X150167499Y-79365849D01*
X150105144Y-79334326D01*
X150088424Y-79315030D01*
X150034925Y-79238626D01*
X150034925Y-79238625D01*
X149402962Y-79870589D01*
X149385925Y-79807007D01*
X149320099Y-79692993D01*
X149227007Y-79599901D01*
X149112993Y-79534075D01*
X149049410Y-79517037D01*
X149681373Y-78885073D01*
X149681373Y-78885072D01*
X149597583Y-78826402D01*
X149597579Y-78826400D01*
X149383492Y-78726570D01*
X149383483Y-78726566D01*
X149155326Y-78665432D01*
X149155315Y-78665430D01*
X148920002Y-78644843D01*
X148919998Y-78644843D01*
X148684684Y-78665430D01*
X148684673Y-78665432D01*
X148456516Y-78726566D01*
X148456507Y-78726570D01*
X148242419Y-78826401D01*
X148158625Y-78885072D01*
X148790590Y-79517037D01*
X148727007Y-79534075D01*
X148612993Y-79599901D01*
X148519901Y-79692993D01*
X148454075Y-79807007D01*
X148437037Y-79870589D01*
X147805073Y-79238625D01*
X147805072Y-79238626D01*
X147751574Y-79315030D01*
X147696998Y-79358655D01*
X147627499Y-79365849D01*
X147565144Y-79334326D01*
X147548424Y-79315030D01*
X147494925Y-79238626D01*
X147494925Y-79238625D01*
X146862962Y-79870589D01*
X146845925Y-79807007D01*
X146780099Y-79692993D01*
X146687007Y-79599901D01*
X146572993Y-79534075D01*
X146509410Y-79517037D01*
X147141373Y-78885073D01*
X147141373Y-78885072D01*
X147057583Y-78826402D01*
X147057579Y-78826400D01*
X146843492Y-78726570D01*
X146843483Y-78726566D01*
X146615326Y-78665432D01*
X146615315Y-78665430D01*
X146380002Y-78644843D01*
X146379998Y-78644843D01*
X146144684Y-78665430D01*
X146144673Y-78665432D01*
X145916516Y-78726566D01*
X145916507Y-78726570D01*
X145702419Y-78826401D01*
X145618625Y-78885072D01*
X146250590Y-79517037D01*
X146187007Y-79534075D01*
X146072993Y-79599901D01*
X145979901Y-79692993D01*
X145914075Y-79807007D01*
X145897037Y-79870590D01*
X145265073Y-79238626D01*
X145211881Y-79314594D01*
X145157304Y-79358219D01*
X145087806Y-79365413D01*
X145025451Y-79333891D01*
X145008730Y-79314594D01*
X144878494Y-79128597D01*
X144711402Y-78961506D01*
X144711395Y-78961501D01*
X144517834Y-78825967D01*
X144517830Y-78825965D01*
X144477777Y-78807288D01*
X144303663Y-78726097D01*
X144303659Y-78726096D01*
X144303655Y-78726094D01*
X144075413Y-78664938D01*
X144075403Y-78664936D01*
X143840001Y-78644341D01*
X143839999Y-78644341D01*
X143604596Y-78664936D01*
X143604586Y-78664938D01*
X143376344Y-78726094D01*
X143376335Y-78726098D01*
X143162171Y-78825964D01*
X143162169Y-78825965D01*
X142968597Y-78961505D01*
X142801505Y-79128597D01*
X142665965Y-79322169D01*
X142665964Y-79322171D01*
X142566098Y-79536335D01*
X142566094Y-79536344D01*
X142504938Y-79764586D01*
X142504936Y-79764596D01*
X142484341Y-79999999D01*
X135500500Y-79999999D01*
X135500500Y-78004427D01*
X135500816Y-77995581D01*
X135515130Y-77795443D01*
X135515131Y-77795442D01*
X135515130Y-77795436D01*
X135517646Y-77777938D01*
X135559356Y-77586199D01*
X135564333Y-77569248D01*
X135632911Y-77385385D01*
X135640259Y-77369298D01*
X135702815Y-77254734D01*
X135734291Y-77197089D01*
X135743845Y-77182221D01*
X135861448Y-77025123D01*
X135873020Y-77011769D01*
X136011769Y-76873020D01*
X136025123Y-76861448D01*
X136182221Y-76743845D01*
X136197089Y-76734291D01*
X136369298Y-76640258D01*
X136385385Y-76632911D01*
X136569248Y-76564333D01*
X136586199Y-76559356D01*
X136777938Y-76517646D01*
X136795436Y-76515130D01*
X136995582Y-76500816D01*
X137004428Y-76500500D01*
X137065892Y-76500500D01*
X160934108Y-76500500D01*
X160995572Y-76500500D01*
X161004418Y-76500816D01*
G37*
%TD.AperFunction*%
%TD*%
M02*
