M48
; DRILL file {KiCad 8.0.5} date 2024-12-20T11:39:30+1300
; FORMAT={-:-/ absolute / metric / decimal}
; #@! TF.CreationDate,2024-12-20T11:39:30+13:00
; #@! TF.GenerationSoftware,Kicad,Pcbnew,8.0.5
; #@! TF.FileFunction,Plated,1,2,PTH
FMAT,2
METRIC
; #@! TA.AperFunction,Plated,PTH,ComponentDrill
T1C0.800
; #@! TA.AperFunction,Plated,PTH,ComponentDrill
T2C0.920
; #@! TA.AperFunction,Plated,PTH,ComponentDrill
T3C1.000
; #@! TA.AperFunction,Plated,PTH,ComponentDrill
T4C1.200
; #@! TA.AperFunction,Plated,PTH,ComponentDrill
T5C2.300
%
G90
G05
T1
X137.5Y-100.0
X137.5Y-105.0
X160.0Y-100.0
X160.0Y-105.0
T2
X145.0Y-100.5
X147.5Y-100.5
X149.5Y-100.5
X152.0Y-100.5
T3
X143.84Y-80.0
X143.84Y-82.54
X146.38Y-80.0
X146.38Y-82.54
X148.92Y-80.0
X148.92Y-82.54
X151.46Y-80.0
X151.46Y-82.54
X154.0Y-80.0
X154.0Y-82.54
T4
X158.05Y-89.96
X158.05Y-92.5
X158.05Y-95.04
T5
X141.93Y-103.21
X155.07Y-103.21
M30
