%TF.GenerationSoftware,KiCad,Pcbnew,8.0.5*%
%TF.CreationDate,2024-12-20T11:39:28+13:00*%
%TF.ProjectId,eurorack_to_usb_7805,6575726f-7261-4636-9b5f-746f5f757362,rev?*%
%TF.SameCoordinates,Original*%
%TF.FileFunction,Legend,Top*%
%TF.FilePolarity,Positive*%
%FSLAX46Y46*%
G04 Gerber Fmt 4.6, Leading zero omitted, Abs format (unit mm)*
G04 Created by KiCad (PCBNEW 8.0.5) date 2024-12-20 11:39:28*
%MOMM*%
%LPD*%
G01*
G04 APERTURE LIST*
%ADD10C,0.037750*%
%ADD11C,0.150000*%
%ADD12C,0.120000*%
G04 APERTURE END LIST*
D10*
X144758571Y-105062758D02*
X144758571Y-105641329D01*
X144758571Y-105641329D02*
X144720000Y-105757044D01*
X144720000Y-105757044D02*
X144642857Y-105834187D01*
X144642857Y-105834187D02*
X144527143Y-105872758D01*
X144527143Y-105872758D02*
X144450000Y-105872758D01*
X145530000Y-105872758D02*
X145144286Y-105872758D01*
X145144286Y-105872758D02*
X145144286Y-105062758D01*
X146262857Y-105795615D02*
X146224285Y-105834187D01*
X146224285Y-105834187D02*
X146108571Y-105872758D01*
X146108571Y-105872758D02*
X146031428Y-105872758D01*
X146031428Y-105872758D02*
X145915714Y-105834187D01*
X145915714Y-105834187D02*
X145838571Y-105757044D01*
X145838571Y-105757044D02*
X145800000Y-105679901D01*
X145800000Y-105679901D02*
X145761428Y-105525615D01*
X145761428Y-105525615D02*
X145761428Y-105409901D01*
X145761428Y-105409901D02*
X145800000Y-105255615D01*
X145800000Y-105255615D02*
X145838571Y-105178472D01*
X145838571Y-105178472D02*
X145915714Y-105101329D01*
X145915714Y-105101329D02*
X146031428Y-105062758D01*
X146031428Y-105062758D02*
X146108571Y-105062758D01*
X146108571Y-105062758D02*
X146224285Y-105101329D01*
X146224285Y-105101329D02*
X146262857Y-105139901D01*
X146841428Y-105062758D02*
X146841428Y-105641329D01*
X146841428Y-105641329D02*
X146802857Y-105757044D01*
X146802857Y-105757044D02*
X146725714Y-105834187D01*
X146725714Y-105834187D02*
X146610000Y-105872758D01*
X146610000Y-105872758D02*
X146532857Y-105872758D01*
X147612857Y-105872758D02*
X147227143Y-105872758D01*
X147227143Y-105872758D02*
X147227143Y-105062758D01*
X148345714Y-105795615D02*
X148307142Y-105834187D01*
X148307142Y-105834187D02*
X148191428Y-105872758D01*
X148191428Y-105872758D02*
X148114285Y-105872758D01*
X148114285Y-105872758D02*
X147998571Y-105834187D01*
X147998571Y-105834187D02*
X147921428Y-105757044D01*
X147921428Y-105757044D02*
X147882857Y-105679901D01*
X147882857Y-105679901D02*
X147844285Y-105525615D01*
X147844285Y-105525615D02*
X147844285Y-105409901D01*
X147844285Y-105409901D02*
X147882857Y-105255615D01*
X147882857Y-105255615D02*
X147921428Y-105178472D01*
X147921428Y-105178472D02*
X147998571Y-105101329D01*
X147998571Y-105101329D02*
X148114285Y-105062758D01*
X148114285Y-105062758D02*
X148191428Y-105062758D01*
X148191428Y-105062758D02*
X148307142Y-105101329D01*
X148307142Y-105101329D02*
X148345714Y-105139901D01*
X148924285Y-105062758D02*
X148924285Y-105641329D01*
X148924285Y-105641329D02*
X148885714Y-105757044D01*
X148885714Y-105757044D02*
X148808571Y-105834187D01*
X148808571Y-105834187D02*
X148692857Y-105872758D01*
X148692857Y-105872758D02*
X148615714Y-105872758D01*
X149695714Y-105872758D02*
X149310000Y-105872758D01*
X149310000Y-105872758D02*
X149310000Y-105062758D01*
X150428571Y-105795615D02*
X150389999Y-105834187D01*
X150389999Y-105834187D02*
X150274285Y-105872758D01*
X150274285Y-105872758D02*
X150197142Y-105872758D01*
X150197142Y-105872758D02*
X150081428Y-105834187D01*
X150081428Y-105834187D02*
X150004285Y-105757044D01*
X150004285Y-105757044D02*
X149965714Y-105679901D01*
X149965714Y-105679901D02*
X149927142Y-105525615D01*
X149927142Y-105525615D02*
X149927142Y-105409901D01*
X149927142Y-105409901D02*
X149965714Y-105255615D01*
X149965714Y-105255615D02*
X150004285Y-105178472D01*
X150004285Y-105178472D02*
X150081428Y-105101329D01*
X150081428Y-105101329D02*
X150197142Y-105062758D01*
X150197142Y-105062758D02*
X150274285Y-105062758D01*
X150274285Y-105062758D02*
X150389999Y-105101329D01*
X150389999Y-105101329D02*
X150428571Y-105139901D01*
X151007142Y-105062758D02*
X151007142Y-105641329D01*
X151007142Y-105641329D02*
X150968571Y-105757044D01*
X150968571Y-105757044D02*
X150891428Y-105834187D01*
X150891428Y-105834187D02*
X150775714Y-105872758D01*
X150775714Y-105872758D02*
X150698571Y-105872758D01*
X151778571Y-105872758D02*
X151392857Y-105872758D01*
X151392857Y-105872758D02*
X151392857Y-105062758D01*
X152511428Y-105795615D02*
X152472856Y-105834187D01*
X152472856Y-105834187D02*
X152357142Y-105872758D01*
X152357142Y-105872758D02*
X152279999Y-105872758D01*
X152279999Y-105872758D02*
X152164285Y-105834187D01*
X152164285Y-105834187D02*
X152087142Y-105757044D01*
X152087142Y-105757044D02*
X152048571Y-105679901D01*
X152048571Y-105679901D02*
X152009999Y-105525615D01*
X152009999Y-105525615D02*
X152009999Y-105409901D01*
X152009999Y-105409901D02*
X152048571Y-105255615D01*
X152048571Y-105255615D02*
X152087142Y-105178472D01*
X152087142Y-105178472D02*
X152164285Y-105101329D01*
X152164285Y-105101329D02*
X152279999Y-105062758D01*
X152279999Y-105062758D02*
X152357142Y-105062758D01*
X152357142Y-105062758D02*
X152472856Y-105101329D01*
X152472856Y-105101329D02*
X152511428Y-105139901D01*
D11*
X142716666Y-94604819D02*
X142716666Y-95319104D01*
X142716666Y-95319104D02*
X142669047Y-95461961D01*
X142669047Y-95461961D02*
X142573809Y-95557200D01*
X142573809Y-95557200D02*
X142430952Y-95604819D01*
X142430952Y-95604819D02*
X142335714Y-95604819D01*
X143145238Y-94700057D02*
X143192857Y-94652438D01*
X143192857Y-94652438D02*
X143288095Y-94604819D01*
X143288095Y-94604819D02*
X143526190Y-94604819D01*
X143526190Y-94604819D02*
X143621428Y-94652438D01*
X143621428Y-94652438D02*
X143669047Y-94700057D01*
X143669047Y-94700057D02*
X143716666Y-94795295D01*
X143716666Y-94795295D02*
X143716666Y-94890533D01*
X143716666Y-94890533D02*
X143669047Y-95033390D01*
X143669047Y-95033390D02*
X143097619Y-95604819D01*
X143097619Y-95604819D02*
X143716666Y-95604819D01*
X160359580Y-102666666D02*
X160407200Y-102714285D01*
X160407200Y-102714285D02*
X160454819Y-102857142D01*
X160454819Y-102857142D02*
X160454819Y-102952380D01*
X160454819Y-102952380D02*
X160407200Y-103095237D01*
X160407200Y-103095237D02*
X160311961Y-103190475D01*
X160311961Y-103190475D02*
X160216723Y-103238094D01*
X160216723Y-103238094D02*
X160026247Y-103285713D01*
X160026247Y-103285713D02*
X159883390Y-103285713D01*
X159883390Y-103285713D02*
X159692914Y-103238094D01*
X159692914Y-103238094D02*
X159597676Y-103190475D01*
X159597676Y-103190475D02*
X159502438Y-103095237D01*
X159502438Y-103095237D02*
X159454819Y-102952380D01*
X159454819Y-102952380D02*
X159454819Y-102857142D01*
X159454819Y-102857142D02*
X159502438Y-102714285D01*
X159502438Y-102714285D02*
X159550057Y-102666666D01*
X160454819Y-101714285D02*
X160454819Y-102285713D01*
X160454819Y-101999999D02*
X159454819Y-101999999D01*
X159454819Y-101999999D02*
X159597676Y-102095237D01*
X159597676Y-102095237D02*
X159692914Y-102190475D01*
X159692914Y-102190475D02*
X159740533Y-102285713D01*
X159554819Y-81603333D02*
X160269104Y-81603333D01*
X160269104Y-81603333D02*
X160411961Y-81650952D01*
X160411961Y-81650952D02*
X160507200Y-81746190D01*
X160507200Y-81746190D02*
X160554819Y-81889047D01*
X160554819Y-81889047D02*
X160554819Y-81984285D01*
X160554819Y-80603333D02*
X160554819Y-81174761D01*
X160554819Y-80889047D02*
X159554819Y-80889047D01*
X159554819Y-80889047D02*
X159697676Y-80984285D01*
X159697676Y-80984285D02*
X159792914Y-81079523D01*
X159792914Y-81079523D02*
X159840533Y-81174761D01*
X137284819Y-93261904D02*
X138094342Y-93261904D01*
X138094342Y-93261904D02*
X138189580Y-93214285D01*
X138189580Y-93214285D02*
X138237200Y-93166666D01*
X138237200Y-93166666D02*
X138284819Y-93071428D01*
X138284819Y-93071428D02*
X138284819Y-92880952D01*
X138284819Y-92880952D02*
X138237200Y-92785714D01*
X138237200Y-92785714D02*
X138189580Y-92738095D01*
X138189580Y-92738095D02*
X138094342Y-92690476D01*
X138094342Y-92690476D02*
X137284819Y-92690476D01*
X138284819Y-91690476D02*
X138284819Y-92261904D01*
X138284819Y-91976190D02*
X137284819Y-91976190D01*
X137284819Y-91976190D02*
X137427676Y-92071428D01*
X137427676Y-92071428D02*
X137522914Y-92166666D01*
X137522914Y-92166666D02*
X137570533Y-92261904D01*
X137859580Y-102666666D02*
X137907200Y-102714285D01*
X137907200Y-102714285D02*
X137954819Y-102857142D01*
X137954819Y-102857142D02*
X137954819Y-102952380D01*
X137954819Y-102952380D02*
X137907200Y-103095237D01*
X137907200Y-103095237D02*
X137811961Y-103190475D01*
X137811961Y-103190475D02*
X137716723Y-103238094D01*
X137716723Y-103238094D02*
X137526247Y-103285713D01*
X137526247Y-103285713D02*
X137383390Y-103285713D01*
X137383390Y-103285713D02*
X137192914Y-103238094D01*
X137192914Y-103238094D02*
X137097676Y-103190475D01*
X137097676Y-103190475D02*
X137002438Y-103095237D01*
X137002438Y-103095237D02*
X136954819Y-102952380D01*
X136954819Y-102952380D02*
X136954819Y-102857142D01*
X136954819Y-102857142D02*
X137002438Y-102714285D01*
X137002438Y-102714285D02*
X137050057Y-102666666D01*
X137050057Y-102285713D02*
X137002438Y-102238094D01*
X137002438Y-102238094D02*
X136954819Y-102142856D01*
X136954819Y-102142856D02*
X136954819Y-101904761D01*
X136954819Y-101904761D02*
X137002438Y-101809523D01*
X137002438Y-101809523D02*
X137050057Y-101761904D01*
X137050057Y-101761904D02*
X137145295Y-101714285D01*
X137145295Y-101714285D02*
X137240533Y-101714285D01*
X137240533Y-101714285D02*
X137383390Y-101761904D01*
X137383390Y-101761904D02*
X137954819Y-102333332D01*
X137954819Y-102333332D02*
X137954819Y-101714285D01*
D12*
%TO.C,J2*%
X141140000Y-99380000D02*
X141140000Y-101360000D01*
X141140000Y-99380000D02*
X155860000Y-99380000D01*
X141140000Y-105060000D02*
X141140000Y-113600000D01*
X141140000Y-113600000D02*
X155860000Y-113600000D01*
X144500000Y-98500000D02*
X145000000Y-99000000D01*
X145000000Y-99000000D02*
X145500000Y-98500000D01*
X145500000Y-98500000D02*
X144500000Y-98500000D01*
X155860000Y-101360000D02*
X155860000Y-99380000D01*
X155860000Y-105060000D02*
X155860000Y-113600000D01*
%TO.C,C1*%
X158630000Y-99880000D02*
X158630000Y-105120000D01*
X158945000Y-99880000D02*
X158630000Y-99880000D01*
X158945000Y-105120000D02*
X158630000Y-105120000D01*
X161370000Y-99880000D02*
X161055000Y-99880000D01*
X161370000Y-99880000D02*
X161370000Y-105120000D01*
X161370000Y-105120000D02*
X161055000Y-105120000D01*
%TO.C,J1*%
X138630000Y-76710000D02*
X159210000Y-76710000D01*
X138630000Y-85830000D02*
X138630000Y-76710000D01*
X139930000Y-78020000D02*
X146870000Y-78020000D01*
X139930000Y-84520000D02*
X139930000Y-78020000D01*
X146870000Y-78020000D02*
X146870000Y-76710000D01*
X146870000Y-78020000D02*
X146870000Y-78020000D01*
X150970000Y-76710000D02*
X150970000Y-78020000D01*
X150970000Y-78020000D02*
X157910000Y-78020000D01*
X153500000Y-75320000D02*
X154000000Y-76320000D01*
X154000000Y-76320000D02*
X154500000Y-75320000D01*
X154500000Y-75320000D02*
X153500000Y-75320000D01*
X157910000Y-78020000D02*
X157910000Y-84520000D01*
X157910000Y-84520000D02*
X139930000Y-84520000D01*
X159210000Y-76710000D02*
X159210000Y-85830000D01*
X159210000Y-85830000D02*
X138630000Y-85830000D01*
%TO.C,U1*%
X138830000Y-87250000D02*
X154940000Y-87250000D01*
X138830000Y-97750000D02*
X138830000Y-87250000D01*
X138830000Y-97750000D02*
X154940000Y-97750000D01*
X154940000Y-89960000D02*
X156900000Y-89960000D01*
X154940000Y-92500000D02*
X156900000Y-92500000D01*
X154940000Y-95040000D02*
X156900000Y-95040000D01*
X154940000Y-97750000D02*
X154940000Y-87250000D01*
%TO.C,C2*%
X136130000Y-99880000D02*
X136130000Y-105120000D01*
X136445000Y-99880000D02*
X136130000Y-99880000D01*
X136445000Y-105120000D02*
X136130000Y-105120000D01*
X138870000Y-99880000D02*
X138555000Y-99880000D01*
X138870000Y-99880000D02*
X138870000Y-105120000D01*
X138870000Y-105120000D02*
X138555000Y-105120000D01*
%TD*%
M02*
