%TF.GenerationSoftware,KiCad,Pcbnew,8.0.5*%
%TF.CreationDate,2024-12-20T11:43:52+13:00*%
%TF.ProjectId,eurorack_to_usb_MP1584EN,6575726f-7261-4636-9b5f-746f5f757362,rev?*%
%TF.SameCoordinates,Original*%
%TF.FileFunction,Legend,Top*%
%TF.FilePolarity,Positive*%
%FSLAX46Y46*%
G04 Gerber Fmt 4.6, Leading zero omitted, Abs format (unit mm)*
G04 Created by KiCad (PCBNEW 8.0.5) date 2024-12-20 11:43:52*
%MOMM*%
%LPD*%
G01*
G04 APERTURE LIST*
%ADD10C,0.037750*%
%ADD11C,0.150000*%
%ADD12C,0.120000*%
G04 APERTURE END LIST*
D10*
X144758571Y-109062758D02*
X144758571Y-109641329D01*
X144758571Y-109641329D02*
X144720000Y-109757044D01*
X144720000Y-109757044D02*
X144642857Y-109834187D01*
X144642857Y-109834187D02*
X144527143Y-109872758D01*
X144527143Y-109872758D02*
X144450000Y-109872758D01*
X145530000Y-109872758D02*
X145144286Y-109872758D01*
X145144286Y-109872758D02*
X145144286Y-109062758D01*
X146262857Y-109795615D02*
X146224285Y-109834187D01*
X146224285Y-109834187D02*
X146108571Y-109872758D01*
X146108571Y-109872758D02*
X146031428Y-109872758D01*
X146031428Y-109872758D02*
X145915714Y-109834187D01*
X145915714Y-109834187D02*
X145838571Y-109757044D01*
X145838571Y-109757044D02*
X145800000Y-109679901D01*
X145800000Y-109679901D02*
X145761428Y-109525615D01*
X145761428Y-109525615D02*
X145761428Y-109409901D01*
X145761428Y-109409901D02*
X145800000Y-109255615D01*
X145800000Y-109255615D02*
X145838571Y-109178472D01*
X145838571Y-109178472D02*
X145915714Y-109101329D01*
X145915714Y-109101329D02*
X146031428Y-109062758D01*
X146031428Y-109062758D02*
X146108571Y-109062758D01*
X146108571Y-109062758D02*
X146224285Y-109101329D01*
X146224285Y-109101329D02*
X146262857Y-109139901D01*
X146841428Y-109062758D02*
X146841428Y-109641329D01*
X146841428Y-109641329D02*
X146802857Y-109757044D01*
X146802857Y-109757044D02*
X146725714Y-109834187D01*
X146725714Y-109834187D02*
X146610000Y-109872758D01*
X146610000Y-109872758D02*
X146532857Y-109872758D01*
X147612857Y-109872758D02*
X147227143Y-109872758D01*
X147227143Y-109872758D02*
X147227143Y-109062758D01*
X148345714Y-109795615D02*
X148307142Y-109834187D01*
X148307142Y-109834187D02*
X148191428Y-109872758D01*
X148191428Y-109872758D02*
X148114285Y-109872758D01*
X148114285Y-109872758D02*
X147998571Y-109834187D01*
X147998571Y-109834187D02*
X147921428Y-109757044D01*
X147921428Y-109757044D02*
X147882857Y-109679901D01*
X147882857Y-109679901D02*
X147844285Y-109525615D01*
X147844285Y-109525615D02*
X147844285Y-109409901D01*
X147844285Y-109409901D02*
X147882857Y-109255615D01*
X147882857Y-109255615D02*
X147921428Y-109178472D01*
X147921428Y-109178472D02*
X147998571Y-109101329D01*
X147998571Y-109101329D02*
X148114285Y-109062758D01*
X148114285Y-109062758D02*
X148191428Y-109062758D01*
X148191428Y-109062758D02*
X148307142Y-109101329D01*
X148307142Y-109101329D02*
X148345714Y-109139901D01*
X148924285Y-109062758D02*
X148924285Y-109641329D01*
X148924285Y-109641329D02*
X148885714Y-109757044D01*
X148885714Y-109757044D02*
X148808571Y-109834187D01*
X148808571Y-109834187D02*
X148692857Y-109872758D01*
X148692857Y-109872758D02*
X148615714Y-109872758D01*
X149695714Y-109872758D02*
X149310000Y-109872758D01*
X149310000Y-109872758D02*
X149310000Y-109062758D01*
X150428571Y-109795615D02*
X150389999Y-109834187D01*
X150389999Y-109834187D02*
X150274285Y-109872758D01*
X150274285Y-109872758D02*
X150197142Y-109872758D01*
X150197142Y-109872758D02*
X150081428Y-109834187D01*
X150081428Y-109834187D02*
X150004285Y-109757044D01*
X150004285Y-109757044D02*
X149965714Y-109679901D01*
X149965714Y-109679901D02*
X149927142Y-109525615D01*
X149927142Y-109525615D02*
X149927142Y-109409901D01*
X149927142Y-109409901D02*
X149965714Y-109255615D01*
X149965714Y-109255615D02*
X150004285Y-109178472D01*
X150004285Y-109178472D02*
X150081428Y-109101329D01*
X150081428Y-109101329D02*
X150197142Y-109062758D01*
X150197142Y-109062758D02*
X150274285Y-109062758D01*
X150274285Y-109062758D02*
X150389999Y-109101329D01*
X150389999Y-109101329D02*
X150428571Y-109139901D01*
X151007142Y-109062758D02*
X151007142Y-109641329D01*
X151007142Y-109641329D02*
X150968571Y-109757044D01*
X150968571Y-109757044D02*
X150891428Y-109834187D01*
X150891428Y-109834187D02*
X150775714Y-109872758D01*
X150775714Y-109872758D02*
X150698571Y-109872758D01*
X151778571Y-109872758D02*
X151392857Y-109872758D01*
X151392857Y-109872758D02*
X151392857Y-109062758D01*
X152511428Y-109795615D02*
X152472856Y-109834187D01*
X152472856Y-109834187D02*
X152357142Y-109872758D01*
X152357142Y-109872758D02*
X152279999Y-109872758D01*
X152279999Y-109872758D02*
X152164285Y-109834187D01*
X152164285Y-109834187D02*
X152087142Y-109757044D01*
X152087142Y-109757044D02*
X152048571Y-109679901D01*
X152048571Y-109679901D02*
X152009999Y-109525615D01*
X152009999Y-109525615D02*
X152009999Y-109409901D01*
X152009999Y-109409901D02*
X152048571Y-109255615D01*
X152048571Y-109255615D02*
X152087142Y-109178472D01*
X152087142Y-109178472D02*
X152164285Y-109101329D01*
X152164285Y-109101329D02*
X152279999Y-109062758D01*
X152279999Y-109062758D02*
X152357142Y-109062758D01*
X152357142Y-109062758D02*
X152472856Y-109101329D01*
X152472856Y-109101329D02*
X152511428Y-109139901D01*
D11*
X142646666Y-103394819D02*
X142646666Y-104109104D01*
X142646666Y-104109104D02*
X142599047Y-104251961D01*
X142599047Y-104251961D02*
X142503809Y-104347200D01*
X142503809Y-104347200D02*
X142360952Y-104394819D01*
X142360952Y-104394819D02*
X142265714Y-104394819D01*
X143075238Y-103490057D02*
X143122857Y-103442438D01*
X143122857Y-103442438D02*
X143218095Y-103394819D01*
X143218095Y-103394819D02*
X143456190Y-103394819D01*
X143456190Y-103394819D02*
X143551428Y-103442438D01*
X143551428Y-103442438D02*
X143599047Y-103490057D01*
X143599047Y-103490057D02*
X143646666Y-103585295D01*
X143646666Y-103585295D02*
X143646666Y-103680533D01*
X143646666Y-103680533D02*
X143599047Y-103823390D01*
X143599047Y-103823390D02*
X143027619Y-104394819D01*
X143027619Y-104394819D02*
X143646666Y-104394819D01*
X160288445Y-111109580D02*
X160240826Y-111157200D01*
X160240826Y-111157200D02*
X160097969Y-111204819D01*
X160097969Y-111204819D02*
X160002731Y-111204819D01*
X160002731Y-111204819D02*
X159859874Y-111157200D01*
X159859874Y-111157200D02*
X159764636Y-111061961D01*
X159764636Y-111061961D02*
X159717017Y-110966723D01*
X159717017Y-110966723D02*
X159669398Y-110776247D01*
X159669398Y-110776247D02*
X159669398Y-110633390D01*
X159669398Y-110633390D02*
X159717017Y-110442914D01*
X159717017Y-110442914D02*
X159764636Y-110347676D01*
X159764636Y-110347676D02*
X159859874Y-110252438D01*
X159859874Y-110252438D02*
X160002731Y-110204819D01*
X160002731Y-110204819D02*
X160097969Y-110204819D01*
X160097969Y-110204819D02*
X160240826Y-110252438D01*
X160240826Y-110252438D02*
X160288445Y-110300057D01*
X161240826Y-111204819D02*
X160669398Y-111204819D01*
X160955112Y-111204819D02*
X160955112Y-110204819D01*
X160955112Y-110204819D02*
X160859874Y-110347676D01*
X160859874Y-110347676D02*
X160764636Y-110442914D01*
X160764636Y-110442914D02*
X160669398Y-110490533D01*
X148666666Y-94454819D02*
X148666666Y-95169104D01*
X148666666Y-95169104D02*
X148619047Y-95311961D01*
X148619047Y-95311961D02*
X148523809Y-95407200D01*
X148523809Y-95407200D02*
X148380952Y-95454819D01*
X148380952Y-95454819D02*
X148285714Y-95454819D01*
X149047619Y-94454819D02*
X149666666Y-94454819D01*
X149666666Y-94454819D02*
X149333333Y-94835771D01*
X149333333Y-94835771D02*
X149476190Y-94835771D01*
X149476190Y-94835771D02*
X149571428Y-94883390D01*
X149571428Y-94883390D02*
X149619047Y-94931009D01*
X149619047Y-94931009D02*
X149666666Y-95026247D01*
X149666666Y-95026247D02*
X149666666Y-95264342D01*
X149666666Y-95264342D02*
X149619047Y-95359580D01*
X149619047Y-95359580D02*
X149571428Y-95407200D01*
X149571428Y-95407200D02*
X149476190Y-95454819D01*
X149476190Y-95454819D02*
X149190476Y-95454819D01*
X149190476Y-95454819D02*
X149095238Y-95407200D01*
X149095238Y-95407200D02*
X149047619Y-95359580D01*
X156169379Y-95115819D02*
X156169379Y-94449152D01*
X156169379Y-94115819D02*
X156121760Y-94163438D01*
X156121760Y-94163438D02*
X156169379Y-94211057D01*
X156169379Y-94211057D02*
X156216998Y-94163438D01*
X156216998Y-94163438D02*
X156169379Y-94115819D01*
X156169379Y-94115819D02*
X156169379Y-94211057D01*
X156645569Y-94449152D02*
X156645569Y-95115819D01*
X156645569Y-94544390D02*
X156693188Y-94496771D01*
X156693188Y-94496771D02*
X156788426Y-94449152D01*
X156788426Y-94449152D02*
X156931283Y-94449152D01*
X156931283Y-94449152D02*
X157026521Y-94496771D01*
X157026521Y-94496771D02*
X157074140Y-94592009D01*
X157074140Y-94592009D02*
X157074140Y-95115819D01*
X157550331Y-94449152D02*
X157550331Y-95449152D01*
X157550331Y-94496771D02*
X157645569Y-94449152D01*
X157645569Y-94449152D02*
X157836045Y-94449152D01*
X157836045Y-94449152D02*
X157931283Y-94496771D01*
X157931283Y-94496771D02*
X157978902Y-94544390D01*
X157978902Y-94544390D02*
X158026521Y-94639628D01*
X158026521Y-94639628D02*
X158026521Y-94925342D01*
X158026521Y-94925342D02*
X157978902Y-95020580D01*
X157978902Y-95020580D02*
X157931283Y-95068200D01*
X157931283Y-95068200D02*
X157836045Y-95115819D01*
X157836045Y-95115819D02*
X157645569Y-95115819D01*
X157645569Y-95115819D02*
X157550331Y-95068200D01*
X158883664Y-94449152D02*
X158883664Y-95115819D01*
X158455093Y-94449152D02*
X158455093Y-94972961D01*
X158455093Y-94972961D02*
X158502712Y-95068200D01*
X158502712Y-95068200D02*
X158597950Y-95115819D01*
X158597950Y-95115819D02*
X158740807Y-95115819D01*
X158740807Y-95115819D02*
X158836045Y-95068200D01*
X158836045Y-95068200D02*
X158883664Y-95020580D01*
X159216998Y-94449152D02*
X159597950Y-94449152D01*
X159359855Y-94115819D02*
X159359855Y-94972961D01*
X159359855Y-94972961D02*
X159407474Y-95068200D01*
X159407474Y-95068200D02*
X159502712Y-95115819D01*
X159502712Y-95115819D02*
X159597950Y-95115819D01*
X155585179Y-103040666D02*
X156347084Y-103040666D01*
X141767579Y-88207066D02*
X142529484Y-88207066D01*
X142148531Y-88588019D02*
X142148531Y-87826114D01*
X138786236Y-94963419D02*
X138690998Y-94915800D01*
X138690998Y-94915800D02*
X138643379Y-94868180D01*
X138643379Y-94868180D02*
X138595760Y-94772942D01*
X138595760Y-94772942D02*
X138595760Y-94487228D01*
X138595760Y-94487228D02*
X138643379Y-94391990D01*
X138643379Y-94391990D02*
X138690998Y-94344371D01*
X138690998Y-94344371D02*
X138786236Y-94296752D01*
X138786236Y-94296752D02*
X138929093Y-94296752D01*
X138929093Y-94296752D02*
X139024331Y-94344371D01*
X139024331Y-94344371D02*
X139071950Y-94391990D01*
X139071950Y-94391990D02*
X139119569Y-94487228D01*
X139119569Y-94487228D02*
X139119569Y-94772942D01*
X139119569Y-94772942D02*
X139071950Y-94868180D01*
X139071950Y-94868180D02*
X139024331Y-94915800D01*
X139024331Y-94915800D02*
X138929093Y-94963419D01*
X138929093Y-94963419D02*
X138786236Y-94963419D01*
X139976712Y-94296752D02*
X139976712Y-94963419D01*
X139548141Y-94296752D02*
X139548141Y-94820561D01*
X139548141Y-94820561D02*
X139595760Y-94915800D01*
X139595760Y-94915800D02*
X139690998Y-94963419D01*
X139690998Y-94963419D02*
X139833855Y-94963419D01*
X139833855Y-94963419D02*
X139929093Y-94915800D01*
X139929093Y-94915800D02*
X139976712Y-94868180D01*
X140310046Y-94296752D02*
X140690998Y-94296752D01*
X140452903Y-93963419D02*
X140452903Y-94820561D01*
X140452903Y-94820561D02*
X140500522Y-94915800D01*
X140500522Y-94915800D02*
X140595760Y-94963419D01*
X140595760Y-94963419D02*
X140690998Y-94963419D01*
X141024332Y-94296752D02*
X141024332Y-95296752D01*
X141024332Y-94344371D02*
X141119570Y-94296752D01*
X141119570Y-94296752D02*
X141310046Y-94296752D01*
X141310046Y-94296752D02*
X141405284Y-94344371D01*
X141405284Y-94344371D02*
X141452903Y-94391990D01*
X141452903Y-94391990D02*
X141500522Y-94487228D01*
X141500522Y-94487228D02*
X141500522Y-94772942D01*
X141500522Y-94772942D02*
X141452903Y-94868180D01*
X141452903Y-94868180D02*
X141405284Y-94915800D01*
X141405284Y-94915800D02*
X141310046Y-94963419D01*
X141310046Y-94963419D02*
X141119570Y-94963419D01*
X141119570Y-94963419D02*
X141024332Y-94915800D01*
X142357665Y-94296752D02*
X142357665Y-94963419D01*
X141929094Y-94296752D02*
X141929094Y-94820561D01*
X141929094Y-94820561D02*
X141976713Y-94915800D01*
X141976713Y-94915800D02*
X142071951Y-94963419D01*
X142071951Y-94963419D02*
X142214808Y-94963419D01*
X142214808Y-94963419D02*
X142310046Y-94915800D01*
X142310046Y-94915800D02*
X142357665Y-94868180D01*
X142690999Y-94296752D02*
X143071951Y-94296752D01*
X142833856Y-93963419D02*
X142833856Y-94820561D01*
X142833856Y-94820561D02*
X142881475Y-94915800D01*
X142881475Y-94915800D02*
X142976713Y-94963419D01*
X142976713Y-94963419D02*
X143071951Y-94963419D01*
X141538979Y-103091466D02*
X142300884Y-103091466D01*
X155813779Y-88156266D02*
X156575684Y-88156266D01*
X156194731Y-88537219D02*
X156194731Y-87775314D01*
X159554819Y-81603333D02*
X160269104Y-81603333D01*
X160269104Y-81603333D02*
X160411961Y-81650952D01*
X160411961Y-81650952D02*
X160507200Y-81746190D01*
X160507200Y-81746190D02*
X160554819Y-81889047D01*
X160554819Y-81889047D02*
X160554819Y-81984285D01*
X160554819Y-80603333D02*
X160554819Y-81174761D01*
X160554819Y-80889047D02*
X159554819Y-80889047D01*
X159554819Y-80889047D02*
X159697676Y-80984285D01*
X159697676Y-80984285D02*
X159792914Y-81079523D01*
X159792914Y-81079523D02*
X159840533Y-81174761D01*
D12*
%TO.C,J2*%
X141070000Y-105170000D02*
X141070000Y-107150000D01*
X141070000Y-105170000D02*
X155790000Y-105170000D01*
X141070000Y-110850000D02*
X141070000Y-119390000D01*
X141070000Y-119390000D02*
X155790000Y-119390000D01*
X144430000Y-104290000D02*
X144930000Y-104790000D01*
X144930000Y-104790000D02*
X145430000Y-104290000D01*
X145430000Y-104290000D02*
X144430000Y-104290000D01*
X155790000Y-107150000D02*
X155790000Y-105170000D01*
X155790000Y-110850000D02*
X155790000Y-119390000D01*
%TO.C,C1*%
X157854112Y-107284000D02*
X157854112Y-106716000D01*
X157894112Y-107518000D02*
X157894112Y-106482000D01*
X157934112Y-107677000D02*
X157934112Y-106323000D01*
X157974112Y-107805000D02*
X157974112Y-106195000D01*
X158014112Y-107915000D02*
X158014112Y-106085000D01*
X158054112Y-108011000D02*
X158054112Y-105989000D01*
X158094112Y-108098000D02*
X158094112Y-105902000D01*
X158134112Y-108178000D02*
X158134112Y-105822000D01*
X158174112Y-108251000D02*
X158174112Y-105749000D01*
X158214112Y-108319000D02*
X158214112Y-105681000D01*
X158254112Y-108383000D02*
X158254112Y-105617000D01*
X158294112Y-108443000D02*
X158294112Y-105557000D01*
X158334112Y-108500000D02*
X158334112Y-105500000D01*
X158374112Y-108554000D02*
X158374112Y-105446000D01*
X158414112Y-108605000D02*
X158414112Y-105395000D01*
X158454112Y-105960000D02*
X158454112Y-105347000D01*
X158454112Y-108653000D02*
X158454112Y-108040000D01*
X158494112Y-105960000D02*
X158494112Y-105301000D01*
X158494112Y-108699000D02*
X158494112Y-108040000D01*
X158534112Y-105960000D02*
X158534112Y-105257000D01*
X158534112Y-108743000D02*
X158534112Y-108040000D01*
X158574112Y-105960000D02*
X158574112Y-105215000D01*
X158574112Y-108785000D02*
X158574112Y-108040000D01*
X158614112Y-105960000D02*
X158614112Y-105174000D01*
X158614112Y-108826000D02*
X158614112Y-108040000D01*
X158654112Y-105960000D02*
X158654112Y-105136000D01*
X158654112Y-108864000D02*
X158654112Y-108040000D01*
X158694112Y-105960000D02*
X158694112Y-105099000D01*
X158694112Y-108901000D02*
X158694112Y-108040000D01*
X158734112Y-105960000D02*
X158734112Y-105063000D01*
X158734112Y-108937000D02*
X158734112Y-108040000D01*
X158774112Y-105960000D02*
X158774112Y-105029000D01*
X158774112Y-108971000D02*
X158774112Y-108040000D01*
X158814112Y-105960000D02*
X158814112Y-104996000D01*
X158814112Y-109004000D02*
X158814112Y-108040000D01*
X158854112Y-105960000D02*
X158854112Y-104965000D01*
X158854112Y-109035000D02*
X158854112Y-108040000D01*
X158894112Y-105960000D02*
X158894112Y-104935000D01*
X158894112Y-109065000D02*
X158894112Y-108040000D01*
X158934112Y-105960000D02*
X158934112Y-104905000D01*
X158934112Y-109095000D02*
X158934112Y-108040000D01*
X158974112Y-105960000D02*
X158974112Y-104878000D01*
X158974112Y-109122000D02*
X158974112Y-108040000D01*
X159014112Y-105960000D02*
X159014112Y-104851000D01*
X159014112Y-109149000D02*
X159014112Y-108040000D01*
X159054112Y-105960000D02*
X159054112Y-104825000D01*
X159054112Y-109175000D02*
X159054112Y-108040000D01*
X159094112Y-105960000D02*
X159094112Y-104800000D01*
X159094112Y-109200000D02*
X159094112Y-108040000D01*
X159134112Y-105960000D02*
X159134112Y-104776000D01*
X159134112Y-109224000D02*
X159134112Y-108040000D01*
X159174112Y-105960000D02*
X159174112Y-104753000D01*
X159174112Y-109247000D02*
X159174112Y-108040000D01*
X159214112Y-105960000D02*
X159214112Y-104732000D01*
X159214112Y-109268000D02*
X159214112Y-108040000D01*
X159254112Y-105960000D02*
X159254112Y-104710000D01*
X159254112Y-109290000D02*
X159254112Y-108040000D01*
X159294112Y-105960000D02*
X159294112Y-104690000D01*
X159294112Y-109310000D02*
X159294112Y-108040000D01*
X159334112Y-105960000D02*
X159334112Y-104671000D01*
X159334112Y-109329000D02*
X159334112Y-108040000D01*
X159374112Y-105960000D02*
X159374112Y-104652000D01*
X159374112Y-109348000D02*
X159374112Y-108040000D01*
X159414112Y-105960000D02*
X159414112Y-104635000D01*
X159414112Y-109365000D02*
X159414112Y-108040000D01*
X159454112Y-105960000D02*
X159454112Y-104618000D01*
X159454112Y-109382000D02*
X159454112Y-108040000D01*
X159494112Y-105960000D02*
X159494112Y-104602000D01*
X159494112Y-109398000D02*
X159494112Y-108040000D01*
X159534112Y-105960000D02*
X159534112Y-104586000D01*
X159534112Y-109414000D02*
X159534112Y-108040000D01*
X159574112Y-105960000D02*
X159574112Y-104572000D01*
X159574112Y-109428000D02*
X159574112Y-108040000D01*
X159614112Y-105960000D02*
X159614112Y-104558000D01*
X159614112Y-109442000D02*
X159614112Y-108040000D01*
X159654112Y-105960000D02*
X159654112Y-104545000D01*
X159654112Y-109455000D02*
X159654112Y-108040000D01*
X159694112Y-105960000D02*
X159694112Y-104532000D01*
X159694112Y-109468000D02*
X159694112Y-108040000D01*
X159734112Y-105960000D02*
X159734112Y-104520000D01*
X159734112Y-109480000D02*
X159734112Y-108040000D01*
X159775112Y-105960000D02*
X159775112Y-104509000D01*
X159775112Y-109491000D02*
X159775112Y-108040000D01*
X159815112Y-105960000D02*
X159815112Y-104499000D01*
X159815112Y-109501000D02*
X159815112Y-108040000D01*
X159855112Y-105960000D02*
X159855112Y-104489000D01*
X159855112Y-109511000D02*
X159855112Y-108040000D01*
X159895112Y-105960000D02*
X159895112Y-104480000D01*
X159895112Y-109520000D02*
X159895112Y-108040000D01*
X159935112Y-105960000D02*
X159935112Y-104472000D01*
X159935112Y-109528000D02*
X159935112Y-108040000D01*
X159975112Y-105960000D02*
X159975112Y-104464000D01*
X159975112Y-109536000D02*
X159975112Y-108040000D01*
X160015112Y-105960000D02*
X160015112Y-104457000D01*
X160015112Y-109543000D02*
X160015112Y-108040000D01*
X160055112Y-105960000D02*
X160055112Y-104450000D01*
X160055112Y-109550000D02*
X160055112Y-108040000D01*
X160095112Y-105960000D02*
X160095112Y-104444000D01*
X160095112Y-109556000D02*
X160095112Y-108040000D01*
X160135112Y-105960000D02*
X160135112Y-104439000D01*
X160135112Y-109561000D02*
X160135112Y-108040000D01*
X160175112Y-105960000D02*
X160175112Y-104435000D01*
X160175112Y-109565000D02*
X160175112Y-108040000D01*
X160215112Y-105960000D02*
X160215112Y-104431000D01*
X160215112Y-109569000D02*
X160215112Y-108040000D01*
X160255112Y-105960000D02*
X160255112Y-104427000D01*
X160255112Y-109573000D02*
X160255112Y-108040000D01*
X160295112Y-105960000D02*
X160295112Y-104424000D01*
X160295112Y-109576000D02*
X160295112Y-108040000D01*
X160335112Y-105960000D02*
X160335112Y-104422000D01*
X160335112Y-109578000D02*
X160335112Y-108040000D01*
X160375112Y-105960000D02*
X160375112Y-104421000D01*
X160375112Y-109579000D02*
X160375112Y-108040000D01*
X160415112Y-105960000D02*
X160415112Y-104420000D01*
X160415112Y-109580000D02*
X160415112Y-108040000D01*
X160455112Y-105960000D02*
X160455112Y-104420000D01*
X160455112Y-109580000D02*
X160455112Y-108040000D01*
X163009887Y-108725000D02*
X163009887Y-108225000D01*
X163259887Y-108475000D02*
X162759887Y-108475000D01*
X163075112Y-107000000D02*
G75*
G02*
X157835112Y-107000000I-2620000J0D01*
G01*
X157835112Y-107000000D02*
G75*
G02*
X163075112Y-107000000I2620000J0D01*
G01*
%TO.C,J3*%
X144072400Y-95576200D02*
X145748800Y-94534800D01*
X144072400Y-95576200D02*
X145748800Y-96617600D01*
X153648200Y-95500000D02*
X144072400Y-95576200D01*
X137850000Y-87067200D02*
X160150000Y-87067200D01*
X160150000Y-104067200D01*
X137850000Y-104067200D01*
X137850000Y-87067200D01*
%TO.C,J1*%
X138630000Y-76710000D02*
X159210000Y-76710000D01*
X138630000Y-85830000D02*
X138630000Y-76710000D01*
X139930000Y-78020000D02*
X146870000Y-78020000D01*
X139930000Y-84520000D02*
X139930000Y-78020000D01*
X146870000Y-78020000D02*
X146870000Y-76710000D01*
X146870000Y-78020000D02*
X146870000Y-78020000D01*
X150970000Y-76710000D02*
X150970000Y-78020000D01*
X150970000Y-78020000D02*
X157910000Y-78020000D01*
X153500000Y-75320000D02*
X154000000Y-76320000D01*
X154000000Y-76320000D02*
X154500000Y-75320000D01*
X154500000Y-75320000D02*
X153500000Y-75320000D01*
X157910000Y-78020000D02*
X157910000Y-84520000D01*
X157910000Y-84520000D02*
X139930000Y-84520000D01*
X159210000Y-76710000D02*
X159210000Y-85830000D01*
X159210000Y-85830000D02*
X138630000Y-85830000D01*
%TD*%
M02*
