%TF.GenerationSoftware,KiCad,Pcbnew,8.0.5*%
%TF.CreationDate,2024-12-20T11:43:52+13:00*%
%TF.ProjectId,eurorack_to_usb_MP1584EN,6575726f-7261-4636-9b5f-746f5f757362,rev?*%
%TF.SameCoordinates,Original*%
%TF.FileFunction,Copper,L2,Bot*%
%TF.FilePolarity,Positive*%
%FSLAX46Y46*%
G04 Gerber Fmt 4.6, Leading zero omitted, Abs format (unit mm)*
G04 Created by KiCad (PCBNEW 8.0.5) date 2024-12-20 11:43:52*
%MOMM*%
%LPD*%
G01*
G04 APERTURE LIST*
G04 Aperture macros list*
%AMRoundRect*
0 Rectangle with rounded corners*
0 $1 Rounding radius*
0 $2 $3 $4 $5 $6 $7 $8 $9 X,Y pos of 4 corners*
0 Add a 4 corners polygon primitive as box body*
4,1,4,$2,$3,$4,$5,$6,$7,$8,$9,$2,$3,0*
0 Add four circle primitives for the rounded corners*
1,1,$1+$1,$2,$3*
1,1,$1+$1,$4,$5*
1,1,$1+$1,$6,$7*
1,1,$1+$1,$8,$9*
0 Add four rect primitives between the rounded corners*
20,1,$1+$1,$2,$3,$4,$5,0*
20,1,$1+$1,$4,$5,$6,$7,0*
20,1,$1+$1,$6,$7,$8,$9,0*
20,1,$1+$1,$8,$9,$2,$3,0*%
G04 Aperture macros list end*
%TA.AperFunction,ComponentPad*%
%ADD10R,1.524000X1.524000*%
%TD*%
%TA.AperFunction,ComponentPad*%
%ADD11C,1.524000*%
%TD*%
%TA.AperFunction,ComponentPad*%
%ADD12C,3.500000*%
%TD*%
%TA.AperFunction,ComponentPad*%
%ADD13R,1.600000X1.600000*%
%TD*%
%TA.AperFunction,ComponentPad*%
%ADD14C,1.600000*%
%TD*%
%TA.AperFunction,ComponentPad*%
%ADD15R,1.700000X1.700000*%
%TD*%
%TA.AperFunction,ComponentPad*%
%ADD16O,1.700000X1.700000*%
%TD*%
%TA.AperFunction,ComponentPad*%
%ADD17RoundRect,0.250000X-0.600000X0.600000X-0.600000X-0.600000X0.600000X-0.600000X0.600000X0.600000X0*%
%TD*%
%TA.AperFunction,ComponentPad*%
%ADD18C,1.700000*%
%TD*%
G04 APERTURE END LIST*
D10*
%TO.P,J2,1,VBUS*%
%TO.N,Net-(J2-VBUS)*%
X144930000Y-106290000D03*
D11*
%TO.P,J2,2,D-*%
%TO.N,unconnected-(J2-D--Pad2)*%
X147430000Y-106290000D03*
%TO.P,J2,3,D+*%
%TO.N,unconnected-(J2-D+-Pad3)*%
X149430000Y-106290000D03*
%TO.P,J2,4,GND*%
%TO.N,GND*%
X151930000Y-106290000D03*
D12*
%TO.P,J2,5,Shield*%
X141860000Y-109000000D03*
X155000000Y-109000000D03*
%TD*%
D13*
%TO.P,C1,1*%
%TO.N,Net-(J2-VBUS)*%
X161455112Y-107000000D03*
D14*
%TO.P,C1,2*%
%TO.N,GND*%
X159455112Y-107000000D03*
%TD*%
D15*
%TO.P,J3,1,Pin_1*%
%TO.N,Net-(J1-Pin_9)*%
X158194800Y-88413400D03*
D16*
X158194800Y-91105800D03*
%TO.P,J3,2,Pin_2*%
%TO.N,GND*%
X158245600Y-102205600D03*
D15*
X158271000Y-99589400D03*
%TO.P,J3,3,Pin_3*%
X140059200Y-99716400D03*
D16*
X140100000Y-102450000D03*
%TO.P,J3,4,Pin_4*%
%TO.N,Net-(J2-VBUS)*%
X139856000Y-91359800D03*
D15*
X139906800Y-88591200D03*
%TD*%
D17*
%TO.P,J1,1,Pin_1*%
%TO.N,unconnected-(J1-Pin_1-Pad1)*%
X154000000Y-80000000D03*
D18*
%TO.P,J1,2,Pin_2*%
%TO.N,unconnected-(J1-Pin_2-Pad2)*%
X154000000Y-82540000D03*
%TO.P,J1,3,Pin_3*%
%TO.N,GND*%
X151460000Y-80000000D03*
%TO.P,J1,4,Pin_4*%
X151460000Y-82540000D03*
%TO.P,J1,5,Pin_5*%
X148920000Y-80000000D03*
%TO.P,J1,6,Pin_6*%
X148920000Y-82540000D03*
%TO.P,J1,7,Pin_7*%
X146380000Y-80000000D03*
%TO.P,J1,8,Pin_8*%
X146380000Y-82540000D03*
%TO.P,J1,9,Pin_9*%
%TO.N,Net-(J1-Pin_9)*%
X143840000Y-80000000D03*
%TO.P,J1,10,Pin_10*%
%TO.N,unconnected-(J1-Pin_10-Pad10)*%
X143840000Y-82540000D03*
%TD*%
%TA.AperFunction,Conductor*%
%TO.N,GND*%
G36*
X140309200Y-101057000D02*
G01*
X140313681Y-101061481D01*
X140347166Y-101122804D01*
X140350000Y-101149162D01*
X140350000Y-102016988D01*
X140292993Y-101984075D01*
X140165826Y-101950000D01*
X140034174Y-101950000D01*
X139907007Y-101984075D01*
X139850000Y-102016988D01*
X139850000Y-101114718D01*
X139816510Y-101068852D01*
X139809200Y-101026906D01*
X139809200Y-100149412D01*
X139866207Y-100182325D01*
X139993374Y-100216400D01*
X140125026Y-100216400D01*
X140252193Y-100182325D01*
X140309200Y-100149412D01*
X140309200Y-101057000D01*
G37*
%TD.AperFunction*%
%TA.AperFunction,Conductor*%
G36*
X158521000Y-100905638D02*
G01*
X158501315Y-100972677D01*
X158495600Y-100979769D01*
X158495600Y-101772588D01*
X158438593Y-101739675D01*
X158311426Y-101705600D01*
X158179774Y-101705600D01*
X158052607Y-101739675D01*
X157995600Y-101772588D01*
X157995600Y-100889362D01*
X158015285Y-100822323D01*
X158021000Y-100815230D01*
X158021000Y-100022412D01*
X158078007Y-100055325D01*
X158205174Y-100089400D01*
X158336826Y-100089400D01*
X158463993Y-100055325D01*
X158521000Y-100022412D01*
X158521000Y-100905638D01*
G37*
%TD.AperFunction*%
%TA.AperFunction,Conductor*%
G36*
X145914075Y-80192993D02*
G01*
X145979901Y-80307007D01*
X146072993Y-80400099D01*
X146187007Y-80465925D01*
X146250590Y-80482962D01*
X145618625Y-81114925D01*
X145695031Y-81168425D01*
X145738655Y-81223002D01*
X145745848Y-81292501D01*
X145714326Y-81354855D01*
X145695029Y-81371576D01*
X145618625Y-81425072D01*
X146250590Y-82057037D01*
X146187007Y-82074075D01*
X146072993Y-82139901D01*
X145979901Y-82232993D01*
X145914075Y-82347007D01*
X145897037Y-82410590D01*
X145265073Y-81778626D01*
X145211881Y-81854594D01*
X145157304Y-81898219D01*
X145087806Y-81905413D01*
X145025451Y-81873891D01*
X145008730Y-81854594D01*
X144878494Y-81668597D01*
X144711402Y-81501506D01*
X144711396Y-81501501D01*
X144525842Y-81371575D01*
X144482217Y-81316998D01*
X144475023Y-81247500D01*
X144506546Y-81185145D01*
X144525842Y-81168425D01*
X144668325Y-81068657D01*
X144711401Y-81038495D01*
X144878495Y-80871401D01*
X145008732Y-80685403D01*
X145063307Y-80641780D01*
X145132805Y-80634586D01*
X145195160Y-80666109D01*
X145211880Y-80685405D01*
X145265073Y-80761373D01*
X145897037Y-80129409D01*
X145914075Y-80192993D01*
G37*
%TD.AperFunction*%
%TA.AperFunction,Conductor*%
G36*
X150994075Y-80192993D02*
G01*
X151059901Y-80307007D01*
X151152993Y-80400099D01*
X151267007Y-80465925D01*
X151330590Y-80482962D01*
X150698625Y-81114925D01*
X150775031Y-81168425D01*
X150818655Y-81223002D01*
X150825848Y-81292501D01*
X150794326Y-81354855D01*
X150775029Y-81371576D01*
X150698625Y-81425072D01*
X151330590Y-82057037D01*
X151267007Y-82074075D01*
X151152993Y-82139901D01*
X151059901Y-82232993D01*
X150994075Y-82347007D01*
X150977037Y-82410590D01*
X150345072Y-81778625D01*
X150345072Y-81778626D01*
X150291574Y-81855030D01*
X150236998Y-81898655D01*
X150167499Y-81905849D01*
X150105144Y-81874326D01*
X150088424Y-81855030D01*
X150034925Y-81778626D01*
X150034925Y-81778625D01*
X149402962Y-82410589D01*
X149385925Y-82347007D01*
X149320099Y-82232993D01*
X149227007Y-82139901D01*
X149112993Y-82074075D01*
X149049410Y-82057037D01*
X149681373Y-81425073D01*
X149604969Y-81371576D01*
X149561344Y-81316999D01*
X149554150Y-81247501D01*
X149585672Y-81185146D01*
X149604968Y-81168425D01*
X149681373Y-81114925D01*
X149049409Y-80482962D01*
X149112993Y-80465925D01*
X149227007Y-80400099D01*
X149320099Y-80307007D01*
X149385925Y-80192993D01*
X149402962Y-80129410D01*
X150034925Y-80761373D01*
X150088425Y-80684968D01*
X150143002Y-80641344D01*
X150212501Y-80634151D01*
X150274855Y-80665673D01*
X150291576Y-80684969D01*
X150345073Y-80761372D01*
X150977037Y-80129409D01*
X150994075Y-80192993D01*
G37*
%TD.AperFunction*%
%TA.AperFunction,Conductor*%
G36*
X148454075Y-80192993D02*
G01*
X148519901Y-80307007D01*
X148612993Y-80400099D01*
X148727007Y-80465925D01*
X148790590Y-80482962D01*
X148158625Y-81114925D01*
X148235031Y-81168425D01*
X148278655Y-81223002D01*
X148285848Y-81292501D01*
X148254326Y-81354855D01*
X148235029Y-81371576D01*
X148158625Y-81425072D01*
X148790590Y-82057037D01*
X148727007Y-82074075D01*
X148612993Y-82139901D01*
X148519901Y-82232993D01*
X148454075Y-82347007D01*
X148437037Y-82410589D01*
X147805073Y-81778625D01*
X147805072Y-81778626D01*
X147751574Y-81855030D01*
X147696998Y-81898655D01*
X147627499Y-81905849D01*
X147565144Y-81874326D01*
X147548424Y-81855030D01*
X147494925Y-81778626D01*
X147494925Y-81778625D01*
X146862962Y-82410589D01*
X146845925Y-82347007D01*
X146780099Y-82232993D01*
X146687007Y-82139901D01*
X146572993Y-82074075D01*
X146509410Y-82057037D01*
X147141373Y-81425073D01*
X147064969Y-81371576D01*
X147021344Y-81316999D01*
X147014150Y-81247501D01*
X147045672Y-81185146D01*
X147064968Y-81168425D01*
X147141373Y-81114925D01*
X146509409Y-80482962D01*
X146572993Y-80465925D01*
X146687007Y-80400099D01*
X146780099Y-80307007D01*
X146845925Y-80192993D01*
X146862962Y-80129410D01*
X147494925Y-80761373D01*
X147548425Y-80684968D01*
X147603002Y-80641344D01*
X147672501Y-80634151D01*
X147734855Y-80665673D01*
X147751576Y-80684969D01*
X147805073Y-80761372D01*
X148437037Y-80129409D01*
X148454075Y-80192993D01*
G37*
%TD.AperFunction*%
%TA.AperFunction,Conductor*%
G36*
X152579341Y-80765789D02*
G01*
X152631191Y-80776209D01*
X152681375Y-80824823D01*
X152691205Y-80846966D01*
X152715186Y-80919334D01*
X152807288Y-81068656D01*
X152931344Y-81192712D01*
X153080666Y-81284814D01*
X153089264Y-81287663D01*
X153146707Y-81327433D01*
X153173531Y-81391948D01*
X153161217Y-81460724D01*
X153132234Y-81497483D01*
X153132427Y-81497676D01*
X153130798Y-81499304D01*
X153129975Y-81500349D01*
X153128599Y-81501503D01*
X152961505Y-81668597D01*
X152831269Y-81854595D01*
X152776692Y-81898220D01*
X152707194Y-81905414D01*
X152644839Y-81873891D01*
X152628119Y-81854595D01*
X152574925Y-81778626D01*
X152574925Y-81778625D01*
X151942962Y-82410589D01*
X151925925Y-82347007D01*
X151860099Y-82232993D01*
X151767007Y-82139901D01*
X151652993Y-82074075D01*
X151589410Y-82057037D01*
X152221373Y-81425073D01*
X152144969Y-81371576D01*
X152101344Y-81316999D01*
X152094150Y-81247501D01*
X152125672Y-81185146D01*
X152144968Y-81168425D01*
X152221373Y-81114925D01*
X151589409Y-80482962D01*
X151652993Y-80465925D01*
X151767007Y-80400099D01*
X151860099Y-80307007D01*
X151925925Y-80192993D01*
X151942962Y-80129410D01*
X152579341Y-80765789D01*
G37*
%TD.AperFunction*%
%TA.AperFunction,Conductor*%
G36*
X161004418Y-76500816D02*
G01*
X161204561Y-76515130D01*
X161222063Y-76517647D01*
X161413797Y-76559355D01*
X161430755Y-76564334D01*
X161614609Y-76632909D01*
X161630701Y-76640259D01*
X161802904Y-76734288D01*
X161817784Y-76743849D01*
X161974867Y-76861441D01*
X161988237Y-76873027D01*
X162126972Y-77011762D01*
X162138558Y-77025132D01*
X162256146Y-77182210D01*
X162265711Y-77197095D01*
X162359740Y-77369298D01*
X162367090Y-77385390D01*
X162435662Y-77569236D01*
X162440646Y-77586212D01*
X162482351Y-77777931D01*
X162484869Y-77795442D01*
X162499184Y-77995580D01*
X162499500Y-78004427D01*
X162499500Y-105582582D01*
X162479815Y-105649621D01*
X162427011Y-105695376D01*
X162362247Y-105705871D01*
X162302985Y-105699500D01*
X162302976Y-105699500D01*
X160607241Y-105699500D01*
X160607235Y-105699501D01*
X160547628Y-105705908D01*
X160412783Y-105756202D01*
X160412776Y-105756206D01*
X160297569Y-105842451D01*
X160297564Y-105842456D01*
X160290757Y-105851549D01*
X160234822Y-105893418D01*
X160165130Y-105898400D01*
X160120372Y-105878812D01*
X160107597Y-105869868D01*
X160107593Y-105869865D01*
X159901438Y-105773734D01*
X159901429Y-105773730D01*
X159681722Y-105714860D01*
X159681711Y-105714858D01*
X159455114Y-105695034D01*
X159455110Y-105695034D01*
X159228512Y-105714858D01*
X159228501Y-105714860D01*
X159008794Y-105773730D01*
X159008785Y-105773734D01*
X158802628Y-105869866D01*
X158802624Y-105869868D01*
X158729638Y-105920973D01*
X158729638Y-105920974D01*
X159408665Y-106600000D01*
X159402451Y-106600000D01*
X159300718Y-106627259D01*
X159209506Y-106679920D01*
X159135032Y-106754394D01*
X159082371Y-106845606D01*
X159055112Y-106947339D01*
X159055112Y-106953552D01*
X158376086Y-106274526D01*
X158376085Y-106274526D01*
X158324980Y-106347512D01*
X158324978Y-106347516D01*
X158228846Y-106553673D01*
X158228842Y-106553682D01*
X158169972Y-106773389D01*
X158169970Y-106773400D01*
X158150146Y-106999997D01*
X158150146Y-107000002D01*
X158169970Y-107226599D01*
X158169972Y-107226610D01*
X158228842Y-107446317D01*
X158228847Y-107446331D01*
X158324975Y-107652478D01*
X158376086Y-107725472D01*
X159055112Y-107046446D01*
X159055112Y-107052661D01*
X159082371Y-107154394D01*
X159135032Y-107245606D01*
X159209506Y-107320080D01*
X159300718Y-107372741D01*
X159402451Y-107400000D01*
X159408663Y-107400000D01*
X158729638Y-108079025D01*
X158802625Y-108130132D01*
X158802633Y-108130136D01*
X159008780Y-108226264D01*
X159008794Y-108226269D01*
X159228501Y-108285139D01*
X159228512Y-108285141D01*
X159455110Y-108304966D01*
X159455114Y-108304966D01*
X159681711Y-108285141D01*
X159681722Y-108285139D01*
X159901429Y-108226269D01*
X159901438Y-108226265D01*
X160107593Y-108130134D01*
X160120365Y-108121191D01*
X160186571Y-108098862D01*
X160254339Y-108115870D01*
X160290756Y-108148449D01*
X160297566Y-108157546D01*
X160343755Y-108192123D01*
X160412776Y-108243793D01*
X160412783Y-108243797D01*
X160547629Y-108294091D01*
X160547628Y-108294091D01*
X160554556Y-108294835D01*
X160607239Y-108300500D01*
X162302984Y-108300499D01*
X162362247Y-108294128D01*
X162431005Y-108306534D01*
X162482142Y-108354145D01*
X162499500Y-108417418D01*
X162499500Y-109995572D01*
X162499184Y-110004419D01*
X162484869Y-110204557D01*
X162482351Y-110222068D01*
X162440646Y-110413787D01*
X162435662Y-110430763D01*
X162367090Y-110614609D01*
X162359740Y-110630701D01*
X162265711Y-110802904D01*
X162256146Y-110817789D01*
X162138558Y-110974867D01*
X162126972Y-110988237D01*
X161988237Y-111126972D01*
X161974867Y-111138558D01*
X161817789Y-111256146D01*
X161802904Y-111265711D01*
X161630701Y-111359740D01*
X161614609Y-111367090D01*
X161430763Y-111435662D01*
X161413787Y-111440646D01*
X161222068Y-111482351D01*
X161204557Y-111484869D01*
X161023779Y-111497799D01*
X161004417Y-111499184D01*
X160995572Y-111499500D01*
X155054835Y-111499500D01*
X154997330Y-111482614D01*
X154972244Y-111496507D01*
X154945165Y-111499500D01*
X141914835Y-111499500D01*
X141857330Y-111482614D01*
X141832244Y-111496507D01*
X141805165Y-111499500D01*
X137004428Y-111499500D01*
X136995582Y-111499184D01*
X136973622Y-111497613D01*
X136795442Y-111484869D01*
X136777931Y-111482351D01*
X136586212Y-111440646D01*
X136569236Y-111435662D01*
X136385390Y-111367090D01*
X136369298Y-111359740D01*
X136197095Y-111265711D01*
X136182210Y-111256146D01*
X136025132Y-111138558D01*
X136011762Y-111126972D01*
X135873027Y-110988237D01*
X135861441Y-110974867D01*
X135844878Y-110952741D01*
X135743849Y-110817784D01*
X135734288Y-110802904D01*
X135640259Y-110630701D01*
X135632909Y-110614609D01*
X135572091Y-110451551D01*
X135564334Y-110430755D01*
X135559355Y-110413797D01*
X135517647Y-110222063D01*
X135515130Y-110204556D01*
X135500816Y-110004418D01*
X135500500Y-109995572D01*
X135500500Y-109000000D01*
X139605172Y-109000000D01*
X139624462Y-109294312D01*
X139624464Y-109294324D01*
X139682001Y-109583584D01*
X139682005Y-109583599D01*
X139776812Y-109862888D01*
X139907258Y-110127406D01*
X139907265Y-110127419D01*
X140071123Y-110372649D01*
X140100405Y-110406040D01*
X140887912Y-109618532D01*
X140982829Y-109749175D01*
X141110825Y-109877171D01*
X141241465Y-109972086D01*
X140453958Y-110759593D01*
X140487350Y-110788876D01*
X140732580Y-110952734D01*
X140732593Y-110952741D01*
X140997111Y-111083187D01*
X141276400Y-111177994D01*
X141276415Y-111177998D01*
X141565675Y-111235535D01*
X141565687Y-111235537D01*
X141813275Y-111251765D01*
X141860431Y-111269034D01*
X141879900Y-111256523D01*
X141906725Y-111251765D01*
X142154312Y-111235537D01*
X142154324Y-111235535D01*
X142443584Y-111177998D01*
X142443599Y-111177994D01*
X142722888Y-111083187D01*
X142987406Y-110952741D01*
X142987419Y-110952734D01*
X143232648Y-110788877D01*
X143266039Y-110759593D01*
X142478533Y-109972086D01*
X142609175Y-109877171D01*
X142737171Y-109749175D01*
X142832086Y-109618533D01*
X143619593Y-110406039D01*
X143648877Y-110372648D01*
X143812734Y-110127419D01*
X143812741Y-110127406D01*
X143943187Y-109862888D01*
X144037994Y-109583599D01*
X144037998Y-109583584D01*
X144095535Y-109294324D01*
X144095537Y-109294312D01*
X144114827Y-109000000D01*
X152745172Y-109000000D01*
X152764462Y-109294312D01*
X152764464Y-109294324D01*
X152822001Y-109583584D01*
X152822005Y-109583599D01*
X152916812Y-109862888D01*
X153047258Y-110127406D01*
X153047265Y-110127419D01*
X153211123Y-110372649D01*
X153240405Y-110406040D01*
X154027912Y-109618532D01*
X154122829Y-109749175D01*
X154250825Y-109877171D01*
X154381465Y-109972086D01*
X153593958Y-110759593D01*
X153627350Y-110788876D01*
X153872580Y-110952734D01*
X153872593Y-110952741D01*
X154137111Y-111083187D01*
X154416400Y-111177994D01*
X154416415Y-111177998D01*
X154705675Y-111235535D01*
X154705687Y-111235537D01*
X154953275Y-111251765D01*
X155000431Y-111269034D01*
X155019900Y-111256523D01*
X155046725Y-111251765D01*
X155294312Y-111235537D01*
X155294324Y-111235535D01*
X155583584Y-111177998D01*
X155583599Y-111177994D01*
X155862888Y-111083187D01*
X156127406Y-110952741D01*
X156127419Y-110952734D01*
X156372648Y-110788877D01*
X156406039Y-110759593D01*
X155618533Y-109972086D01*
X155749175Y-109877171D01*
X155877171Y-109749175D01*
X155972086Y-109618533D01*
X156759593Y-110406039D01*
X156788877Y-110372648D01*
X156952734Y-110127419D01*
X156952741Y-110127406D01*
X157083187Y-109862888D01*
X157177994Y-109583599D01*
X157177998Y-109583584D01*
X157235535Y-109294324D01*
X157235537Y-109294312D01*
X157254827Y-109000000D01*
X157235537Y-108705687D01*
X157235535Y-108705675D01*
X157177998Y-108416415D01*
X157177994Y-108416400D01*
X157083187Y-108137111D01*
X156952741Y-107872593D01*
X156952734Y-107872580D01*
X156788876Y-107627350D01*
X156759593Y-107593958D01*
X155972086Y-108381465D01*
X155877171Y-108250825D01*
X155749175Y-108122829D01*
X155618533Y-108027912D01*
X156406040Y-107240405D01*
X156372649Y-107211123D01*
X156127419Y-107047265D01*
X156127406Y-107047258D01*
X155862888Y-106916812D01*
X155583599Y-106822005D01*
X155583584Y-106822001D01*
X155294324Y-106764464D01*
X155294312Y-106764462D01*
X155000000Y-106745172D01*
X154705687Y-106764462D01*
X154705675Y-106764464D01*
X154416415Y-106822001D01*
X154416400Y-106822005D01*
X154137111Y-106916812D01*
X153872593Y-107047258D01*
X153872580Y-107047265D01*
X153627346Y-107211126D01*
X153627339Y-107211131D01*
X153593959Y-107240403D01*
X153593959Y-107240405D01*
X154381466Y-108027912D01*
X154250825Y-108122829D01*
X154122829Y-108250825D01*
X154027912Y-108381466D01*
X153240405Y-107593959D01*
X153240403Y-107593959D01*
X153211131Y-107627339D01*
X153211126Y-107627346D01*
X153047265Y-107872580D01*
X153047258Y-107872593D01*
X152916812Y-108137111D01*
X152822005Y-108416400D01*
X152822001Y-108416415D01*
X152764464Y-108705675D01*
X152764462Y-108705687D01*
X152745172Y-109000000D01*
X144114827Y-109000000D01*
X144095537Y-108705687D01*
X144095535Y-108705675D01*
X144037998Y-108416415D01*
X144037994Y-108416400D01*
X143943187Y-108137111D01*
X143812741Y-107872593D01*
X143812734Y-107872580D01*
X143648876Y-107627350D01*
X143619593Y-107593958D01*
X142832086Y-108381465D01*
X142737171Y-108250825D01*
X142609175Y-108122829D01*
X142478533Y-108027912D01*
X143266040Y-107240405D01*
X143232649Y-107211123D01*
X142987419Y-107047265D01*
X142987406Y-107047258D01*
X142722888Y-106916812D01*
X142443599Y-106822005D01*
X142443584Y-106822001D01*
X142154324Y-106764464D01*
X142154312Y-106764462D01*
X141860000Y-106745172D01*
X141565687Y-106764462D01*
X141565675Y-106764464D01*
X141276415Y-106822001D01*
X141276400Y-106822005D01*
X140997111Y-106916812D01*
X140732593Y-107047258D01*
X140732580Y-107047265D01*
X140487346Y-107211126D01*
X140487339Y-107211131D01*
X140453959Y-107240403D01*
X140453959Y-107240405D01*
X141241466Y-108027912D01*
X141110825Y-108122829D01*
X140982829Y-108250825D01*
X140887913Y-108381466D01*
X140100405Y-107593959D01*
X140100403Y-107593959D01*
X140071131Y-107627339D01*
X140071126Y-107627346D01*
X139907265Y-107872580D01*
X139907258Y-107872593D01*
X139776812Y-108137111D01*
X139682005Y-108416400D01*
X139682001Y-108416415D01*
X139624464Y-108705675D01*
X139624462Y-108705687D01*
X139605172Y-109000000D01*
X135500500Y-109000000D01*
X135500500Y-105480135D01*
X143667500Y-105480135D01*
X143667500Y-107099870D01*
X143667501Y-107099876D01*
X143673908Y-107159483D01*
X143724202Y-107294328D01*
X143724206Y-107294335D01*
X143810452Y-107409544D01*
X143810455Y-107409547D01*
X143925664Y-107495793D01*
X143925671Y-107495797D01*
X144060517Y-107546091D01*
X144060516Y-107546091D01*
X144067444Y-107546835D01*
X144120127Y-107552500D01*
X145739872Y-107552499D01*
X145799483Y-107546091D01*
X145934331Y-107495796D01*
X146049546Y-107409546D01*
X146135796Y-107294331D01*
X146186091Y-107159483D01*
X146192229Y-107102386D01*
X146218966Y-107037839D01*
X146276358Y-106997991D01*
X146346183Y-106995497D01*
X146406272Y-107031149D01*
X146417093Y-107044522D01*
X146459170Y-107104615D01*
X146459175Y-107104621D01*
X146615378Y-107260824D01*
X146615384Y-107260829D01*
X146796333Y-107387531D01*
X146796335Y-107387532D01*
X146796338Y-107387534D01*
X146996550Y-107480894D01*
X147209932Y-107538070D01*
X147367123Y-107551822D01*
X147429998Y-107557323D01*
X147430000Y-107557323D01*
X147430002Y-107557323D01*
X147485151Y-107552498D01*
X147650068Y-107538070D01*
X147863450Y-107480894D01*
X148063662Y-107387534D01*
X148244620Y-107260826D01*
X148342319Y-107163127D01*
X148403642Y-107129642D01*
X148473334Y-107134626D01*
X148517681Y-107163127D01*
X148615378Y-107260824D01*
X148615384Y-107260829D01*
X148796333Y-107387531D01*
X148796335Y-107387532D01*
X148796338Y-107387534D01*
X148996550Y-107480894D01*
X149209932Y-107538070D01*
X149367123Y-107551822D01*
X149429998Y-107557323D01*
X149430000Y-107557323D01*
X149430002Y-107557323D01*
X149485151Y-107552498D01*
X149650068Y-107538070D01*
X149863450Y-107480894D01*
X150063662Y-107387534D01*
X150244620Y-107260826D01*
X150400826Y-107104620D01*
X150527534Y-106923662D01*
X150567894Y-106837108D01*
X150614066Y-106784669D01*
X150681259Y-106765517D01*
X150748140Y-106785732D01*
X150792658Y-106837109D01*
X150832898Y-106923405D01*
X150832901Y-106923411D01*
X150878258Y-106988187D01*
X150878259Y-106988188D01*
X151479697Y-106386749D01*
X151501349Y-106467553D01*
X151561909Y-106572446D01*
X151647554Y-106658091D01*
X151752447Y-106718651D01*
X151833249Y-106740302D01*
X151231810Y-107341740D01*
X151296590Y-107387099D01*
X151296592Y-107387100D01*
X151496715Y-107480419D01*
X151496729Y-107480424D01*
X151710013Y-107537573D01*
X151710023Y-107537575D01*
X151929999Y-107556821D01*
X151930001Y-107556821D01*
X152149976Y-107537575D01*
X152149986Y-107537573D01*
X152363270Y-107480424D01*
X152363284Y-107480419D01*
X152563407Y-107387100D01*
X152563417Y-107387094D01*
X152628188Y-107341741D01*
X152026750Y-106740302D01*
X152107553Y-106718651D01*
X152212446Y-106658091D01*
X152298091Y-106572446D01*
X152358651Y-106467553D01*
X152380302Y-106386749D01*
X152981741Y-106988188D01*
X153027094Y-106923417D01*
X153027100Y-106923407D01*
X153120419Y-106723284D01*
X153120424Y-106723270D01*
X153177573Y-106509986D01*
X153177575Y-106509976D01*
X153196821Y-106290000D01*
X153196821Y-106289999D01*
X153177575Y-106070023D01*
X153177573Y-106070013D01*
X153120424Y-105856729D01*
X153120420Y-105856720D01*
X153027096Y-105656586D01*
X152981741Y-105591811D01*
X152981740Y-105591810D01*
X152380302Y-106193249D01*
X152358651Y-106112447D01*
X152298091Y-106007554D01*
X152212446Y-105921909D01*
X152107553Y-105861349D01*
X152026750Y-105839697D01*
X152628188Y-105238259D01*
X152628187Y-105238258D01*
X152563411Y-105192901D01*
X152563405Y-105192898D01*
X152363284Y-105099580D01*
X152363270Y-105099575D01*
X152149986Y-105042426D01*
X152149976Y-105042424D01*
X151930001Y-105023179D01*
X151929999Y-105023179D01*
X151710023Y-105042424D01*
X151710013Y-105042426D01*
X151496729Y-105099575D01*
X151496720Y-105099579D01*
X151296590Y-105192901D01*
X151231811Y-105238258D01*
X151833250Y-105839697D01*
X151752447Y-105861349D01*
X151647554Y-105921909D01*
X151561909Y-106007554D01*
X151501349Y-106112447D01*
X151479697Y-106193250D01*
X150878258Y-105591811D01*
X150832901Y-105656590D01*
X150792658Y-105742891D01*
X150746485Y-105795330D01*
X150679292Y-105814482D01*
X150612411Y-105794266D01*
X150567894Y-105742891D01*
X150550648Y-105705908D01*
X150527534Y-105656339D01*
X150414244Y-105494543D01*
X150400827Y-105475381D01*
X150342318Y-105416872D01*
X150244620Y-105319174D01*
X150244616Y-105319171D01*
X150244615Y-105319170D01*
X150063666Y-105192468D01*
X150063662Y-105192466D01*
X150016457Y-105170454D01*
X149863450Y-105099106D01*
X149863447Y-105099105D01*
X149863445Y-105099104D01*
X149650070Y-105041930D01*
X149650062Y-105041929D01*
X149430002Y-105022677D01*
X149429998Y-105022677D01*
X149209937Y-105041929D01*
X149209929Y-105041930D01*
X148996554Y-105099104D01*
X148996548Y-105099107D01*
X148796340Y-105192465D01*
X148796338Y-105192466D01*
X148615381Y-105319172D01*
X148517680Y-105416873D01*
X148456356Y-105450357D01*
X148386665Y-105445373D01*
X148342318Y-105416872D01*
X148244621Y-105319175D01*
X148244615Y-105319170D01*
X148063666Y-105192468D01*
X148063662Y-105192466D01*
X148016457Y-105170454D01*
X147863450Y-105099106D01*
X147863447Y-105099105D01*
X147863445Y-105099104D01*
X147650070Y-105041930D01*
X147650062Y-105041929D01*
X147430002Y-105022677D01*
X147429998Y-105022677D01*
X147209937Y-105041929D01*
X147209929Y-105041930D01*
X146996554Y-105099104D01*
X146996548Y-105099107D01*
X146796340Y-105192465D01*
X146796338Y-105192466D01*
X146615377Y-105319175D01*
X146459177Y-105475375D01*
X146417093Y-105535478D01*
X146362516Y-105579102D01*
X146293017Y-105586295D01*
X146230663Y-105554773D01*
X146195249Y-105494543D01*
X146192228Y-105477607D01*
X146186091Y-105420516D01*
X146135797Y-105285671D01*
X146135793Y-105285664D01*
X146049547Y-105170455D01*
X146049544Y-105170452D01*
X145934335Y-105084206D01*
X145934328Y-105084202D01*
X145799482Y-105033908D01*
X145799483Y-105033908D01*
X145739883Y-105027501D01*
X145739881Y-105027500D01*
X145739873Y-105027500D01*
X145739864Y-105027500D01*
X144120129Y-105027500D01*
X144120123Y-105027501D01*
X144060516Y-105033908D01*
X143925671Y-105084202D01*
X143925664Y-105084206D01*
X143810455Y-105170452D01*
X143810452Y-105170455D01*
X143724206Y-105285664D01*
X143724202Y-105285671D01*
X143673908Y-105420517D01*
X143667501Y-105480116D01*
X143667500Y-105480135D01*
X135500500Y-105480135D01*
X135500500Y-98818555D01*
X138709200Y-98818555D01*
X138709200Y-99466400D01*
X139626188Y-99466400D01*
X139593275Y-99523407D01*
X139559200Y-99650574D01*
X139559200Y-99782226D01*
X139593275Y-99909393D01*
X139626188Y-99966400D01*
X138709200Y-99966400D01*
X138709200Y-100614244D01*
X138715601Y-100673772D01*
X138715603Y-100673779D01*
X138765845Y-100808486D01*
X138765849Y-100808493D01*
X138852009Y-100923587D01*
X138852012Y-100923590D01*
X138967106Y-101009750D01*
X138967113Y-101009754D01*
X139101820Y-101059996D01*
X139101827Y-101059998D01*
X139161355Y-101066399D01*
X139161372Y-101066400D01*
X139329055Y-101066400D01*
X139396094Y-101086085D01*
X139441849Y-101138889D01*
X139451793Y-101208047D01*
X139422768Y-101271603D01*
X139400178Y-101291975D01*
X139228926Y-101411886D01*
X139228920Y-101411891D01*
X139061891Y-101578920D01*
X139061886Y-101578926D01*
X138926400Y-101772420D01*
X138926399Y-101772422D01*
X138826570Y-101986507D01*
X138826567Y-101986513D01*
X138769364Y-102199999D01*
X138769364Y-102200000D01*
X139666988Y-102200000D01*
X139634075Y-102257007D01*
X139600000Y-102384174D01*
X139600000Y-102515826D01*
X139634075Y-102642993D01*
X139666988Y-102700000D01*
X138769364Y-102700000D01*
X138826567Y-102913486D01*
X138826570Y-102913492D01*
X138926399Y-103127578D01*
X139061894Y-103321082D01*
X139228917Y-103488105D01*
X139422421Y-103623600D01*
X139636507Y-103723429D01*
X139636516Y-103723433D01*
X139850000Y-103780634D01*
X139850000Y-102883012D01*
X139907007Y-102915925D01*
X140034174Y-102950000D01*
X140165826Y-102950000D01*
X140292993Y-102915925D01*
X140350000Y-102883012D01*
X140350000Y-103780633D01*
X140563483Y-103723433D01*
X140563492Y-103723429D01*
X140777578Y-103623600D01*
X140971082Y-103488105D01*
X141138105Y-103321082D01*
X141273600Y-103127578D01*
X141373429Y-102913492D01*
X141373432Y-102913486D01*
X141430636Y-102700000D01*
X140533012Y-102700000D01*
X140565925Y-102642993D01*
X140600000Y-102515826D01*
X140600000Y-102384174D01*
X140565925Y-102257007D01*
X140533012Y-102200000D01*
X141430636Y-102200000D01*
X141430635Y-102199999D01*
X141373432Y-101986513D01*
X141373429Y-101986507D01*
X141359016Y-101955599D01*
X156914964Y-101955599D01*
X156914964Y-101955600D01*
X157812588Y-101955600D01*
X157779675Y-102012607D01*
X157745600Y-102139774D01*
X157745600Y-102271426D01*
X157779675Y-102398593D01*
X157812588Y-102455600D01*
X156914964Y-102455600D01*
X156972167Y-102669086D01*
X156972170Y-102669092D01*
X157071999Y-102883178D01*
X157207494Y-103076682D01*
X157374517Y-103243705D01*
X157568021Y-103379200D01*
X157782107Y-103479029D01*
X157782116Y-103479033D01*
X157995600Y-103536234D01*
X157995600Y-102638612D01*
X158052607Y-102671525D01*
X158179774Y-102705600D01*
X158311426Y-102705600D01*
X158438593Y-102671525D01*
X158495600Y-102638612D01*
X158495600Y-103536233D01*
X158709083Y-103479033D01*
X158709092Y-103479029D01*
X158923178Y-103379200D01*
X159116682Y-103243705D01*
X159283705Y-103076682D01*
X159419200Y-102883178D01*
X159519029Y-102669092D01*
X159519032Y-102669086D01*
X159576236Y-102455600D01*
X158678612Y-102455600D01*
X158711525Y-102398593D01*
X158745600Y-102271426D01*
X158745600Y-102139774D01*
X158711525Y-102012607D01*
X158678612Y-101955600D01*
X159576236Y-101955600D01*
X159576235Y-101955599D01*
X159519032Y-101742113D01*
X159519029Y-101742107D01*
X159419200Y-101528022D01*
X159419199Y-101528020D01*
X159283713Y-101334526D01*
X159283708Y-101334520D01*
X159116678Y-101167490D01*
X159111922Y-101164160D01*
X159068297Y-101109583D01*
X159061105Y-101040085D01*
X159092628Y-100977730D01*
X159152858Y-100942317D01*
X159169790Y-100939297D01*
X159228373Y-100932998D01*
X159228379Y-100932996D01*
X159363086Y-100882754D01*
X159363093Y-100882750D01*
X159478187Y-100796590D01*
X159478190Y-100796587D01*
X159564350Y-100681493D01*
X159564354Y-100681486D01*
X159614596Y-100546779D01*
X159614598Y-100546772D01*
X159620999Y-100487244D01*
X159621000Y-100487227D01*
X159621000Y-99839400D01*
X158704012Y-99839400D01*
X158736925Y-99782393D01*
X158771000Y-99655226D01*
X158771000Y-99523574D01*
X158736925Y-99396407D01*
X158704012Y-99339400D01*
X159621000Y-99339400D01*
X159621000Y-98691572D01*
X159620999Y-98691555D01*
X159614598Y-98632027D01*
X159614596Y-98632020D01*
X159564354Y-98497313D01*
X159564350Y-98497306D01*
X159478190Y-98382212D01*
X159478187Y-98382209D01*
X159363093Y-98296049D01*
X159363086Y-98296045D01*
X159228379Y-98245803D01*
X159228372Y-98245801D01*
X159168844Y-98239400D01*
X158521000Y-98239400D01*
X158521000Y-99156388D01*
X158463993Y-99123475D01*
X158336826Y-99089400D01*
X158205174Y-99089400D01*
X158078007Y-99123475D01*
X158021000Y-99156388D01*
X158021000Y-98239400D01*
X157373155Y-98239400D01*
X157313627Y-98245801D01*
X157313620Y-98245803D01*
X157178913Y-98296045D01*
X157178906Y-98296049D01*
X157063812Y-98382209D01*
X157063809Y-98382212D01*
X156977649Y-98497306D01*
X156977645Y-98497313D01*
X156927403Y-98632020D01*
X156927401Y-98632027D01*
X156921000Y-98691555D01*
X156921000Y-99339400D01*
X157837988Y-99339400D01*
X157805075Y-99396407D01*
X157771000Y-99523574D01*
X157771000Y-99655226D01*
X157805075Y-99782393D01*
X157837988Y-99839400D01*
X156921000Y-99839400D01*
X156921000Y-100487244D01*
X156927401Y-100546772D01*
X156927403Y-100546779D01*
X156977645Y-100681486D01*
X156977649Y-100681493D01*
X157063809Y-100796587D01*
X157063812Y-100796590D01*
X157178906Y-100882750D01*
X157178913Y-100882754D01*
X157313620Y-100932996D01*
X157313626Y-100932998D01*
X157328170Y-100934562D01*
X157392721Y-100961300D01*
X157432569Y-101018693D01*
X157435062Y-101088518D01*
X157399409Y-101148606D01*
X157386040Y-101159424D01*
X157374527Y-101167485D01*
X157374520Y-101167491D01*
X157207491Y-101334520D01*
X157207486Y-101334526D01*
X157072000Y-101528020D01*
X157071999Y-101528022D01*
X156972170Y-101742107D01*
X156972167Y-101742113D01*
X156914964Y-101955599D01*
X141359016Y-101955599D01*
X141273600Y-101772422D01*
X141273599Y-101772420D01*
X141138113Y-101578926D01*
X141138108Y-101578920D01*
X140971078Y-101411890D01*
X140799822Y-101291974D01*
X140756197Y-101237397D01*
X140749005Y-101167899D01*
X140780527Y-101105544D01*
X140840758Y-101070131D01*
X140870946Y-101066400D01*
X140957028Y-101066400D01*
X140957044Y-101066399D01*
X141016572Y-101059998D01*
X141016579Y-101059996D01*
X141151286Y-101009754D01*
X141151293Y-101009750D01*
X141266387Y-100923590D01*
X141266390Y-100923587D01*
X141352550Y-100808493D01*
X141352554Y-100808486D01*
X141402796Y-100673779D01*
X141402798Y-100673772D01*
X141409199Y-100614244D01*
X141409200Y-100614227D01*
X141409200Y-99966400D01*
X140492212Y-99966400D01*
X140525125Y-99909393D01*
X140559200Y-99782226D01*
X140559200Y-99650574D01*
X140525125Y-99523407D01*
X140492212Y-99466400D01*
X141409200Y-99466400D01*
X141409200Y-98818572D01*
X141409199Y-98818555D01*
X141402798Y-98759027D01*
X141402796Y-98759020D01*
X141352554Y-98624313D01*
X141352550Y-98624306D01*
X141266390Y-98509212D01*
X141266387Y-98509209D01*
X141151293Y-98423049D01*
X141151286Y-98423045D01*
X141016579Y-98372803D01*
X141016572Y-98372801D01*
X140957044Y-98366400D01*
X140309200Y-98366400D01*
X140309200Y-99283388D01*
X140252193Y-99250475D01*
X140125026Y-99216400D01*
X139993374Y-99216400D01*
X139866207Y-99250475D01*
X139809200Y-99283388D01*
X139809200Y-98366400D01*
X139161355Y-98366400D01*
X139101827Y-98372801D01*
X139101820Y-98372803D01*
X138967113Y-98423045D01*
X138967106Y-98423049D01*
X138852012Y-98509209D01*
X138852009Y-98509212D01*
X138765849Y-98624306D01*
X138765845Y-98624313D01*
X138715603Y-98759020D01*
X138715601Y-98759027D01*
X138709200Y-98818555D01*
X135500500Y-98818555D01*
X135500500Y-91359799D01*
X138500341Y-91359799D01*
X138500341Y-91359800D01*
X138520936Y-91595203D01*
X138520938Y-91595213D01*
X138582094Y-91823455D01*
X138582096Y-91823459D01*
X138582097Y-91823463D01*
X138653787Y-91977202D01*
X138681965Y-92037630D01*
X138681967Y-92037634D01*
X138756655Y-92144298D01*
X138817505Y-92231201D01*
X138984599Y-92398295D01*
X139081384Y-92466065D01*
X139178165Y-92533832D01*
X139178167Y-92533833D01*
X139178170Y-92533835D01*
X139392337Y-92633703D01*
X139620592Y-92694863D01*
X139808918Y-92711339D01*
X139855999Y-92715459D01*
X139856000Y-92715459D01*
X139856001Y-92715459D01*
X139895234Y-92712026D01*
X140091408Y-92694863D01*
X140319663Y-92633703D01*
X140533830Y-92533835D01*
X140727401Y-92398295D01*
X140894495Y-92231201D01*
X141030035Y-92037630D01*
X141129903Y-91823463D01*
X141191063Y-91595208D01*
X141211659Y-91359800D01*
X141191063Y-91124392D01*
X141186081Y-91105799D01*
X156839141Y-91105799D01*
X156839141Y-91105800D01*
X156859736Y-91341203D01*
X156859738Y-91341213D01*
X156920894Y-91569455D01*
X156920896Y-91569459D01*
X156920897Y-91569463D01*
X157020765Y-91783630D01*
X157020767Y-91783634D01*
X157129081Y-91938321D01*
X157156305Y-91977201D01*
X157323399Y-92144295D01*
X157420184Y-92212065D01*
X157516965Y-92279832D01*
X157516967Y-92279833D01*
X157516970Y-92279835D01*
X157731137Y-92379703D01*
X157959392Y-92440863D01*
X158147718Y-92457339D01*
X158194799Y-92461459D01*
X158194800Y-92461459D01*
X158194801Y-92461459D01*
X158234034Y-92458026D01*
X158430208Y-92440863D01*
X158658463Y-92379703D01*
X158872630Y-92279835D01*
X159066201Y-92144295D01*
X159233295Y-91977201D01*
X159368835Y-91783630D01*
X159468703Y-91569463D01*
X159529863Y-91341208D01*
X159550459Y-91105800D01*
X159529863Y-90870392D01*
X159468703Y-90642137D01*
X159368835Y-90427971D01*
X159294145Y-90321301D01*
X159233294Y-90234397D01*
X159066202Y-90067306D01*
X159066196Y-90067301D01*
X158955047Y-89989474D01*
X158911422Y-89934897D01*
X158904228Y-89865399D01*
X158935751Y-89803044D01*
X158995981Y-89767630D01*
X159026170Y-89763899D01*
X159092671Y-89763899D01*
X159092672Y-89763899D01*
X159152283Y-89757491D01*
X159287131Y-89707196D01*
X159402346Y-89620946D01*
X159488596Y-89505731D01*
X159538891Y-89370883D01*
X159545300Y-89311273D01*
X159545299Y-87515528D01*
X159538891Y-87455917D01*
X159488596Y-87321069D01*
X159488595Y-87321068D01*
X159488593Y-87321064D01*
X159402347Y-87205855D01*
X159402344Y-87205852D01*
X159287135Y-87119606D01*
X159287128Y-87119602D01*
X159152282Y-87069308D01*
X159152283Y-87069308D01*
X159092683Y-87062901D01*
X159092681Y-87062900D01*
X159092673Y-87062900D01*
X159092664Y-87062900D01*
X157296929Y-87062900D01*
X157296923Y-87062901D01*
X157237316Y-87069308D01*
X157102471Y-87119602D01*
X157102464Y-87119606D01*
X156987255Y-87205852D01*
X156987252Y-87205855D01*
X156901006Y-87321064D01*
X156901002Y-87321071D01*
X156850708Y-87455917D01*
X156844301Y-87515516D01*
X156844301Y-87515523D01*
X156844300Y-87515535D01*
X156844300Y-89311270D01*
X156844301Y-89311276D01*
X156850708Y-89370883D01*
X156901002Y-89505728D01*
X156901006Y-89505735D01*
X156987252Y-89620944D01*
X156987255Y-89620947D01*
X157102464Y-89707193D01*
X157102471Y-89707197D01*
X157147418Y-89723961D01*
X157237317Y-89757491D01*
X157296927Y-89763900D01*
X157363429Y-89763899D01*
X157430466Y-89783583D01*
X157476222Y-89836386D01*
X157486166Y-89905544D01*
X157457142Y-89969100D01*
X157434552Y-89989473D01*
X157323398Y-90067304D01*
X157156305Y-90234397D01*
X157020765Y-90427969D01*
X157020764Y-90427971D01*
X156920898Y-90642135D01*
X156920894Y-90642144D01*
X156859738Y-90870386D01*
X156859736Y-90870396D01*
X156839141Y-91105799D01*
X141186081Y-91105799D01*
X141129903Y-90896137D01*
X141030035Y-90681971D01*
X140894495Y-90488399D01*
X140894494Y-90488397D01*
X140727402Y-90321306D01*
X140727395Y-90321301D01*
X140533834Y-90185767D01*
X140533830Y-90185765D01*
X140533821Y-90185761D01*
X140517350Y-90178080D01*
X140464912Y-90131909D01*
X140445760Y-90064715D01*
X140465976Y-89997834D01*
X140519141Y-89952500D01*
X140569755Y-89941699D01*
X140804672Y-89941699D01*
X140864283Y-89935291D01*
X140999131Y-89884996D01*
X141114346Y-89798746D01*
X141200596Y-89683531D01*
X141250891Y-89548683D01*
X141257300Y-89489073D01*
X141257299Y-87693328D01*
X141250891Y-87633717D01*
X141206809Y-87515528D01*
X141200597Y-87498871D01*
X141200593Y-87498864D01*
X141114347Y-87383655D01*
X141114344Y-87383652D01*
X140999135Y-87297406D01*
X140999128Y-87297402D01*
X140864282Y-87247108D01*
X140864283Y-87247108D01*
X140804683Y-87240701D01*
X140804681Y-87240700D01*
X140804673Y-87240700D01*
X140804664Y-87240700D01*
X139008929Y-87240700D01*
X139008923Y-87240701D01*
X138949316Y-87247108D01*
X138814471Y-87297402D01*
X138814464Y-87297406D01*
X138699255Y-87383652D01*
X138699252Y-87383655D01*
X138613006Y-87498864D01*
X138613002Y-87498871D01*
X138562708Y-87633717D01*
X138556301Y-87693316D01*
X138556301Y-87693323D01*
X138556300Y-87693335D01*
X138556300Y-89489070D01*
X138556301Y-89489076D01*
X138562708Y-89548683D01*
X138613002Y-89683528D01*
X138613006Y-89683535D01*
X138699252Y-89798744D01*
X138699255Y-89798747D01*
X138814464Y-89884993D01*
X138814471Y-89884997D01*
X138949317Y-89935291D01*
X138949316Y-89935291D01*
X138956244Y-89936035D01*
X139008927Y-89941700D01*
X139142243Y-89941699D01*
X139209280Y-89961383D01*
X139255035Y-90014187D01*
X139264979Y-90083345D01*
X139235955Y-90146901D01*
X139194652Y-90178078D01*
X139178176Y-90185761D01*
X139178169Y-90185765D01*
X138984597Y-90321305D01*
X138817505Y-90488397D01*
X138681965Y-90681969D01*
X138681964Y-90681971D01*
X138582098Y-90896135D01*
X138582094Y-90896144D01*
X138520938Y-91124386D01*
X138520936Y-91124396D01*
X138500341Y-91359799D01*
X135500500Y-91359799D01*
X135500500Y-79999999D01*
X142484341Y-79999999D01*
X142484341Y-80000000D01*
X142504936Y-80235403D01*
X142504938Y-80235413D01*
X142566094Y-80463655D01*
X142566096Y-80463659D01*
X142566097Y-80463663D01*
X142645597Y-80634151D01*
X142665965Y-80677830D01*
X142665967Y-80677834D01*
X142768891Y-80824823D01*
X142801501Y-80871396D01*
X142801506Y-80871402D01*
X142968597Y-81038493D01*
X142968603Y-81038498D01*
X143154158Y-81168425D01*
X143197783Y-81223002D01*
X143204977Y-81292500D01*
X143173454Y-81354855D01*
X143154158Y-81371575D01*
X142968597Y-81501505D01*
X142801505Y-81668597D01*
X142665965Y-81862169D01*
X142665964Y-81862171D01*
X142566098Y-82076335D01*
X142566094Y-82076344D01*
X142504938Y-82304586D01*
X142504936Y-82304596D01*
X142484341Y-82539999D01*
X142484341Y-82540000D01*
X142504936Y-82775403D01*
X142504938Y-82775413D01*
X142566094Y-83003655D01*
X142566096Y-83003659D01*
X142566097Y-83003663D01*
X142645597Y-83174151D01*
X142665965Y-83217830D01*
X142665967Y-83217834D01*
X142724462Y-83301373D01*
X142801505Y-83411401D01*
X142968599Y-83578495D01*
X143065384Y-83646265D01*
X143162165Y-83714032D01*
X143162167Y-83714033D01*
X143162170Y-83714035D01*
X143376337Y-83813903D01*
X143604592Y-83875063D01*
X143792918Y-83891539D01*
X143839999Y-83895659D01*
X143840000Y-83895659D01*
X143840001Y-83895659D01*
X143879234Y-83892226D01*
X144075408Y-83875063D01*
X144303663Y-83813903D01*
X144517830Y-83714035D01*
X144711401Y-83578495D01*
X144878495Y-83411401D01*
X145008732Y-83225403D01*
X145063307Y-83181780D01*
X145132805Y-83174586D01*
X145195160Y-83206109D01*
X145211880Y-83225405D01*
X145265073Y-83301373D01*
X145897037Y-82669409D01*
X145914075Y-82732993D01*
X145979901Y-82847007D01*
X146072993Y-82940099D01*
X146187007Y-83005925D01*
X146250590Y-83022962D01*
X145618625Y-83654925D01*
X145702421Y-83713599D01*
X145916507Y-83813429D01*
X145916516Y-83813433D01*
X146144673Y-83874567D01*
X146144684Y-83874569D01*
X146379998Y-83895157D01*
X146380002Y-83895157D01*
X146615315Y-83874569D01*
X146615326Y-83874567D01*
X146843483Y-83813433D01*
X146843492Y-83813429D01*
X147057578Y-83713600D01*
X147057582Y-83713598D01*
X147141373Y-83654926D01*
X147141373Y-83654925D01*
X146509409Y-83022962D01*
X146572993Y-83005925D01*
X146687007Y-82940099D01*
X146780099Y-82847007D01*
X146845925Y-82732993D01*
X146862962Y-82669410D01*
X147494925Y-83301373D01*
X147548425Y-83224968D01*
X147603002Y-83181344D01*
X147672501Y-83174151D01*
X147734855Y-83205673D01*
X147751576Y-83224969D01*
X147805073Y-83301372D01*
X148437037Y-82669409D01*
X148454075Y-82732993D01*
X148519901Y-82847007D01*
X148612993Y-82940099D01*
X148727007Y-83005925D01*
X148790590Y-83022962D01*
X148158625Y-83654925D01*
X148242421Y-83713599D01*
X148456507Y-83813429D01*
X148456516Y-83813433D01*
X148684673Y-83874567D01*
X148684684Y-83874569D01*
X148919998Y-83895157D01*
X148920002Y-83895157D01*
X149155315Y-83874569D01*
X149155326Y-83874567D01*
X149383483Y-83813433D01*
X149383492Y-83813429D01*
X149597578Y-83713600D01*
X149597582Y-83713598D01*
X149681373Y-83654926D01*
X149681373Y-83654925D01*
X149049409Y-83022962D01*
X149112993Y-83005925D01*
X149227007Y-82940099D01*
X149320099Y-82847007D01*
X149385925Y-82732993D01*
X149402962Y-82669410D01*
X150034925Y-83301373D01*
X150088425Y-83224968D01*
X150143002Y-83181344D01*
X150212501Y-83174151D01*
X150274855Y-83205673D01*
X150291576Y-83224969D01*
X150345073Y-83301372D01*
X150977037Y-82669409D01*
X150994075Y-82732993D01*
X151059901Y-82847007D01*
X151152993Y-82940099D01*
X151267007Y-83005925D01*
X151330590Y-83022962D01*
X150698625Y-83654925D01*
X150782421Y-83713599D01*
X150996507Y-83813429D01*
X150996516Y-83813433D01*
X151224673Y-83874567D01*
X151224684Y-83874569D01*
X151459998Y-83895157D01*
X151460002Y-83895157D01*
X151695315Y-83874569D01*
X151695326Y-83874567D01*
X151923483Y-83813433D01*
X151923492Y-83813429D01*
X152137578Y-83713600D01*
X152137582Y-83713598D01*
X152221373Y-83654926D01*
X152221373Y-83654925D01*
X151589409Y-83022962D01*
X151652993Y-83005925D01*
X151767007Y-82940099D01*
X151860099Y-82847007D01*
X151925925Y-82732993D01*
X151942962Y-82669410D01*
X152574925Y-83301373D01*
X152628119Y-83225405D01*
X152682696Y-83181781D01*
X152752195Y-83174588D01*
X152814549Y-83206110D01*
X152831269Y-83225405D01*
X152961505Y-83411401D01*
X153128599Y-83578495D01*
X153225384Y-83646265D01*
X153322165Y-83714032D01*
X153322167Y-83714033D01*
X153322170Y-83714035D01*
X153536337Y-83813903D01*
X153764592Y-83875063D01*
X153952918Y-83891539D01*
X153999999Y-83895659D01*
X154000000Y-83895659D01*
X154000001Y-83895659D01*
X154039234Y-83892226D01*
X154235408Y-83875063D01*
X154463663Y-83813903D01*
X154677830Y-83714035D01*
X154871401Y-83578495D01*
X155038495Y-83411401D01*
X155174035Y-83217830D01*
X155273903Y-83003663D01*
X155335063Y-82775408D01*
X155355659Y-82540000D01*
X155335063Y-82304592D01*
X155273903Y-82076337D01*
X155174035Y-81862171D01*
X155168731Y-81854595D01*
X155038494Y-81668597D01*
X154871398Y-81501501D01*
X154870030Y-81500354D01*
X154869592Y-81499696D01*
X154867573Y-81497677D01*
X154867978Y-81497271D01*
X154831330Y-81442182D01*
X154830224Y-81372321D01*
X154867063Y-81312952D01*
X154910737Y-81287662D01*
X154919334Y-81284814D01*
X155068656Y-81192712D01*
X155192712Y-81068656D01*
X155284814Y-80919334D01*
X155339999Y-80752797D01*
X155350500Y-80650009D01*
X155350499Y-79349992D01*
X155339999Y-79247203D01*
X155284814Y-79080666D01*
X155192712Y-78931344D01*
X155068656Y-78807288D01*
X154937784Y-78726566D01*
X154919336Y-78715187D01*
X154919331Y-78715185D01*
X154917862Y-78714698D01*
X154752797Y-78660001D01*
X154752795Y-78660000D01*
X154650010Y-78649500D01*
X153349998Y-78649500D01*
X153349981Y-78649501D01*
X153247203Y-78660000D01*
X153247200Y-78660001D01*
X153080668Y-78715185D01*
X153080663Y-78715187D01*
X152931342Y-78807289D01*
X152807289Y-78931342D01*
X152715187Y-79080663D01*
X152715182Y-79080674D01*
X152691205Y-79153032D01*
X152651432Y-79210477D01*
X152586916Y-79237299D01*
X152576138Y-79237412D01*
X151942962Y-79870589D01*
X151925925Y-79807007D01*
X151860099Y-79692993D01*
X151767007Y-79599901D01*
X151652993Y-79534075D01*
X151589410Y-79517037D01*
X152221373Y-78885073D01*
X152221373Y-78885072D01*
X152137583Y-78826402D01*
X152137579Y-78826400D01*
X151923492Y-78726570D01*
X151923483Y-78726566D01*
X151695326Y-78665432D01*
X151695315Y-78665430D01*
X151460002Y-78644843D01*
X151459998Y-78644843D01*
X151224684Y-78665430D01*
X151224673Y-78665432D01*
X150996516Y-78726566D01*
X150996507Y-78726570D01*
X150782419Y-78826401D01*
X150698625Y-78885072D01*
X151330590Y-79517037D01*
X151267007Y-79534075D01*
X151152993Y-79599901D01*
X151059901Y-79692993D01*
X150994075Y-79807007D01*
X150977037Y-79870590D01*
X150345072Y-79238625D01*
X150345072Y-79238626D01*
X150291574Y-79315030D01*
X150236998Y-79358655D01*
X150167499Y-79365849D01*
X150105144Y-79334326D01*
X150088424Y-79315030D01*
X150034925Y-79238626D01*
X150034925Y-79238625D01*
X149402962Y-79870589D01*
X149385925Y-79807007D01*
X149320099Y-79692993D01*
X149227007Y-79599901D01*
X149112993Y-79534075D01*
X149049410Y-79517037D01*
X149681373Y-78885073D01*
X149681373Y-78885072D01*
X149597583Y-78826402D01*
X149597579Y-78826400D01*
X149383492Y-78726570D01*
X149383483Y-78726566D01*
X149155326Y-78665432D01*
X149155315Y-78665430D01*
X148920002Y-78644843D01*
X148919998Y-78644843D01*
X148684684Y-78665430D01*
X148684673Y-78665432D01*
X148456516Y-78726566D01*
X148456507Y-78726570D01*
X148242419Y-78826401D01*
X148158625Y-78885072D01*
X148790590Y-79517037D01*
X148727007Y-79534075D01*
X148612993Y-79599901D01*
X148519901Y-79692993D01*
X148454075Y-79807007D01*
X148437037Y-79870589D01*
X147805073Y-79238625D01*
X147805072Y-79238626D01*
X147751574Y-79315030D01*
X147696998Y-79358655D01*
X147627499Y-79365849D01*
X147565144Y-79334326D01*
X147548424Y-79315030D01*
X147494925Y-79238626D01*
X147494925Y-79238625D01*
X146862962Y-79870589D01*
X146845925Y-79807007D01*
X146780099Y-79692993D01*
X146687007Y-79599901D01*
X146572993Y-79534075D01*
X146509410Y-79517037D01*
X147141373Y-78885073D01*
X147141373Y-78885072D01*
X147057583Y-78826402D01*
X147057579Y-78826400D01*
X146843492Y-78726570D01*
X146843483Y-78726566D01*
X146615326Y-78665432D01*
X146615315Y-78665430D01*
X146380002Y-78644843D01*
X146379998Y-78644843D01*
X146144684Y-78665430D01*
X146144673Y-78665432D01*
X145916516Y-78726566D01*
X145916507Y-78726570D01*
X145702419Y-78826401D01*
X145618625Y-78885072D01*
X146250590Y-79517037D01*
X146187007Y-79534075D01*
X146072993Y-79599901D01*
X145979901Y-79692993D01*
X145914075Y-79807007D01*
X145897037Y-79870590D01*
X145265073Y-79238626D01*
X145211881Y-79314594D01*
X145157304Y-79358219D01*
X145087806Y-79365413D01*
X145025451Y-79333891D01*
X145008730Y-79314594D01*
X144878494Y-79128597D01*
X144711402Y-78961506D01*
X144711395Y-78961501D01*
X144517834Y-78825967D01*
X144517830Y-78825965D01*
X144477777Y-78807288D01*
X144303663Y-78726097D01*
X144303659Y-78726096D01*
X144303655Y-78726094D01*
X144075413Y-78664938D01*
X144075403Y-78664936D01*
X143840001Y-78644341D01*
X143839999Y-78644341D01*
X143604596Y-78664936D01*
X143604586Y-78664938D01*
X143376344Y-78726094D01*
X143376335Y-78726098D01*
X143162171Y-78825964D01*
X143162169Y-78825965D01*
X142968597Y-78961505D01*
X142801505Y-79128597D01*
X142665965Y-79322169D01*
X142665964Y-79322171D01*
X142566098Y-79536335D01*
X142566094Y-79536344D01*
X142504938Y-79764586D01*
X142504936Y-79764596D01*
X142484341Y-79999999D01*
X135500500Y-79999999D01*
X135500500Y-78004427D01*
X135500816Y-77995581D01*
X135515130Y-77795443D01*
X135515131Y-77795442D01*
X135515130Y-77795436D01*
X135517646Y-77777938D01*
X135559356Y-77586199D01*
X135564333Y-77569248D01*
X135632911Y-77385385D01*
X135640259Y-77369298D01*
X135702815Y-77254734D01*
X135734291Y-77197089D01*
X135743845Y-77182221D01*
X135861448Y-77025123D01*
X135873020Y-77011769D01*
X136011769Y-76873020D01*
X136025123Y-76861448D01*
X136182221Y-76743845D01*
X136197089Y-76734291D01*
X136369298Y-76640258D01*
X136385385Y-76632911D01*
X136569248Y-76564333D01*
X136586199Y-76559356D01*
X136777938Y-76517646D01*
X136795436Y-76515130D01*
X136995582Y-76500816D01*
X137004428Y-76500500D01*
X137065892Y-76500500D01*
X160934108Y-76500500D01*
X160995572Y-76500500D01*
X161004418Y-76500816D01*
G37*
%TD.AperFunction*%
%TD*%
M02*
