M48
; DRILL file {KiCad 8.0.5} date 2024-12-20T11:43:54+1300
; FORMAT={-:-/ absolute / metric / decimal}
; #@! TF.CreationDate,2024-12-20T11:43:54+13:00
; #@! TF.GenerationSoftware,Kicad,Pcbnew,8.0.5
; #@! TF.FileFunction,Plated,1,2,PTH
FMAT,2
METRIC
; #@! TA.AperFunction,Plated,PTH,ComponentDrill
T1C0.800
; #@! TA.AperFunction,Plated,PTH,ComponentDrill
T2C0.920
; #@! TA.AperFunction,Plated,PTH,ComponentDrill
T3C1.000
; #@! TA.AperFunction,Plated,PTH,ComponentDrill
T4C2.300
%
G90
G05
T1
X159.455Y-107.0
X161.455Y-107.0
T2
X144.93Y-106.29
X147.43Y-106.29
X149.43Y-106.29
X151.93Y-106.29
T3
X139.856Y-91.36
X139.907Y-88.591
X140.059Y-99.716
X140.1Y-102.45
X143.84Y-80.0
X143.84Y-82.54
X146.38Y-80.0
X146.38Y-82.54
X148.92Y-80.0
X148.92Y-82.54
X151.46Y-80.0
X151.46Y-82.54
X154.0Y-80.0
X154.0Y-82.54
X158.195Y-88.413
X158.195Y-91.106
X158.246Y-102.206
X158.271Y-99.589
T4
X141.86Y-109.0
X155.0Y-109.0
M30
