%TF.GenerationSoftware,KiCad,Pcbnew,8.0.5*%
%TF.CreationDate,2024-12-20T11:43:52+13:00*%
%TF.ProjectId,eurorack_to_usb_MP1584EN,6575726f-7261-4636-9b5f-746f5f757362,rev?*%
%TF.SameCoordinates,Original*%
%TF.FileFunction,Legend,Bot*%
%TF.FilePolarity,Positive*%
%FSLAX46Y46*%
G04 Gerber Fmt 4.6, Leading zero omitted, Abs format (unit mm)*
G04 Created by KiCad (PCBNEW 8.0.5) date 2024-12-20 11:43:52*
%MOMM*%
%LPD*%
G01*
G04 APERTURE LIST*
%ADD10C,0.200000*%
G04 APERTURE END LIST*
D10*
X158249374Y-94099712D02*
X158344612Y-94147331D01*
X158344612Y-94147331D02*
X158535088Y-94147331D01*
X158535088Y-94147331D02*
X158630326Y-94099712D01*
X158630326Y-94099712D02*
X158677945Y-94004473D01*
X158677945Y-94004473D02*
X158677945Y-93623521D01*
X158677945Y-93623521D02*
X158630326Y-93528283D01*
X158630326Y-93528283D02*
X158535088Y-93480664D01*
X158535088Y-93480664D02*
X158344612Y-93480664D01*
X158344612Y-93480664D02*
X158249374Y-93528283D01*
X158249374Y-93528283D02*
X158201755Y-93623521D01*
X158201755Y-93623521D02*
X158201755Y-93718759D01*
X158201755Y-93718759D02*
X158677945Y-93813997D01*
X157344612Y-93480664D02*
X157344612Y-94147331D01*
X157773183Y-93480664D02*
X157773183Y-94004473D01*
X157773183Y-94004473D02*
X157725564Y-94099712D01*
X157725564Y-94099712D02*
X157630326Y-94147331D01*
X157630326Y-94147331D02*
X157487469Y-94147331D01*
X157487469Y-94147331D02*
X157392231Y-94099712D01*
X157392231Y-94099712D02*
X157344612Y-94052092D01*
X156868421Y-94147331D02*
X156868421Y-93480664D01*
X156868421Y-93671140D02*
X156820802Y-93575902D01*
X156820802Y-93575902D02*
X156773183Y-93528283D01*
X156773183Y-93528283D02*
X156677945Y-93480664D01*
X156677945Y-93480664D02*
X156582707Y-93480664D01*
X156106516Y-94147331D02*
X156201754Y-94099712D01*
X156201754Y-94099712D02*
X156249373Y-94052092D01*
X156249373Y-94052092D02*
X156296992Y-93956854D01*
X156296992Y-93956854D02*
X156296992Y-93671140D01*
X156296992Y-93671140D02*
X156249373Y-93575902D01*
X156249373Y-93575902D02*
X156201754Y-93528283D01*
X156201754Y-93528283D02*
X156106516Y-93480664D01*
X156106516Y-93480664D02*
X155963659Y-93480664D01*
X155963659Y-93480664D02*
X155868421Y-93528283D01*
X155868421Y-93528283D02*
X155820802Y-93575902D01*
X155820802Y-93575902D02*
X155773183Y-93671140D01*
X155773183Y-93671140D02*
X155773183Y-93956854D01*
X155773183Y-93956854D02*
X155820802Y-94052092D01*
X155820802Y-94052092D02*
X155868421Y-94099712D01*
X155868421Y-94099712D02*
X155963659Y-94147331D01*
X155963659Y-94147331D02*
X156106516Y-94147331D01*
X155344611Y-94147331D02*
X155344611Y-93480664D01*
X155344611Y-93671140D02*
X155296992Y-93575902D01*
X155296992Y-93575902D02*
X155249373Y-93528283D01*
X155249373Y-93528283D02*
X155154135Y-93480664D01*
X155154135Y-93480664D02*
X155058897Y-93480664D01*
X154296992Y-94147331D02*
X154296992Y-93623521D01*
X154296992Y-93623521D02*
X154344611Y-93528283D01*
X154344611Y-93528283D02*
X154439849Y-93480664D01*
X154439849Y-93480664D02*
X154630325Y-93480664D01*
X154630325Y-93480664D02*
X154725563Y-93528283D01*
X154296992Y-94099712D02*
X154392230Y-94147331D01*
X154392230Y-94147331D02*
X154630325Y-94147331D01*
X154630325Y-94147331D02*
X154725563Y-94099712D01*
X154725563Y-94099712D02*
X154773182Y-94004473D01*
X154773182Y-94004473D02*
X154773182Y-93909235D01*
X154773182Y-93909235D02*
X154725563Y-93813997D01*
X154725563Y-93813997D02*
X154630325Y-93766378D01*
X154630325Y-93766378D02*
X154392230Y-93766378D01*
X154392230Y-93766378D02*
X154296992Y-93718759D01*
X153392230Y-94099712D02*
X153487468Y-94147331D01*
X153487468Y-94147331D02*
X153677944Y-94147331D01*
X153677944Y-94147331D02*
X153773182Y-94099712D01*
X153773182Y-94099712D02*
X153820801Y-94052092D01*
X153820801Y-94052092D02*
X153868420Y-93956854D01*
X153868420Y-93956854D02*
X153868420Y-93671140D01*
X153868420Y-93671140D02*
X153820801Y-93575902D01*
X153820801Y-93575902D02*
X153773182Y-93528283D01*
X153773182Y-93528283D02*
X153677944Y-93480664D01*
X153677944Y-93480664D02*
X153487468Y-93480664D01*
X153487468Y-93480664D02*
X153392230Y-93528283D01*
X152963658Y-94147331D02*
X152963658Y-93147331D01*
X152868420Y-93766378D02*
X152582706Y-94147331D01*
X152582706Y-93480664D02*
X152963658Y-93861616D01*
X152392230Y-94242569D02*
X151630325Y-94242569D01*
X151535086Y-93480664D02*
X151154134Y-93480664D01*
X151392229Y-93147331D02*
X151392229Y-94004473D01*
X151392229Y-94004473D02*
X151344610Y-94099712D01*
X151344610Y-94099712D02*
X151249372Y-94147331D01*
X151249372Y-94147331D02*
X151154134Y-94147331D01*
X150677943Y-94147331D02*
X150773181Y-94099712D01*
X150773181Y-94099712D02*
X150820800Y-94052092D01*
X150820800Y-94052092D02*
X150868419Y-93956854D01*
X150868419Y-93956854D02*
X150868419Y-93671140D01*
X150868419Y-93671140D02*
X150820800Y-93575902D01*
X150820800Y-93575902D02*
X150773181Y-93528283D01*
X150773181Y-93528283D02*
X150677943Y-93480664D01*
X150677943Y-93480664D02*
X150535086Y-93480664D01*
X150535086Y-93480664D02*
X150439848Y-93528283D01*
X150439848Y-93528283D02*
X150392229Y-93575902D01*
X150392229Y-93575902D02*
X150344610Y-93671140D01*
X150344610Y-93671140D02*
X150344610Y-93956854D01*
X150344610Y-93956854D02*
X150392229Y-94052092D01*
X150392229Y-94052092D02*
X150439848Y-94099712D01*
X150439848Y-94099712D02*
X150535086Y-94147331D01*
X150535086Y-94147331D02*
X150677943Y-94147331D01*
X150154134Y-94242569D02*
X149392229Y-94242569D01*
X148725562Y-93480664D02*
X148725562Y-94147331D01*
X149154133Y-93480664D02*
X149154133Y-94004473D01*
X149154133Y-94004473D02*
X149106514Y-94099712D01*
X149106514Y-94099712D02*
X149011276Y-94147331D01*
X149011276Y-94147331D02*
X148868419Y-94147331D01*
X148868419Y-94147331D02*
X148773181Y-94099712D01*
X148773181Y-94099712D02*
X148725562Y-94052092D01*
X148296990Y-94099712D02*
X148201752Y-94147331D01*
X148201752Y-94147331D02*
X148011276Y-94147331D01*
X148011276Y-94147331D02*
X147916038Y-94099712D01*
X147916038Y-94099712D02*
X147868419Y-94004473D01*
X147868419Y-94004473D02*
X147868419Y-93956854D01*
X147868419Y-93956854D02*
X147916038Y-93861616D01*
X147916038Y-93861616D02*
X148011276Y-93813997D01*
X148011276Y-93813997D02*
X148154133Y-93813997D01*
X148154133Y-93813997D02*
X148249371Y-93766378D01*
X148249371Y-93766378D02*
X148296990Y-93671140D01*
X148296990Y-93671140D02*
X148296990Y-93623521D01*
X148296990Y-93623521D02*
X148249371Y-93528283D01*
X148249371Y-93528283D02*
X148154133Y-93480664D01*
X148154133Y-93480664D02*
X148011276Y-93480664D01*
X148011276Y-93480664D02*
X147916038Y-93528283D01*
X147439847Y-94147331D02*
X147439847Y-93147331D01*
X147439847Y-93528283D02*
X147344609Y-93480664D01*
X147344609Y-93480664D02*
X147154133Y-93480664D01*
X147154133Y-93480664D02*
X147058895Y-93528283D01*
X147058895Y-93528283D02*
X147011276Y-93575902D01*
X147011276Y-93575902D02*
X146963657Y-93671140D01*
X146963657Y-93671140D02*
X146963657Y-93956854D01*
X146963657Y-93956854D02*
X147011276Y-94052092D01*
X147011276Y-94052092D02*
X147058895Y-94099712D01*
X147058895Y-94099712D02*
X147154133Y-94147331D01*
X147154133Y-94147331D02*
X147344609Y-94147331D01*
X147344609Y-94147331D02*
X147439847Y-94099712D01*
X146773181Y-94242569D02*
X146011276Y-94242569D01*
X145296990Y-93147331D02*
X145773180Y-93147331D01*
X145773180Y-93147331D02*
X145820799Y-93623521D01*
X145820799Y-93623521D02*
X145773180Y-93575902D01*
X145773180Y-93575902D02*
X145677942Y-93528283D01*
X145677942Y-93528283D02*
X145439847Y-93528283D01*
X145439847Y-93528283D02*
X145344609Y-93575902D01*
X145344609Y-93575902D02*
X145296990Y-93623521D01*
X145296990Y-93623521D02*
X145249371Y-93718759D01*
X145249371Y-93718759D02*
X145249371Y-93956854D01*
X145249371Y-93956854D02*
X145296990Y-94052092D01*
X145296990Y-94052092D02*
X145344609Y-94099712D01*
X145344609Y-94099712D02*
X145439847Y-94147331D01*
X145439847Y-94147331D02*
X145677942Y-94147331D01*
X145677942Y-94147331D02*
X145773180Y-94099712D01*
X145773180Y-94099712D02*
X145820799Y-94052092D01*
X144916037Y-93480664D02*
X144677942Y-94147331D01*
X144677942Y-94147331D02*
X144439847Y-93480664D01*
X144296990Y-94242569D02*
X143535085Y-94242569D01*
X143296989Y-94147331D02*
X143296989Y-93147331D01*
X143296989Y-93147331D02*
X142963656Y-93861616D01*
X142963656Y-93861616D02*
X142630323Y-93147331D01*
X142630323Y-93147331D02*
X142630323Y-94147331D01*
X142154132Y-94147331D02*
X142154132Y-93147331D01*
X142154132Y-93147331D02*
X141773180Y-93147331D01*
X141773180Y-93147331D02*
X141677942Y-93194950D01*
X141677942Y-93194950D02*
X141630323Y-93242569D01*
X141630323Y-93242569D02*
X141582704Y-93337807D01*
X141582704Y-93337807D02*
X141582704Y-93480664D01*
X141582704Y-93480664D02*
X141630323Y-93575902D01*
X141630323Y-93575902D02*
X141677942Y-93623521D01*
X141677942Y-93623521D02*
X141773180Y-93671140D01*
X141773180Y-93671140D02*
X142154132Y-93671140D01*
X140630323Y-94147331D02*
X141201751Y-94147331D01*
X140916037Y-94147331D02*
X140916037Y-93147331D01*
X140916037Y-93147331D02*
X141011275Y-93290188D01*
X141011275Y-93290188D02*
X141106513Y-93385426D01*
X141106513Y-93385426D02*
X141201751Y-93433045D01*
X139725561Y-93147331D02*
X140201751Y-93147331D01*
X140201751Y-93147331D02*
X140249370Y-93623521D01*
X140249370Y-93623521D02*
X140201751Y-93575902D01*
X140201751Y-93575902D02*
X140106513Y-93528283D01*
X140106513Y-93528283D02*
X139868418Y-93528283D01*
X139868418Y-93528283D02*
X139773180Y-93575902D01*
X139773180Y-93575902D02*
X139725561Y-93623521D01*
X139725561Y-93623521D02*
X139677942Y-93718759D01*
X139677942Y-93718759D02*
X139677942Y-93956854D01*
X139677942Y-93956854D02*
X139725561Y-94052092D01*
X139725561Y-94052092D02*
X139773180Y-94099712D01*
X139773180Y-94099712D02*
X139868418Y-94147331D01*
X139868418Y-94147331D02*
X140106513Y-94147331D01*
X140106513Y-94147331D02*
X140201751Y-94099712D01*
X140201751Y-94099712D02*
X140249370Y-94052092D01*
X139106513Y-93575902D02*
X139201751Y-93528283D01*
X139201751Y-93528283D02*
X139249370Y-93480664D01*
X139249370Y-93480664D02*
X139296989Y-93385426D01*
X139296989Y-93385426D02*
X139296989Y-93337807D01*
X139296989Y-93337807D02*
X139249370Y-93242569D01*
X139249370Y-93242569D02*
X139201751Y-93194950D01*
X139201751Y-93194950D02*
X139106513Y-93147331D01*
X139106513Y-93147331D02*
X138916037Y-93147331D01*
X138916037Y-93147331D02*
X138820799Y-93194950D01*
X138820799Y-93194950D02*
X138773180Y-93242569D01*
X138773180Y-93242569D02*
X138725561Y-93337807D01*
X138725561Y-93337807D02*
X138725561Y-93385426D01*
X138725561Y-93385426D02*
X138773180Y-93480664D01*
X138773180Y-93480664D02*
X138820799Y-93528283D01*
X138820799Y-93528283D02*
X138916037Y-93575902D01*
X138916037Y-93575902D02*
X139106513Y-93575902D01*
X139106513Y-93575902D02*
X139201751Y-93623521D01*
X139201751Y-93623521D02*
X139249370Y-93671140D01*
X139249370Y-93671140D02*
X139296989Y-93766378D01*
X139296989Y-93766378D02*
X139296989Y-93956854D01*
X139296989Y-93956854D02*
X139249370Y-94052092D01*
X139249370Y-94052092D02*
X139201751Y-94099712D01*
X139201751Y-94099712D02*
X139106513Y-94147331D01*
X139106513Y-94147331D02*
X138916037Y-94147331D01*
X138916037Y-94147331D02*
X138820799Y-94099712D01*
X138820799Y-94099712D02*
X138773180Y-94052092D01*
X138773180Y-94052092D02*
X138725561Y-93956854D01*
X138725561Y-93956854D02*
X138725561Y-93766378D01*
X138725561Y-93766378D02*
X138773180Y-93671140D01*
X138773180Y-93671140D02*
X138820799Y-93623521D01*
X138820799Y-93623521D02*
X138916037Y-93575902D01*
X137868418Y-93480664D02*
X137868418Y-94147331D01*
X138106513Y-93099712D02*
X138344608Y-93813997D01*
X138344608Y-93813997D02*
X137725561Y-93813997D01*
X137344608Y-93623521D02*
X137011275Y-93623521D01*
X136868418Y-94147331D02*
X137344608Y-94147331D01*
X137344608Y-94147331D02*
X137344608Y-93147331D01*
X137344608Y-93147331D02*
X136868418Y-93147331D01*
X136439846Y-94147331D02*
X136439846Y-93147331D01*
X136439846Y-93147331D02*
X135868418Y-94147331D01*
X135868418Y-94147331D02*
X135868418Y-93147331D01*
X158201755Y-95709656D02*
X158296993Y-95757275D01*
X158296993Y-95757275D02*
X158487469Y-95757275D01*
X158487469Y-95757275D02*
X158582707Y-95709656D01*
X158582707Y-95709656D02*
X158630326Y-95662036D01*
X158630326Y-95662036D02*
X158677945Y-95566798D01*
X158677945Y-95566798D02*
X158677945Y-95281084D01*
X158677945Y-95281084D02*
X158630326Y-95185846D01*
X158630326Y-95185846D02*
X158582707Y-95138227D01*
X158582707Y-95138227D02*
X158487469Y-95090608D01*
X158487469Y-95090608D02*
X158296993Y-95090608D01*
X158296993Y-95090608D02*
X158201755Y-95138227D01*
X157868421Y-95090608D02*
X157630326Y-95757275D01*
X157392231Y-95090608D02*
X157630326Y-95757275D01*
X157630326Y-95757275D02*
X157725564Y-95995370D01*
X157725564Y-95995370D02*
X157773183Y-96042989D01*
X157773183Y-96042989D02*
X157868421Y-96090608D01*
X157011278Y-95757275D02*
X157011278Y-94757275D01*
X157011278Y-95138227D02*
X156916040Y-95090608D01*
X156916040Y-95090608D02*
X156725564Y-95090608D01*
X156725564Y-95090608D02*
X156630326Y-95138227D01*
X156630326Y-95138227D02*
X156582707Y-95185846D01*
X156582707Y-95185846D02*
X156535088Y-95281084D01*
X156535088Y-95281084D02*
X156535088Y-95566798D01*
X156535088Y-95566798D02*
X156582707Y-95662036D01*
X156582707Y-95662036D02*
X156630326Y-95709656D01*
X156630326Y-95709656D02*
X156725564Y-95757275D01*
X156725564Y-95757275D02*
X156916040Y-95757275D01*
X156916040Y-95757275D02*
X157011278Y-95709656D01*
X155725564Y-95709656D02*
X155820802Y-95757275D01*
X155820802Y-95757275D02*
X156011278Y-95757275D01*
X156011278Y-95757275D02*
X156106516Y-95709656D01*
X156106516Y-95709656D02*
X156154135Y-95614417D01*
X156154135Y-95614417D02*
X156154135Y-95233465D01*
X156154135Y-95233465D02*
X156106516Y-95138227D01*
X156106516Y-95138227D02*
X156011278Y-95090608D01*
X156011278Y-95090608D02*
X155820802Y-95090608D01*
X155820802Y-95090608D02*
X155725564Y-95138227D01*
X155725564Y-95138227D02*
X155677945Y-95233465D01*
X155677945Y-95233465D02*
X155677945Y-95328703D01*
X155677945Y-95328703D02*
X156154135Y-95423941D01*
X155249373Y-95757275D02*
X155249373Y-95090608D01*
X155249373Y-95281084D02*
X155201754Y-95185846D01*
X155201754Y-95185846D02*
X155154135Y-95138227D01*
X155154135Y-95138227D02*
X155058897Y-95090608D01*
X155058897Y-95090608D02*
X154963659Y-95090608D01*
X154630325Y-95757275D02*
X154630325Y-94757275D01*
X154630325Y-95138227D02*
X154535087Y-95090608D01*
X154535087Y-95090608D02*
X154344611Y-95090608D01*
X154344611Y-95090608D02*
X154249373Y-95138227D01*
X154249373Y-95138227D02*
X154201754Y-95185846D01*
X154201754Y-95185846D02*
X154154135Y-95281084D01*
X154154135Y-95281084D02*
X154154135Y-95566798D01*
X154154135Y-95566798D02*
X154201754Y-95662036D01*
X154201754Y-95662036D02*
X154249373Y-95709656D01*
X154249373Y-95709656D02*
X154344611Y-95757275D01*
X154344611Y-95757275D02*
X154535087Y-95757275D01*
X154535087Y-95757275D02*
X154630325Y-95709656D01*
X153582706Y-95757275D02*
X153677944Y-95709656D01*
X153677944Y-95709656D02*
X153725563Y-95662036D01*
X153725563Y-95662036D02*
X153773182Y-95566798D01*
X153773182Y-95566798D02*
X153773182Y-95281084D01*
X153773182Y-95281084D02*
X153725563Y-95185846D01*
X153725563Y-95185846D02*
X153677944Y-95138227D01*
X153677944Y-95138227D02*
X153582706Y-95090608D01*
X153582706Y-95090608D02*
X153439849Y-95090608D01*
X153439849Y-95090608D02*
X153344611Y-95138227D01*
X153344611Y-95138227D02*
X153296992Y-95185846D01*
X153296992Y-95185846D02*
X153249373Y-95281084D01*
X153249373Y-95281084D02*
X153249373Y-95566798D01*
X153249373Y-95566798D02*
X153296992Y-95662036D01*
X153296992Y-95662036D02*
X153344611Y-95709656D01*
X153344611Y-95709656D02*
X153439849Y-95757275D01*
X153439849Y-95757275D02*
X153582706Y-95757275D01*
X152916039Y-95090608D02*
X152677944Y-95757275D01*
X152439849Y-95090608D02*
X152677944Y-95757275D01*
X152677944Y-95757275D02*
X152773182Y-95995370D01*
X152773182Y-95995370D02*
X152820801Y-96042989D01*
X152820801Y-96042989D02*
X152916039Y-96090608D01*
X151630325Y-94757275D02*
X151820801Y-94757275D01*
X151820801Y-94757275D02*
X151916039Y-94804894D01*
X151916039Y-94804894D02*
X151963658Y-94852513D01*
X151963658Y-94852513D02*
X152058896Y-94995370D01*
X152058896Y-94995370D02*
X152106515Y-95185846D01*
X152106515Y-95185846D02*
X152106515Y-95566798D01*
X152106515Y-95566798D02*
X152058896Y-95662036D01*
X152058896Y-95662036D02*
X152011277Y-95709656D01*
X152011277Y-95709656D02*
X151916039Y-95757275D01*
X151916039Y-95757275D02*
X151725563Y-95757275D01*
X151725563Y-95757275D02*
X151630325Y-95709656D01*
X151630325Y-95709656D02*
X151582706Y-95662036D01*
X151582706Y-95662036D02*
X151535087Y-95566798D01*
X151535087Y-95566798D02*
X151535087Y-95328703D01*
X151535087Y-95328703D02*
X151582706Y-95233465D01*
X151582706Y-95233465D02*
X151630325Y-95185846D01*
X151630325Y-95185846D02*
X151725563Y-95138227D01*
X151725563Y-95138227D02*
X151916039Y-95138227D01*
X151916039Y-95138227D02*
X152011277Y-95185846D01*
X152011277Y-95185846D02*
X152058896Y-95233465D01*
X152058896Y-95233465D02*
X152106515Y-95328703D01*
X150677944Y-94757275D02*
X150868420Y-94757275D01*
X150868420Y-94757275D02*
X150963658Y-94804894D01*
X150963658Y-94804894D02*
X151011277Y-94852513D01*
X151011277Y-94852513D02*
X151106515Y-94995370D01*
X151106515Y-94995370D02*
X151154134Y-95185846D01*
X151154134Y-95185846D02*
X151154134Y-95566798D01*
X151154134Y-95566798D02*
X151106515Y-95662036D01*
X151106515Y-95662036D02*
X151058896Y-95709656D01*
X151058896Y-95709656D02*
X150963658Y-95757275D01*
X150963658Y-95757275D02*
X150773182Y-95757275D01*
X150773182Y-95757275D02*
X150677944Y-95709656D01*
X150677944Y-95709656D02*
X150630325Y-95662036D01*
X150630325Y-95662036D02*
X150582706Y-95566798D01*
X150582706Y-95566798D02*
X150582706Y-95328703D01*
X150582706Y-95328703D02*
X150630325Y-95233465D01*
X150630325Y-95233465D02*
X150677944Y-95185846D01*
X150677944Y-95185846D02*
X150773182Y-95138227D01*
X150773182Y-95138227D02*
X150963658Y-95138227D01*
X150963658Y-95138227D02*
X151058896Y-95185846D01*
X151058896Y-95185846D02*
X151106515Y-95233465D01*
X151106515Y-95233465D02*
X151154134Y-95328703D01*
X149725563Y-94757275D02*
X149916039Y-94757275D01*
X149916039Y-94757275D02*
X150011277Y-94804894D01*
X150011277Y-94804894D02*
X150058896Y-94852513D01*
X150058896Y-94852513D02*
X150154134Y-94995370D01*
X150154134Y-94995370D02*
X150201753Y-95185846D01*
X150201753Y-95185846D02*
X150201753Y-95566798D01*
X150201753Y-95566798D02*
X150154134Y-95662036D01*
X150154134Y-95662036D02*
X150106515Y-95709656D01*
X150106515Y-95709656D02*
X150011277Y-95757275D01*
X150011277Y-95757275D02*
X149820801Y-95757275D01*
X149820801Y-95757275D02*
X149725563Y-95709656D01*
X149725563Y-95709656D02*
X149677944Y-95662036D01*
X149677944Y-95662036D02*
X149630325Y-95566798D01*
X149630325Y-95566798D02*
X149630325Y-95328703D01*
X149630325Y-95328703D02*
X149677944Y-95233465D01*
X149677944Y-95233465D02*
X149725563Y-95185846D01*
X149725563Y-95185846D02*
X149820801Y-95138227D01*
X149820801Y-95138227D02*
X150011277Y-95138227D01*
X150011277Y-95138227D02*
X150106515Y-95185846D01*
X150106515Y-95185846D02*
X150154134Y-95233465D01*
X150154134Y-95233465D02*
X150201753Y-95328703D01*
X158630326Y-97367219D02*
X158630326Y-96700552D01*
X158630326Y-96795790D02*
X158582707Y-96748171D01*
X158582707Y-96748171D02*
X158487469Y-96700552D01*
X158487469Y-96700552D02*
X158344612Y-96700552D01*
X158344612Y-96700552D02*
X158249374Y-96748171D01*
X158249374Y-96748171D02*
X158201755Y-96843409D01*
X158201755Y-96843409D02*
X158201755Y-97367219D01*
X158201755Y-96843409D02*
X158154136Y-96748171D01*
X158154136Y-96748171D02*
X158058898Y-96700552D01*
X158058898Y-96700552D02*
X157916041Y-96700552D01*
X157916041Y-96700552D02*
X157820802Y-96748171D01*
X157820802Y-96748171D02*
X157773183Y-96843409D01*
X157773183Y-96843409D02*
X157773183Y-97367219D01*
X157296993Y-97367219D02*
X157296993Y-96367219D01*
X157201755Y-96986266D02*
X156916041Y-97367219D01*
X156916041Y-96700552D02*
X157296993Y-97081504D01*
X156725565Y-97462457D02*
X155963660Y-97462457D01*
X155725564Y-97367219D02*
X155725564Y-96700552D01*
X155725564Y-96367219D02*
X155773183Y-96414838D01*
X155773183Y-96414838D02*
X155725564Y-96462457D01*
X155725564Y-96462457D02*
X155677945Y-96414838D01*
X155677945Y-96414838D02*
X155725564Y-96367219D01*
X155725564Y-96367219D02*
X155725564Y-96462457D01*
M02*
