M48
; DRILL file {KiCad 8.0.5} date 2024-12-20T11:35:26+1300
; FORMAT={-:-/ absolute / metric / decimal}
; #@! TF.CreationDate,2024-12-20T11:35:26+13:00
; #@! TF.GenerationSoftware,Kicad,Pcbnew,8.0.5
; #@! TF.FileFunction,Plated,1,2,PTH
FMAT,2
METRIC
; #@! TA.AperFunction,Plated,PTH,ComponentDrill
T1C0.920
; #@! TA.AperFunction,Plated,PTH,ComponentDrill
T2C1.000
; #@! TA.AperFunction,Plated,PTH,ComponentDrill
T3C2.300
%
G90
G05
T1
X145.21Y-87.91
X147.71Y-87.91
X149.71Y-87.91
X152.21Y-87.91
T2
X140.12Y-79.45
X140.12Y-81.99
X142.66Y-79.45
X142.66Y-81.99
X145.2Y-79.45
X145.2Y-81.99
X147.74Y-79.45
X147.74Y-81.99
X150.28Y-79.45
X150.28Y-81.99
X152.82Y-79.45
X152.82Y-81.99
X155.36Y-79.45
X155.36Y-81.99
X157.9Y-79.45
X157.9Y-81.99
T3
X142.14Y-90.62
X155.28Y-90.62
M30
