%TF.GenerationSoftware,KiCad,Pcbnew,8.0.5*%
%TF.CreationDate,2024-12-20T11:35:24+13:00*%
%TF.ProjectId,eurorack_to_usb_passive,6575726f-7261-4636-9b5f-746f5f757362,rev?*%
%TF.SameCoordinates,Original*%
%TF.FileFunction,Legend,Bot*%
%TF.FilePolarity,Positive*%
%FSLAX46Y46*%
G04 Gerber Fmt 4.6, Leading zero omitted, Abs format (unit mm)*
G04 Created by KiCad (PCBNEW 8.0.5) date 2024-12-20 11:35:24*
%MOMM*%
%LPD*%
G01*
G04 APERTURE LIST*
%ADD10C,0.200000*%
G04 APERTURE END LIST*
D10*
X158249374Y-94599712D02*
X158344612Y-94647331D01*
X158344612Y-94647331D02*
X158535088Y-94647331D01*
X158535088Y-94647331D02*
X158630326Y-94599712D01*
X158630326Y-94599712D02*
X158677945Y-94504473D01*
X158677945Y-94504473D02*
X158677945Y-94123521D01*
X158677945Y-94123521D02*
X158630326Y-94028283D01*
X158630326Y-94028283D02*
X158535088Y-93980664D01*
X158535088Y-93980664D02*
X158344612Y-93980664D01*
X158344612Y-93980664D02*
X158249374Y-94028283D01*
X158249374Y-94028283D02*
X158201755Y-94123521D01*
X158201755Y-94123521D02*
X158201755Y-94218759D01*
X158201755Y-94218759D02*
X158677945Y-94313997D01*
X157344612Y-93980664D02*
X157344612Y-94647331D01*
X157773183Y-93980664D02*
X157773183Y-94504473D01*
X157773183Y-94504473D02*
X157725564Y-94599712D01*
X157725564Y-94599712D02*
X157630326Y-94647331D01*
X157630326Y-94647331D02*
X157487469Y-94647331D01*
X157487469Y-94647331D02*
X157392231Y-94599712D01*
X157392231Y-94599712D02*
X157344612Y-94552092D01*
X156868421Y-94647331D02*
X156868421Y-93980664D01*
X156868421Y-94171140D02*
X156820802Y-94075902D01*
X156820802Y-94075902D02*
X156773183Y-94028283D01*
X156773183Y-94028283D02*
X156677945Y-93980664D01*
X156677945Y-93980664D02*
X156582707Y-93980664D01*
X156106516Y-94647331D02*
X156201754Y-94599712D01*
X156201754Y-94599712D02*
X156249373Y-94552092D01*
X156249373Y-94552092D02*
X156296992Y-94456854D01*
X156296992Y-94456854D02*
X156296992Y-94171140D01*
X156296992Y-94171140D02*
X156249373Y-94075902D01*
X156249373Y-94075902D02*
X156201754Y-94028283D01*
X156201754Y-94028283D02*
X156106516Y-93980664D01*
X156106516Y-93980664D02*
X155963659Y-93980664D01*
X155963659Y-93980664D02*
X155868421Y-94028283D01*
X155868421Y-94028283D02*
X155820802Y-94075902D01*
X155820802Y-94075902D02*
X155773183Y-94171140D01*
X155773183Y-94171140D02*
X155773183Y-94456854D01*
X155773183Y-94456854D02*
X155820802Y-94552092D01*
X155820802Y-94552092D02*
X155868421Y-94599712D01*
X155868421Y-94599712D02*
X155963659Y-94647331D01*
X155963659Y-94647331D02*
X156106516Y-94647331D01*
X155344611Y-94647331D02*
X155344611Y-93980664D01*
X155344611Y-94171140D02*
X155296992Y-94075902D01*
X155296992Y-94075902D02*
X155249373Y-94028283D01*
X155249373Y-94028283D02*
X155154135Y-93980664D01*
X155154135Y-93980664D02*
X155058897Y-93980664D01*
X154296992Y-94647331D02*
X154296992Y-94123521D01*
X154296992Y-94123521D02*
X154344611Y-94028283D01*
X154344611Y-94028283D02*
X154439849Y-93980664D01*
X154439849Y-93980664D02*
X154630325Y-93980664D01*
X154630325Y-93980664D02*
X154725563Y-94028283D01*
X154296992Y-94599712D02*
X154392230Y-94647331D01*
X154392230Y-94647331D02*
X154630325Y-94647331D01*
X154630325Y-94647331D02*
X154725563Y-94599712D01*
X154725563Y-94599712D02*
X154773182Y-94504473D01*
X154773182Y-94504473D02*
X154773182Y-94409235D01*
X154773182Y-94409235D02*
X154725563Y-94313997D01*
X154725563Y-94313997D02*
X154630325Y-94266378D01*
X154630325Y-94266378D02*
X154392230Y-94266378D01*
X154392230Y-94266378D02*
X154296992Y-94218759D01*
X153392230Y-94599712D02*
X153487468Y-94647331D01*
X153487468Y-94647331D02*
X153677944Y-94647331D01*
X153677944Y-94647331D02*
X153773182Y-94599712D01*
X153773182Y-94599712D02*
X153820801Y-94552092D01*
X153820801Y-94552092D02*
X153868420Y-94456854D01*
X153868420Y-94456854D02*
X153868420Y-94171140D01*
X153868420Y-94171140D02*
X153820801Y-94075902D01*
X153820801Y-94075902D02*
X153773182Y-94028283D01*
X153773182Y-94028283D02*
X153677944Y-93980664D01*
X153677944Y-93980664D02*
X153487468Y-93980664D01*
X153487468Y-93980664D02*
X153392230Y-94028283D01*
X152963658Y-94647331D02*
X152963658Y-93647331D01*
X152868420Y-94266378D02*
X152582706Y-94647331D01*
X152582706Y-93980664D02*
X152963658Y-94361616D01*
X152392230Y-94742569D02*
X151630325Y-94742569D01*
X151535086Y-93980664D02*
X151154134Y-93980664D01*
X151392229Y-93647331D02*
X151392229Y-94504473D01*
X151392229Y-94504473D02*
X151344610Y-94599712D01*
X151344610Y-94599712D02*
X151249372Y-94647331D01*
X151249372Y-94647331D02*
X151154134Y-94647331D01*
X150677943Y-94647331D02*
X150773181Y-94599712D01*
X150773181Y-94599712D02*
X150820800Y-94552092D01*
X150820800Y-94552092D02*
X150868419Y-94456854D01*
X150868419Y-94456854D02*
X150868419Y-94171140D01*
X150868419Y-94171140D02*
X150820800Y-94075902D01*
X150820800Y-94075902D02*
X150773181Y-94028283D01*
X150773181Y-94028283D02*
X150677943Y-93980664D01*
X150677943Y-93980664D02*
X150535086Y-93980664D01*
X150535086Y-93980664D02*
X150439848Y-94028283D01*
X150439848Y-94028283D02*
X150392229Y-94075902D01*
X150392229Y-94075902D02*
X150344610Y-94171140D01*
X150344610Y-94171140D02*
X150344610Y-94456854D01*
X150344610Y-94456854D02*
X150392229Y-94552092D01*
X150392229Y-94552092D02*
X150439848Y-94599712D01*
X150439848Y-94599712D02*
X150535086Y-94647331D01*
X150535086Y-94647331D02*
X150677943Y-94647331D01*
X150154134Y-94742569D02*
X149392229Y-94742569D01*
X148725562Y-93980664D02*
X148725562Y-94647331D01*
X149154133Y-93980664D02*
X149154133Y-94504473D01*
X149154133Y-94504473D02*
X149106514Y-94599712D01*
X149106514Y-94599712D02*
X149011276Y-94647331D01*
X149011276Y-94647331D02*
X148868419Y-94647331D01*
X148868419Y-94647331D02*
X148773181Y-94599712D01*
X148773181Y-94599712D02*
X148725562Y-94552092D01*
X148296990Y-94599712D02*
X148201752Y-94647331D01*
X148201752Y-94647331D02*
X148011276Y-94647331D01*
X148011276Y-94647331D02*
X147916038Y-94599712D01*
X147916038Y-94599712D02*
X147868419Y-94504473D01*
X147868419Y-94504473D02*
X147868419Y-94456854D01*
X147868419Y-94456854D02*
X147916038Y-94361616D01*
X147916038Y-94361616D02*
X148011276Y-94313997D01*
X148011276Y-94313997D02*
X148154133Y-94313997D01*
X148154133Y-94313997D02*
X148249371Y-94266378D01*
X148249371Y-94266378D02*
X148296990Y-94171140D01*
X148296990Y-94171140D02*
X148296990Y-94123521D01*
X148296990Y-94123521D02*
X148249371Y-94028283D01*
X148249371Y-94028283D02*
X148154133Y-93980664D01*
X148154133Y-93980664D02*
X148011276Y-93980664D01*
X148011276Y-93980664D02*
X147916038Y-94028283D01*
X147439847Y-94647331D02*
X147439847Y-93647331D01*
X147439847Y-94028283D02*
X147344609Y-93980664D01*
X147344609Y-93980664D02*
X147154133Y-93980664D01*
X147154133Y-93980664D02*
X147058895Y-94028283D01*
X147058895Y-94028283D02*
X147011276Y-94075902D01*
X147011276Y-94075902D02*
X146963657Y-94171140D01*
X146963657Y-94171140D02*
X146963657Y-94456854D01*
X146963657Y-94456854D02*
X147011276Y-94552092D01*
X147011276Y-94552092D02*
X147058895Y-94599712D01*
X147058895Y-94599712D02*
X147154133Y-94647331D01*
X147154133Y-94647331D02*
X147344609Y-94647331D01*
X147344609Y-94647331D02*
X147439847Y-94599712D01*
X146773181Y-94742569D02*
X146011276Y-94742569D01*
X145296990Y-93647331D02*
X145773180Y-93647331D01*
X145773180Y-93647331D02*
X145820799Y-94123521D01*
X145820799Y-94123521D02*
X145773180Y-94075902D01*
X145773180Y-94075902D02*
X145677942Y-94028283D01*
X145677942Y-94028283D02*
X145439847Y-94028283D01*
X145439847Y-94028283D02*
X145344609Y-94075902D01*
X145344609Y-94075902D02*
X145296990Y-94123521D01*
X145296990Y-94123521D02*
X145249371Y-94218759D01*
X145249371Y-94218759D02*
X145249371Y-94456854D01*
X145249371Y-94456854D02*
X145296990Y-94552092D01*
X145296990Y-94552092D02*
X145344609Y-94599712D01*
X145344609Y-94599712D02*
X145439847Y-94647331D01*
X145439847Y-94647331D02*
X145677942Y-94647331D01*
X145677942Y-94647331D02*
X145773180Y-94599712D01*
X145773180Y-94599712D02*
X145820799Y-94552092D01*
X144916037Y-93980664D02*
X144677942Y-94647331D01*
X144677942Y-94647331D02*
X144439847Y-93980664D01*
X144296990Y-94742569D02*
X143535085Y-94742569D01*
X143296989Y-93980664D02*
X143296989Y-94980664D01*
X143296989Y-94028283D02*
X143201751Y-93980664D01*
X143201751Y-93980664D02*
X143011275Y-93980664D01*
X143011275Y-93980664D02*
X142916037Y-94028283D01*
X142916037Y-94028283D02*
X142868418Y-94075902D01*
X142868418Y-94075902D02*
X142820799Y-94171140D01*
X142820799Y-94171140D02*
X142820799Y-94456854D01*
X142820799Y-94456854D02*
X142868418Y-94552092D01*
X142868418Y-94552092D02*
X142916037Y-94599712D01*
X142916037Y-94599712D02*
X143011275Y-94647331D01*
X143011275Y-94647331D02*
X143201751Y-94647331D01*
X143201751Y-94647331D02*
X143296989Y-94599712D01*
X141963656Y-94647331D02*
X141963656Y-94123521D01*
X141963656Y-94123521D02*
X142011275Y-94028283D01*
X142011275Y-94028283D02*
X142106513Y-93980664D01*
X142106513Y-93980664D02*
X142296989Y-93980664D01*
X142296989Y-93980664D02*
X142392227Y-94028283D01*
X141963656Y-94599712D02*
X142058894Y-94647331D01*
X142058894Y-94647331D02*
X142296989Y-94647331D01*
X142296989Y-94647331D02*
X142392227Y-94599712D01*
X142392227Y-94599712D02*
X142439846Y-94504473D01*
X142439846Y-94504473D02*
X142439846Y-94409235D01*
X142439846Y-94409235D02*
X142392227Y-94313997D01*
X142392227Y-94313997D02*
X142296989Y-94266378D01*
X142296989Y-94266378D02*
X142058894Y-94266378D01*
X142058894Y-94266378D02*
X141963656Y-94218759D01*
X141535084Y-94599712D02*
X141439846Y-94647331D01*
X141439846Y-94647331D02*
X141249370Y-94647331D01*
X141249370Y-94647331D02*
X141154132Y-94599712D01*
X141154132Y-94599712D02*
X141106513Y-94504473D01*
X141106513Y-94504473D02*
X141106513Y-94456854D01*
X141106513Y-94456854D02*
X141154132Y-94361616D01*
X141154132Y-94361616D02*
X141249370Y-94313997D01*
X141249370Y-94313997D02*
X141392227Y-94313997D01*
X141392227Y-94313997D02*
X141487465Y-94266378D01*
X141487465Y-94266378D02*
X141535084Y-94171140D01*
X141535084Y-94171140D02*
X141535084Y-94123521D01*
X141535084Y-94123521D02*
X141487465Y-94028283D01*
X141487465Y-94028283D02*
X141392227Y-93980664D01*
X141392227Y-93980664D02*
X141249370Y-93980664D01*
X141249370Y-93980664D02*
X141154132Y-94028283D01*
X140725560Y-94599712D02*
X140630322Y-94647331D01*
X140630322Y-94647331D02*
X140439846Y-94647331D01*
X140439846Y-94647331D02*
X140344608Y-94599712D01*
X140344608Y-94599712D02*
X140296989Y-94504473D01*
X140296989Y-94504473D02*
X140296989Y-94456854D01*
X140296989Y-94456854D02*
X140344608Y-94361616D01*
X140344608Y-94361616D02*
X140439846Y-94313997D01*
X140439846Y-94313997D02*
X140582703Y-94313997D01*
X140582703Y-94313997D02*
X140677941Y-94266378D01*
X140677941Y-94266378D02*
X140725560Y-94171140D01*
X140725560Y-94171140D02*
X140725560Y-94123521D01*
X140725560Y-94123521D02*
X140677941Y-94028283D01*
X140677941Y-94028283D02*
X140582703Y-93980664D01*
X140582703Y-93980664D02*
X140439846Y-93980664D01*
X140439846Y-93980664D02*
X140344608Y-94028283D01*
X139868417Y-94647331D02*
X139868417Y-93980664D01*
X139868417Y-93647331D02*
X139916036Y-93694950D01*
X139916036Y-93694950D02*
X139868417Y-93742569D01*
X139868417Y-93742569D02*
X139820798Y-93694950D01*
X139820798Y-93694950D02*
X139868417Y-93647331D01*
X139868417Y-93647331D02*
X139868417Y-93742569D01*
X139487465Y-93980664D02*
X139249370Y-94647331D01*
X139249370Y-94647331D02*
X139011275Y-93980664D01*
X138249370Y-94599712D02*
X138344608Y-94647331D01*
X138344608Y-94647331D02*
X138535084Y-94647331D01*
X138535084Y-94647331D02*
X138630322Y-94599712D01*
X138630322Y-94599712D02*
X138677941Y-94504473D01*
X138677941Y-94504473D02*
X138677941Y-94123521D01*
X138677941Y-94123521D02*
X138630322Y-94028283D01*
X138630322Y-94028283D02*
X138535084Y-93980664D01*
X138535084Y-93980664D02*
X138344608Y-93980664D01*
X138344608Y-93980664D02*
X138249370Y-94028283D01*
X138249370Y-94028283D02*
X138201751Y-94123521D01*
X138201751Y-94123521D02*
X138201751Y-94218759D01*
X138201751Y-94218759D02*
X138677941Y-94313997D01*
X158201755Y-96209656D02*
X158296993Y-96257275D01*
X158296993Y-96257275D02*
X158487469Y-96257275D01*
X158487469Y-96257275D02*
X158582707Y-96209656D01*
X158582707Y-96209656D02*
X158630326Y-96162036D01*
X158630326Y-96162036D02*
X158677945Y-96066798D01*
X158677945Y-96066798D02*
X158677945Y-95781084D01*
X158677945Y-95781084D02*
X158630326Y-95685846D01*
X158630326Y-95685846D02*
X158582707Y-95638227D01*
X158582707Y-95638227D02*
X158487469Y-95590608D01*
X158487469Y-95590608D02*
X158296993Y-95590608D01*
X158296993Y-95590608D02*
X158201755Y-95638227D01*
X157868421Y-95590608D02*
X157630326Y-96257275D01*
X157392231Y-95590608D02*
X157630326Y-96257275D01*
X157630326Y-96257275D02*
X157725564Y-96495370D01*
X157725564Y-96495370D02*
X157773183Y-96542989D01*
X157773183Y-96542989D02*
X157868421Y-96590608D01*
X157011278Y-96257275D02*
X157011278Y-95257275D01*
X157011278Y-95638227D02*
X156916040Y-95590608D01*
X156916040Y-95590608D02*
X156725564Y-95590608D01*
X156725564Y-95590608D02*
X156630326Y-95638227D01*
X156630326Y-95638227D02*
X156582707Y-95685846D01*
X156582707Y-95685846D02*
X156535088Y-95781084D01*
X156535088Y-95781084D02*
X156535088Y-96066798D01*
X156535088Y-96066798D02*
X156582707Y-96162036D01*
X156582707Y-96162036D02*
X156630326Y-96209656D01*
X156630326Y-96209656D02*
X156725564Y-96257275D01*
X156725564Y-96257275D02*
X156916040Y-96257275D01*
X156916040Y-96257275D02*
X157011278Y-96209656D01*
X155725564Y-96209656D02*
X155820802Y-96257275D01*
X155820802Y-96257275D02*
X156011278Y-96257275D01*
X156011278Y-96257275D02*
X156106516Y-96209656D01*
X156106516Y-96209656D02*
X156154135Y-96114417D01*
X156154135Y-96114417D02*
X156154135Y-95733465D01*
X156154135Y-95733465D02*
X156106516Y-95638227D01*
X156106516Y-95638227D02*
X156011278Y-95590608D01*
X156011278Y-95590608D02*
X155820802Y-95590608D01*
X155820802Y-95590608D02*
X155725564Y-95638227D01*
X155725564Y-95638227D02*
X155677945Y-95733465D01*
X155677945Y-95733465D02*
X155677945Y-95828703D01*
X155677945Y-95828703D02*
X156154135Y-95923941D01*
X155249373Y-96257275D02*
X155249373Y-95590608D01*
X155249373Y-95781084D02*
X155201754Y-95685846D01*
X155201754Y-95685846D02*
X155154135Y-95638227D01*
X155154135Y-95638227D02*
X155058897Y-95590608D01*
X155058897Y-95590608D02*
X154963659Y-95590608D01*
X154630325Y-96257275D02*
X154630325Y-95257275D01*
X154630325Y-95638227D02*
X154535087Y-95590608D01*
X154535087Y-95590608D02*
X154344611Y-95590608D01*
X154344611Y-95590608D02*
X154249373Y-95638227D01*
X154249373Y-95638227D02*
X154201754Y-95685846D01*
X154201754Y-95685846D02*
X154154135Y-95781084D01*
X154154135Y-95781084D02*
X154154135Y-96066798D01*
X154154135Y-96066798D02*
X154201754Y-96162036D01*
X154201754Y-96162036D02*
X154249373Y-96209656D01*
X154249373Y-96209656D02*
X154344611Y-96257275D01*
X154344611Y-96257275D02*
X154535087Y-96257275D01*
X154535087Y-96257275D02*
X154630325Y-96209656D01*
X153582706Y-96257275D02*
X153677944Y-96209656D01*
X153677944Y-96209656D02*
X153725563Y-96162036D01*
X153725563Y-96162036D02*
X153773182Y-96066798D01*
X153773182Y-96066798D02*
X153773182Y-95781084D01*
X153773182Y-95781084D02*
X153725563Y-95685846D01*
X153725563Y-95685846D02*
X153677944Y-95638227D01*
X153677944Y-95638227D02*
X153582706Y-95590608D01*
X153582706Y-95590608D02*
X153439849Y-95590608D01*
X153439849Y-95590608D02*
X153344611Y-95638227D01*
X153344611Y-95638227D02*
X153296992Y-95685846D01*
X153296992Y-95685846D02*
X153249373Y-95781084D01*
X153249373Y-95781084D02*
X153249373Y-96066798D01*
X153249373Y-96066798D02*
X153296992Y-96162036D01*
X153296992Y-96162036D02*
X153344611Y-96209656D01*
X153344611Y-96209656D02*
X153439849Y-96257275D01*
X153439849Y-96257275D02*
X153582706Y-96257275D01*
X152916039Y-95590608D02*
X152677944Y-96257275D01*
X152439849Y-95590608D02*
X152677944Y-96257275D01*
X152677944Y-96257275D02*
X152773182Y-96495370D01*
X152773182Y-96495370D02*
X152820801Y-96542989D01*
X152820801Y-96542989D02*
X152916039Y-96590608D01*
X151630325Y-95257275D02*
X151820801Y-95257275D01*
X151820801Y-95257275D02*
X151916039Y-95304894D01*
X151916039Y-95304894D02*
X151963658Y-95352513D01*
X151963658Y-95352513D02*
X152058896Y-95495370D01*
X152058896Y-95495370D02*
X152106515Y-95685846D01*
X152106515Y-95685846D02*
X152106515Y-96066798D01*
X152106515Y-96066798D02*
X152058896Y-96162036D01*
X152058896Y-96162036D02*
X152011277Y-96209656D01*
X152011277Y-96209656D02*
X151916039Y-96257275D01*
X151916039Y-96257275D02*
X151725563Y-96257275D01*
X151725563Y-96257275D02*
X151630325Y-96209656D01*
X151630325Y-96209656D02*
X151582706Y-96162036D01*
X151582706Y-96162036D02*
X151535087Y-96066798D01*
X151535087Y-96066798D02*
X151535087Y-95828703D01*
X151535087Y-95828703D02*
X151582706Y-95733465D01*
X151582706Y-95733465D02*
X151630325Y-95685846D01*
X151630325Y-95685846D02*
X151725563Y-95638227D01*
X151725563Y-95638227D02*
X151916039Y-95638227D01*
X151916039Y-95638227D02*
X152011277Y-95685846D01*
X152011277Y-95685846D02*
X152058896Y-95733465D01*
X152058896Y-95733465D02*
X152106515Y-95828703D01*
X150677944Y-95257275D02*
X150868420Y-95257275D01*
X150868420Y-95257275D02*
X150963658Y-95304894D01*
X150963658Y-95304894D02*
X151011277Y-95352513D01*
X151011277Y-95352513D02*
X151106515Y-95495370D01*
X151106515Y-95495370D02*
X151154134Y-95685846D01*
X151154134Y-95685846D02*
X151154134Y-96066798D01*
X151154134Y-96066798D02*
X151106515Y-96162036D01*
X151106515Y-96162036D02*
X151058896Y-96209656D01*
X151058896Y-96209656D02*
X150963658Y-96257275D01*
X150963658Y-96257275D02*
X150773182Y-96257275D01*
X150773182Y-96257275D02*
X150677944Y-96209656D01*
X150677944Y-96209656D02*
X150630325Y-96162036D01*
X150630325Y-96162036D02*
X150582706Y-96066798D01*
X150582706Y-96066798D02*
X150582706Y-95828703D01*
X150582706Y-95828703D02*
X150630325Y-95733465D01*
X150630325Y-95733465D02*
X150677944Y-95685846D01*
X150677944Y-95685846D02*
X150773182Y-95638227D01*
X150773182Y-95638227D02*
X150963658Y-95638227D01*
X150963658Y-95638227D02*
X151058896Y-95685846D01*
X151058896Y-95685846D02*
X151106515Y-95733465D01*
X151106515Y-95733465D02*
X151154134Y-95828703D01*
X149725563Y-95257275D02*
X149916039Y-95257275D01*
X149916039Y-95257275D02*
X150011277Y-95304894D01*
X150011277Y-95304894D02*
X150058896Y-95352513D01*
X150058896Y-95352513D02*
X150154134Y-95495370D01*
X150154134Y-95495370D02*
X150201753Y-95685846D01*
X150201753Y-95685846D02*
X150201753Y-96066798D01*
X150201753Y-96066798D02*
X150154134Y-96162036D01*
X150154134Y-96162036D02*
X150106515Y-96209656D01*
X150106515Y-96209656D02*
X150011277Y-96257275D01*
X150011277Y-96257275D02*
X149820801Y-96257275D01*
X149820801Y-96257275D02*
X149725563Y-96209656D01*
X149725563Y-96209656D02*
X149677944Y-96162036D01*
X149677944Y-96162036D02*
X149630325Y-96066798D01*
X149630325Y-96066798D02*
X149630325Y-95828703D01*
X149630325Y-95828703D02*
X149677944Y-95733465D01*
X149677944Y-95733465D02*
X149725563Y-95685846D01*
X149725563Y-95685846D02*
X149820801Y-95638227D01*
X149820801Y-95638227D02*
X150011277Y-95638227D01*
X150011277Y-95638227D02*
X150106515Y-95685846D01*
X150106515Y-95685846D02*
X150154134Y-95733465D01*
X150154134Y-95733465D02*
X150201753Y-95828703D01*
X158630326Y-97867219D02*
X158630326Y-97200552D01*
X158630326Y-97295790D02*
X158582707Y-97248171D01*
X158582707Y-97248171D02*
X158487469Y-97200552D01*
X158487469Y-97200552D02*
X158344612Y-97200552D01*
X158344612Y-97200552D02*
X158249374Y-97248171D01*
X158249374Y-97248171D02*
X158201755Y-97343409D01*
X158201755Y-97343409D02*
X158201755Y-97867219D01*
X158201755Y-97343409D02*
X158154136Y-97248171D01*
X158154136Y-97248171D02*
X158058898Y-97200552D01*
X158058898Y-97200552D02*
X157916041Y-97200552D01*
X157916041Y-97200552D02*
X157820802Y-97248171D01*
X157820802Y-97248171D02*
X157773183Y-97343409D01*
X157773183Y-97343409D02*
X157773183Y-97867219D01*
X157296993Y-97867219D02*
X157296993Y-96867219D01*
X157201755Y-97486266D02*
X156916041Y-97867219D01*
X156916041Y-97200552D02*
X157296993Y-97581504D01*
X156725565Y-97962457D02*
X155963660Y-97962457D01*
X155725564Y-97867219D02*
X155725564Y-97200552D01*
X155725564Y-96867219D02*
X155773183Y-96914838D01*
X155773183Y-96914838D02*
X155725564Y-96962457D01*
X155725564Y-96962457D02*
X155677945Y-96914838D01*
X155677945Y-96914838D02*
X155725564Y-96867219D01*
X155725564Y-96867219D02*
X155725564Y-96962457D01*
M02*
